<svg id="Layer_1" data-name="Layer 1" xmlns="http://www.w3.org/2000/svg" xmlns:xlink="http://www.w3.org/1999/xlink" viewBox="0 0 1920 1280"><defs><style>.cls-1,.cls-3{fill:tomato;}.cls-1,.cls-24,.cls-9{opacity:0.1;}.cls-1,.cls-19,.cls-9{isolation:isolate;}.cls-2{opacity:0.8;}.cls-4{fill:#444053;}.cls-16,.cls-25,.cls-5,.cls-6{fill:none;}.cls-5,.cls-6{stroke:#444053;}.cls-13,.cls-14,.cls-16,.cls-25,.cls-5,.cls-6{stroke-miterlimit:10;}.cls-6{stroke-width:0.75px;}.cls-7{fill:url(#linear-gradient);}.cls-8{fill:#fbbebe;}.cls-10{fill:#3f3d56;}.cls-11{fill:#0062c1;}.cls-12{fill:#f15a24;}.cls-13,.cls-14,.cls-15{fill:#fff;}.cls-13{stroke:#fff;}.cls-13,.cls-14{stroke-width:3px;}.cls-14{stroke:#f15a24;}.cls-16{stroke:#565987;}.cls-17{fill:#ffd037;}.cls-18{fill:#a8a8a8;}.cls-19{opacity:0.2;}.cls-20{fill:#65617d;}.cls-21{fill:#be6f72;}.cls-22{fill:#e3e8f4;}.cls-23{fill:#f86d70;}.cls-25{stroke:#3f3d56;}</style><linearGradient id="linear-gradient" x1="1416.16" y1="625.16" x2="1416.16" y2="1070.22" gradientTransform="matrix(1, 0, 0, -1, -95.23, 1207.2)" gradientUnits="userSpaceOnUse"><stop offset="0" stop-color="gray" stop-opacity="0.25"/><stop offset="0.54" stop-color="gray" stop-opacity="0.12"/><stop offset="1" stop-color="gray" stop-opacity="0.1"/></linearGradient></defs><title>landing1</title><path class="cls-1" d="M1558.55,108c-48-1.24-93.64-12.74-137.26-25.32s-86.82-26.55-133.63-33.22c-30.11-4.29-64.54-4.9-88.8,7.1-23.35,11.53-30.89,31.43-34.95,50-3.05,13.91-4.84,28.54,3.52,41.56,5.81,9,16.11,16.64,23.24,25.3,24.8,30.13,7.27,67.28-19.6,96.7-12.6,13.8-27.24,27-37,41.65s-14.23,31.52-5.71,46.51c8.43,14.82,28.54,26,50.32,33.85,44.23,15.94,96.33,20.5,147.17,23.09,112.52,5.72,225.62,3.23,338.43.74,41.75-.92,83.68-1.85,124.75-6.67,22.8-2.66,46.35-6.89,62.91-17.1,21-12.95,26.23-34.89,12.14-51.13-23.63-27.25-88.93-34-105.46-63.26-9.08-16.1.25-34,13.46-49,28.34-32,75.83-60.11,78.33-96.72,1.72-25.13-21.12-50.31-56.42-62.21-37-12.46-88.32-10.9-115.6,9.74C1650.3,100.91,1600.9,109.09,1558.55,108Z"/><g class="cls-2"><path class="cls-3" d="M1819.56,162.55s-8.36-3.4-35,8.8-29.91,10.65-36.79,8.78-10.73-2.3-18.11-12.49c0,0-5.18-28.21-10.24-32.6s-26.44,2.5-26.44,2.5-25.65,5.89-30.57-28.41c0,0,3.46-25.85-1.26-33.78,0,0,9.54,4.11,25.28-2.53S1714.82,80,1714.82,80s4,10.28,3.56,16.4,2.09,8.43,9.63,5.47c0,0,3.7-5.25-1.54-13.92s-9-15.13-7.49-21.87,5.65-16.06,19.11-20.75,31.77-5.55,40.55-9.17,10.9-6,10.9-6-5.4,5.42,7.33,28.36,4.61,32.91,4.61,32.91-6.77,16.14-36.66,14.82c0,0-28.81,1-13.11,13.26,0,0,10.06-2,25.1-6.82s25.89,15,28.59,28.67S1819.56,162.55,1819.56,162.55Z"/><path class="cls-4" d="M1780.84,47.47l.16,0c1.16,4.38-11.72,22-22.72,36l-.13-.1C1773.67,63.56,1781.76,50.83,1780.84,47.47Z"/><path class="cls-4" d="M1758.38,83l.06.18c-8.79,11.18-19.84,24.51-28.69,34.39-.84.94-1.68,1.93-2.48,3l-.26-.2c.81-1,1.65-2,2.5-3C1738.35,107.48,1749.6,94.17,1758.38,83Z"/><path class="cls-4" d="M1727.22,120l.18.3c-16.1,20.1-17.17,51.31-17.21,51.59L1706.8,168C1706.84,167.73,1711,140.28,1727.22,120Z"/><path class="cls-5" d="M1800.89,151.65s-19-9.88-33.78-6.33S1719,132.79,1719,132.79s-14.15-5.74-17-12.29c0,0-9.7-10.26-10.26-15.56s-10-18.67-16.16-19.15"/><path class="cls-5" d="M1798.14,161.15s-9.56-6.44-8.45-14"/><path class="cls-5" d="M1783.48,169.47s-13.68-5-15-24.46"/><path class="cls-5" d="M1761.41,174.51a30.6,30.6,0,0,1-8.73-29.79"/><path class="cls-5" d="M1734.89,169.21s-8.7-18.25-1-30.13"/><path class="cls-5" d="M1801.11,139.61s-9.89,3.14-7.76,8.35"/><path class="cls-5" d="M1789.17,121.66s-13.23,4.2-13.54,22.92"/><path class="cls-5" d="M1770.72,117.34s-12,14.87-11.19,28.38"/><path class="cls-5" d="M1749.63,123.17s-12,11.44-10.44,17.79"/><path class="cls-5" d="M1742.41,119.14s-11.21,2-12.78-1.68"/><path class="cls-5" d="M1727.84,105.59s5.67,7.51,7.13,5.82"/><path class="cls-5" d="M1784,100.84s-28.27,2-34.67-6.47"/><path class="cls-5" d="M1721.89,67.77s13.27,28.48,22.9,32.11"/><path class="cls-5" d="M1735.82,54.2s8.15,26.19,18.24,34.38"/><path class="cls-6" d="M1795.93,79.22s-21.5,9.23-34.42-.11"/><path class="cls-6" d="M1755,48.61s4.91,19.27,11.53,23.91"/><path class="cls-6" d="M1792.68,57.63s-12.09,4.57-16.6,1.07"/><path class="cls-5" d="M1717.49,111.88s0,16.79-4.58,18"/><path class="cls-5" d="M1680.12,133.63s18.16,1.56,26.52-7.81"/><path class="cls-5" d="M1712.8,92.05s-4.38,17-16.5,21.61"/><path class="cls-5" d="M1669.24,115.7s12.85,4.44,23.9-6.91"/><path class="cls-5" d="M1698.52,77.42s-1.21,14.45-9.07,21.22"/><path class="cls-5" d="M1669.73,93.67s10.66.06,13.16-3.4"/></g><ellipse class="cls-1" cx="1318.69" cy="574.65" rx="161.55" ry="11.49"/><path class="cls-7" d="M1412.27,512.11c2.23-4,4.89-7.76,7-11.81,2-3.7,3.49-7.63,5.27-11.44,3-6.52,6.76-12.68,10.16-19,2.23-4.15,4.37-8.68,3.94-13.38-.4-4.45-3-8.3-4-12.6-4.1-17.64-14-33.84-20-50.91-1.54-4.32-3-8.68-5-12.86-3.71-8-8.89-15.27-14.08-22.43a62.62,62.62,0,0,0-6.23-7.74c-1.86-1.86-4-3.5-5.64-5.51-3.48-4.15-5.11-10.13-9.47-13.34-.07.19-.15.38-.23.57-3.12-8-13.59-13.22-19.66-19.82a118.38,118.38,0,0,1-9.73-12.79l-13.21-19.09c-2.27-3.29-4.59-6.67-5.51-10.59-1.13-4.73-.08-9.77-1.2-14.5a18.25,18.25,0,0,0-4-7.67l.39-.12c2.52-.68,5.19-.8,7.68-1.4,5.45-1.29,10.19-4.78,15.61-6.17,2.77-.74,5.73-.89,8.24-2.22a6.87,6.87,0,0,0,3.19-7.28c-1.76-9.3,3.15-18.73,2.32-28.16-.23-2.61-.89-5.15-1.32-7.74a81.74,81.74,0,0,1-.46-18.24,38.65,38.65,0,0,1,6-7.51c3.33-3.21,7.31-5.92,9.63-10a19.42,19.42,0,0,0,2-11.94c-.36-3-1.37-6.09-3.7-7.89s-5.69-1.93-8.51-1c-.39.12-.78.28-1.16.44a9.72,9.72,0,0,0-7.66-.44,23,23,0,0,0-7.5,4.73,17.32,17.32,0,0,0-3.5,3.7c-1.43,2.22-1.84,5-2.38,7.58a74.45,74.45,0,0,1-5,14.67c-.4.83-1.49,2.32-2.36,3.74l-1.59-.33c-.69,6.61-6.21,11.45-9.58,17.16-1.64,2.77-2.78,5.8-4.26,8.67a84.85,84.85,0,0,1-5.62,9q-3,4.44-6,8.81a125.45,125.45,0,0,1-8.16,11c-2.71-.22-5.43-.42-8.15-.46a65.76,65.76,0,0,0-13.57,1.21,38,38,0,0,1-.48-4.75V222c0-.39.05-.85.1-1.34a27.43,27.43,0,0,0-1.31-46.39,19.62,19.62,0,0,0,.28-2.52V170.3a3.64,3.64,0,0,0-.05-.74,10.64,10.64,0,0,0-.25-1.48c-.06-.24-.13-.47-.21-.74a7.31,7.31,0,0,0-.62-1.33.35.35,0,0,0,0-.08c-.1-.15-.19-.31-.3-.46l-.14-.17a4,4,0,0,0-.26-.32l-.18-.19a3.07,3.07,0,0,0-.25-.26l-.21-.18-.26-.23-.24-.18-.26-.2-.26-.17-.27-.17-.28-.16-.28-.16-.29-.15-.28-.13-.32-.14-.27-.12-.35-.13-.26-.1-.38-.13-.23-.08-.42-.13-.2-.06-.46-.13-.18-.05-.48-.12-.14,0-.54-.12h-.09l-.78-.17c-3.25-.67-6.51-1.25-9.8-1.73a22.08,22.08,0,0,0-8.1-.14c-3.66.81-6.71,3.29-10.14,4.82-4,1.83-8.53,2.31-12.84,3.31s-8.76,2.71-11.46,6.25c-2.06,2.69-2.88,6.12-3.5,9.47-5.13,27.89.4,56.5,1.45,84.85.4,11-.09,22.83-6.35,31.87l18.22-.48c.87,0,1.75-.06,2.64-.11s1.78-.12,2.66-.22a17.6,17.6,0,0,0,6.6-2,11.32,11.32,0,0,0,2.57-2c2.48-2.55,3.79-6.11,5-9.52.41-1.15.82-2.31,1.18-3.49.15-.48.29-1,.42-1.48l0-.23.21.09a46.1,46.1,0,0,0,2.47,4.08c3.18,4.68,7.21,8.68,11.21,12.66,8,7.89,16.08,15.93,26.05,21,3.36,1.69,7,3.12,9.57,5.92,1.26,1.36,2.35,3.1,4.13,3.57,1.11.29,2.34,0,3.4.47,1.55.65,2.12,2.53,2.84,4.07s2.34,3.11,3.88,2.41a7.79,7.79,0,0,0,2.91,7.73,5.54,5.54,0,0,1,1.88,1.69,6.06,6.06,0,0,1,.39,2,7.78,7.78,0,0,0,2.8,4.81c-1.44,2.4-.28,5.83-.25,8.81,0,2.51-.82,4.92-1.38,7.36-1.64,7.15-.74,14.64.59,21.85.74,4,1.68,8.1,4.28,11.19.84,1,1.85,1.87,2.74,2.84a26.23,26.23,0,0,1,4.18,6.38,50,50,0,0,1,4.55,14.55,26.14,26.14,0,0,0,2.15,7.34c1.62,3.54.14,7.9,1.59,11.51.66,1.63,1.87,3,2.27,4.71.55,2.47-.74,4.93-1.09,7.45-.85,5.88,3.4,11.34,3.78,17.27a1.35,1.35,0,0,1-.2,1c-.29.33-.79.32-1.18.5-.74.36-.94,1.36-1.18,2.19s-.9,1.77-1.73,1.52c-12.17,6.51-24.78,12.53-37,19l-5.56,3-29.72,15.88a2.15,2.15,0,0,0-1.2,1.94c0,.36,0,.74.08,1.07-2.08.52-4.09,1.15-5.51,1.4l-1.75.35a1.88,1.88,0,0,0,.27-.74,1.48,1.48,0,0,0-1.31-1.48,4.72,4.72,0,0,0-2.14.28,30.59,30.59,0,0,1-5.19,1,37,37,0,0,0-6.22.74,7.07,7.07,0,0,0-4.81,3.7,9.07,9.07,0,0,0-.54,3.5,53.66,53.66,0,0,0,1.62,13.59,1.13,1.13,0,0,0,.54.87c.26.1.57,0,.83.12a1.08,1.08,0,0,1,.48.61c1.24,2.83,1.53,6,1.87,9.07q.73,6.86,1.87,13.67c.45,2.65,1,5.42,2.72,7.47,1.9,2.22,4.9,3.21,7.8,3.6,6.11.82,12.28-.42,18.32-1.68a5.44,5.44,0,0,0,3.09-1.4,3.54,3.54,0,0,0,.74-2.47c-.14-3-2.92-5.19-5.43-6.9l-3.44-2.38a1.47,1.47,0,0,1-.74-1.67l.22-4.5h-.67c.74-3.17,1.94-6.22,4.27-8.4,1.61-1.48,3.7-2.52,5.39-3.87a13.33,13.33,0,0,0,7.49,2.75c4.45-6,10.71-10.06,17-14.08a167,167,0,0,1,15.75-8.79q6.55-3.24,13.33-6.08c6.38-2.68,12.87-5.08,19.37-7.41a78.1,78.1,0,0,0,12.7-5.39c10.37-6,17.7-18,16.3-29.94-1.76-15.12,2-30.87,1.76-46.1-.08-4.44-.24-8.89-1.59-13.15a6.27,6.27,0,0,1,.88.74c2.7,2.52,3.35,6.52,5.93,9.4,2,2.26,5.06,3.7,6.28,6.46.93,2.11.79,5,2.73,6.18.54.35,1.2.5,1.75.84a6,6,0,0,1,1.62,1.75c2,2.93,4.18,6.07,4.4,9.64.1,1.41,0,3.05,1,4,.3.27.67.47.83.84.33.74-.53,1.53-.68,2.35-.22,1.14.91,2,1.61,3a4.67,4.67,0,0,1,0,5.49c-6.08,7.89-7.18,18.52-12.49,27-1.84,2.91-3.88,5.67-5.66,8.62-5.47,9.06-8.23,19.46-10.92,29.71a16.43,16.43,0,0,0,4.56,5.08,25.08,25.08,0,0,1-5.08,9.38,24.27,24.27,0,0,0-1.67,2.09,4.12,4.12,0,0,0-1.65-1.24,58.91,58.91,0,0,0-1.49,13c0,2.87.4,6.16,2.73,7.82a9.81,9.81,0,0,0,3,1.25l5.09,1.48a5.24,5.24,0,0,0,2.8.27c.61-.17,1.14-.54,1.75-.66a4.39,4.39,0,0,1,2,.26l4.4,1.29a28,28,0,0,1,4.34,1.53c1.25.6,2.41,1.38,3.64,2a43.24,43.24,0,0,0,6.35,2.61l7.57,2.61a27.64,27.64,0,0,0,6.57,1.71c1.56.13,3.13,0,4.67.26,1.17.2,2.3.63,3.48.74a9.11,9.11,0,0,0,5.49-1.63,4.91,4.91,0,0,0,1.58-1.43c1.11-1.73.16-4-.93-5.77a22.84,22.84,0,0,0-7.83-8.15c-1.34-.74-2.79-1.29-4.18-2-3.94-1.93-6.91-5.14-10.64-7.35a2.53,2.53,0,0,0-3.19.22c-3.1-2-6.45-4-8.15-7.24a16.58,16.58,0,0,1-1.49-5c1.75.41,3.5.74,5.27,1C1403.49,533.56,1406.63,522.19,1412.27,512.11Zm-71.19-316c-.15.84-.31,1.67-.49,2.5-1.48,7-3.6,14.75-8.44,19.93a18.45,18.45,0,0,1-5.47,3.61l-.54.27C1329.63,213.05,1335.18,204.41,1341.08,196.06Z"/><path class="cls-8" d="M1348.26,154.79c.54-2.59,1-5.3,2.39-7.53a17.6,17.6,0,0,1,3.5-3.71,23.25,23.25,0,0,1,7.52-4.69,9.37,9.37,0,0,1,8.51,1c2.37,1.79,3.37,4.88,3.75,7.83a19.3,19.3,0,0,1-2,11.86c-2.3,4-6.29,6.67-9.64,9.89a38.45,38.45,0,0,0-6.27,7.82,22.09,22.09,0,0,1-2.86,4.18,5.45,5.45,0,0,1-4.55,1.82,8,8,0,0,1-3.7-2.18c-1.37-1.2-5.06-3.34-5.19-5.24-.09-1.54,2.79-5,3.5-6.49A73.21,73.21,0,0,0,1348.26,154.79Z"/><path class="cls-9" d="M1348.26,154.79c.54-2.59,1-5.3,2.39-7.53a17.6,17.6,0,0,1,3.5-3.71,23.25,23.25,0,0,1,7.52-4.69,9.37,9.37,0,0,1,8.51,1c2.37,1.79,3.37,4.88,3.75,7.83a19.3,19.3,0,0,1-2,11.86c-2.3,4-6.29,6.67-9.64,9.89a38.45,38.45,0,0,0-6.27,7.82,22.09,22.09,0,0,1-2.86,4.18,5.45,5.45,0,0,1-4.55,1.82,8,8,0,0,1-3.7-2.18c-1.37-1.2-5.06-3.34-5.19-5.24-.09-1.54,2.79-5,3.5-6.49A73.21,73.21,0,0,0,1348.26,154.79Z"/><path class="cls-3" d="M1270.45,228.85a66.89,66.89,0,0,1,18.2-2.22c10.25.15,20.8,2.63,30.56-.51a52.87,52.87,0,0,0,7.33-3.18,18.53,18.53,0,0,0,5.47-3.59c4.86-5.14,7-12.88,8.46-19.8s1.92-14,2.31-21.07c2.53,1.18,5.19,2.34,8,2.1s5.59-2.37,5.58-5.18c-.42,6.54-.74,13.16.36,19.63.43,2.56,1.1,5.09,1.33,7.68.83,9.37-4.09,18.73-2.33,28a6.78,6.78,0,0,1-3.19,7.22c-2.52,1.36-5.48,1.53-8.25,2.23-5.43,1.38-10.18,4.83-15.63,6.12-2.54.6-5.19.75-7.69,1.39-3.6,1-6.87,3-10.54,3.66-2.75.49-5.58.16-8.36.39-2.41.2-4.79.84-7.21.9-5.93.15-11.54-3.21-15.48-7.66S1272.92,234.25,1270.45,228.85Z"/><path class="cls-9" d="M1270.45,228.85a66.89,66.89,0,0,1,18.2-2.22c10.25.15,20.8,2.63,30.56-.51a52.87,52.87,0,0,0,7.33-3.18,18.53,18.53,0,0,0,5.47-3.59c4.86-5.14,7-12.88,8.46-19.8s1.92-14,2.31-21.07c2.53,1.18,5.19,2.34,8,2.1s5.59-2.37,5.58-5.18c-.42,6.54-.74,13.16.36,19.63.43,2.56,1.1,5.09,1.33,7.68.83,9.37-4.09,18.73-2.33,28a6.78,6.78,0,0,1-3.19,7.22c-2.52,1.36-5.48,1.53-8.25,2.23-5.43,1.38-10.18,4.83-15.63,6.12-2.54.6-5.19.75-7.69,1.39-3.6,1-6.87,3-10.54,3.66-2.75.49-5.58.16-8.36.39-2.41.2-4.79.84-7.21.9-5.93.15-11.54-3.21-15.48-7.66S1272.92,234.25,1270.45,228.85Z"/><path class="cls-10" d="M1537,238a51,51,0,1,1-51,51h0a51,51,0,0,1,51-51m0-12.6A63.62,63.62,0,1,0,1600.56,289h0A63.68,63.68,0,0,0,1537,225.36Z"/><rect class="cls-10" x="1527.53" y="210.48" width="14.91" height="15.7"/><rect class="cls-10" x="1563.53" y="219.96" width="15.7" height="14.91" transform="translate(567.12 1457.22) rotate(-59)"/><rect class="cls-10" x="1589.7" y="245.42" width="15.7" height="14.91" transform="translate(77.7 806.21) rotate(-29)"/><rect class="cls-10" x="1590.44" y="316.63" width="14.91" height="15.7" transform="translate(475.97 1507.62) rotate(-58)"/><rect class="cls-10" x="1468.9" y="245.02" width="14.91" height="15.7" transform="translate(539.44 1421.53) rotate(-61)"/><rect class="cls-10" x="1468.16" y="317.01" width="15.7" height="14.91" transform="translate(52.34 831.47) rotate(-32)"/><rect class="cls-10" x="1495.06" y="219.57" width="14.91" height="15.7" transform="translate(97.48 806.33) rotate(-31)"/><rect class="cls-10" x="1527.53" y="351.76" width="14.91" height="15.7"/><rect class="cls-10" x="1563.93" y="342.67" width="14.91" height="15.7" transform="translate(43.91 859.39) rotate(-31)"/><rect class="cls-10" x="1494.66" y="343.07" width="15.7" height="14.91" transform="translate(428.2 1457.89) rotate(-59)"/><rect class="cls-10" x="1456.9" y="282.69" width="18.05" height="13.34"/><rect class="cls-10" x="1598.94" y="282.69" width="18.05" height="13.34"/><path class="cls-10" d="M1655.45,146.14a51,51,0,1,1-51,51h0a51,51,0,0,1,51-51m0-12.6a63.61,63.61,0,1,0,63.61,63.61h0A63.68,63.68,0,0,0,1655.45,133.54Z"/><rect class="cls-10" x="1646.03" y="118.67" width="14.91" height="15.7"/><rect class="cls-10" x="1682.04" y="128.13" width="15.7" height="14.91" transform="translate(703.31 1514.28) rotate(-59)"/><rect class="cls-10" x="1708.21" y="153.6" width="15.7" height="14.91" transform="translate(137.08 852.15) rotate(-29)"/><rect class="cls-10" x="1708.94" y="224.81" width="14.91" height="15.7" transform="translate(609.54 1564.95) rotate(-58)"/><rect class="cls-10" x="1587.4" y="153.21" width="14.91" height="15.7" transform="translate(680.79 1477.87) rotate(-61)"/><rect class="cls-10" x="1586.66" y="225.2" width="15.7" height="14.91" transform="translate(119 880.31) rotate(-32)"/><rect class="cls-10" x="1613.56" y="127.74" width="14.91" height="15.7" transform="matrix(0.86, -0.52, 0.52, 0.86, 161.7, 854.25)"/><rect class="cls-10" x="1646.03" y="259.93" width="14.91" height="15.7"/><rect class="cls-10" x="1682.43" y="250.85" width="14.91" height="15.7" transform="translate(108.13 907.31) rotate(-31)"/><rect class="cls-10" x="1613.17" y="251.24" width="15.7" height="14.91" transform="translate(564.38 1514.94) rotate(-59)"/><rect class="cls-10" x="1575.4" y="190.87" width="18.05" height="13.34"/><rect class="cls-10" x="1717.46" y="190.87" width="18.05" height="13.34"/><path class="cls-10" d="M1418.41,142.21h1.8a51,51,0,0,1-1.73,102h-1.81a51,51,0,0,1,1.74-102m0-12.6h0a63.61,63.61,0,0,0-2.18,127.19c.74,0,1.48,0,2.22,0a63.61,63.61,0,0,0,2.18-127.19c-.75,0-1.49,0-2.23,0Z"/><rect class="cls-10" x="1411.07" y="115.12" width="15.7" height="14.91" transform="translate(1247.15 1536.38) rotate(-88.01)"/><rect class="cls-10" x="1447.13" y="125.45" width="15.7" height="14.91" transform="translate(551.27 1280.92) rotate(-57.01)"/><rect class="cls-10" x="1472.4" y="151.81" width="15.7" height="14.91" transform="translate(89.13 689.62) rotate(-27.01)"/><rect class="cls-10" x="1470.66" y="222.96" width="14.91" height="15.7" transform="matrix(0.56, -0.83, 0.83, 0.56, 460.41, 1327.33)"/><rect class="cls-10" x="1351.67" y="147.19" width="14.91" height="15.7" transform="translate(526.42 1240.33) rotate(-59.01)"/><rect class="cls-10" x="1347.35" y="220.3" width="15.75" height="14.96" transform="translate(66.73 705.58) rotate(-29.89)"/><rect class="cls-10" x="1378.71" y="122.65" width="14.91" height="15.7" transform="translate(110.63 688.61) rotate(-29.01)"/><rect class="cls-10" x="1406.17" y="256.29" width="15.7" height="14.91" transform="translate(1101.33 1667.76) rotate(-88.01)"/><rect class="cls-10" x="1443.27" y="248.1" width="14.91" height="15.7" transform="translate(57.89 735.66) rotate(-29.01)"/><rect class="cls-10" x="1374.06" y="246.09" width="15.7" height="14.91" transform="translate(416.81 1274.58) rotate(-57.01)"/><rect class="cls-10" x="1340.77" y="182.13" width="13.34" height="18.05" transform="translate(1109.61 1531.15) rotate(-88.01)"/><rect class="cls-10" x="1482.75" y="187.04" width="13.34" height="18.05" transform="matrix(0.03, -1, 1, 0.03, 1241.75, 1677.78)"/><path class="cls-8" d="M1254.14,518.49a15.23,15.23,0,0,0-5.25,1.64c-2.22,1.35-3.59,3.75-4.57,6.16-2.46,6.06-3,12.72-3.07,19.27-.09,5.28.09,10.68,2,15.6a9.91,9.91,0,0,0,2.61,4.08,9.48,9.48,0,0,0,3.58,1.74c2.82.74,6.09.74,8.39-1,2.57-2,3.21-5.54,3.75-8.75.74-4.33,1.77-8.9,5-11.91,2.38-2.22,5.8-3.34,7.53-6.09,2.07-3.28,1-7.55-.34-11.2-1.14-3.16-2.83-9.57-6.13-11.18S1257.58,517.87,1254.14,518.49Z"/><path class="cls-8" d="M1376,534a24.69,24.69,0,0,1-5.19,9.57c-1.48,1.69-3.29,3.74-2.51,5.84a5.2,5.2,0,0,0,1.37,1.85c10.87,10.63,26.07,15.8,41.15,17.68a1.33,1.33,0,0,0,.74,0c.44-.2.55-.74.6-1.23a15.14,15.14,0,0,0,0-4.75c-.74-3.7-4-6.27-7.12-8.3s-6.61-4-8.37-7.32c-2.22-4.12-1.27-9.48-3.88-13.34-2.12-3.13-6.06-4.44-9.79-5.06-1.3-.2-4.06-1.62-5.19-1S1376.41,532.73,1376,534Z"/><path class="cls-10" d="M1252.66,518.1a1.48,1.48,0,0,0-1.31-1.48,4.72,4.72,0,0,0-2.14.28,31.59,31.59,0,0,1-5.19,1,37.06,37.06,0,0,0-6.23.74,7,7,0,0,0-4.83,3.7,9.13,9.13,0,0,0-.53,3.48,52.88,52.88,0,0,0,1.62,13.49,1.18,1.18,0,0,0,.54.87c.26.1.58,0,.83.12a1.12,1.12,0,0,1,.49.6c1.25,2.81,1.54,5.93,1.87,9q.75,6.81,1.88,13.57c.44,2.63,1,5.4,2.72,7.41,1.9,2.23,4.91,3.18,7.81,3.58,6.12.81,12.3-.42,18.34-1.68a5.31,5.31,0,0,0,3.09-1.38,3.47,3.47,0,0,0,.75-2.46c-.15-3-2.92-5.18-5.44-6.84l-3.47-2.34a1.78,1.78,0,0,1-.61-.55,2,2,0,0,1-.17-1.11l.22-4.44a12.72,12.72,0,0,0-11.11,6.89c-.48,1-.94,2.08-1.94,2.45-1.23.47-2.61-.58-3-1.83a8,8,0,0,1,.11-3.91c2-10.88,1.56-22.06,2.8-33.06a7.39,7.39,0,0,1,1.1-3.48C1251.43,519.85,1252.55,519.12,1252.66,518.1Z"/><path class="cls-10" d="M1404,560.28c.51.85,1.31,1.49,1.78,2.36a2,2,0,0,1-.39,2.65,2.58,2.58,0,0,1-1.6.16,54.16,54.16,0,0,1-29.29-13.25,20.37,20.37,0,0,1-3.59-3.94c-1-1.48-1.76-3.22-3.39-3.83a58.23,58.23,0,0,0-1.48,12.88c0,2.86.39,6.12,2.72,7.77a9.94,9.94,0,0,0,3,1.24l5.09,1.43a5.42,5.42,0,0,0,2.82.28c.6-.16,1.13-.54,1.75-.65a4.31,4.31,0,0,1,2,.25l4.39,1.28a29,29,0,0,1,4.35,1.48c1.25.6,2.42,1.37,3.64,2a42.94,42.94,0,0,0,6.37,2.59l7.73,2.68a27.33,27.33,0,0,0,6.58,1.69c1.56.13,3.14,0,4.68.27,1.17.2,2.3.62,3.49.74a9.3,9.3,0,0,0,5.48-1.62,5.06,5.06,0,0,0,1.6-1.42c1.11-1.73.15-4-.94-5.74a22.55,22.55,0,0,0-7.84-8.07c-1.35-.74-2.8-1.29-4.18-2-4-1.91-6.93-5.1-10.66-7.29C1404.62,552.24,1402.35,557.57,1404,560.28Z"/><path class="cls-8" d="M1295.35,248.82a32,32,0,0,1-13.68,5.32,54.11,54.11,0,0,1-7.74.41,196.47,196.47,0,0,1-32.21-2.69c4.24-4.66,8.53-9.63,10.13-15.75a26,26,0,0,0,.48-9.87,73.84,73.84,0,0,0-3-12.43,85.91,85.91,0,0,0,13.61-.35c2.58-.26,8.89-2.61,11.12-.83s.51,7.5.47,10.2v.29a33,33,0,0,0,2.6,11.9C1280.38,242.31,1287.36,248.3,1295.35,248.82Z"/><path class="cls-9" d="M1274.55,222.79a27.14,27.14,0,0,1-22.23,3.41,73.84,73.84,0,0,0-3-12.43,85.91,85.91,0,0,0,13.61-.34c2.58-.26,8.9-2.61,11.12-.83S1274.59,220.1,1274.55,222.79Z"/><circle class="cls-8" cx="1259.7" cy="198.83" r="27.12"/><path class="cls-3" d="M1374.78,336.07a12.59,12.59,0,0,1-6.12,10.88,24.17,24.17,0,0,1-6.67,2.34c-12.4,3-25.11,5.4-37.85,4.67a20.7,20.7,0,0,1-8-1.69,8.54,8.54,0,0,1-5-6.19,6,6,0,0,0-.39-2,5.61,5.61,0,0,0-1.88-1.68,7.69,7.69,0,0,1-2.86-7.65c-1.55.69-3.17-.87-3.89-2.4s-1.3-3.39-2.86-4c-1.06-.46-2.28-.19-3.4-.48-1.78-.46-2.87-2.22-4.13-3.54-2.58-2.75-6.22-4.17-9.59-5.86-10-5-18.11-13-26.08-20.85-4-3.95-8-7.93-11.23-12.59-.89-1.32-1.7-2.67-2.46-4a114.39,114.39,0,0,1-6.26-14.31c-1-2.62-2-5.4-1.61-8.15a5.7,5.7,0,0,1,.14-.74,15.77,15.77,0,0,1,2.46-5c2.76-4.05,6.38-7.89,11.12-9.13s9.48.26,14.29,1.28a36.33,36.33,0,0,0,4.86.74c5.1.36,10.16-1,15.09-2.37l5.38-1.48c2.7-.74,4.05-4,6.78-4.57a9.36,9.36,0,0,1,3.65.18c5.54,1.05,11.12,2.41,16,5.22a25.44,25.44,0,0,1,3.11,2.12,19.63,19.63,0,0,1,7.22,10.66c1.11,4.69.06,9.7,1.19,14.39.92,3.88,3.25,7.26,5.53,10.52l13.24,18.92a118.72,118.72,0,0,0,9.74,12.7C1361.39,319.71,1374.6,325.55,1374.78,336.07Z"/><path class="cls-8" d="M1339.41,154.79c.55-2.59,1-5.3,2.39-7.53a17.4,17.4,0,0,1,3.51-3.71,23.32,23.32,0,0,1,7.51-4.69,9.37,9.37,0,0,1,8.51,1c2.38,1.79,3.38,4.88,3.75,7.83a19.3,19.3,0,0,1-2,11.86c-2.3,4-6.29,6.67-9.63,9.89a38.17,38.17,0,0,0-6.28,7.82,22.09,22.09,0,0,1-2.86,4.18,5.44,5.44,0,0,1-4.54,1.82,8,8,0,0,1-3.71-2.18c-1.37-1.2-5.07-3.34-5.19-5.24-.09-1.54,2.8-5,3.5-6.49A73.21,73.21,0,0,0,1339.41,154.79Z"/><path class="cls-10" d="M1434.73,469c-3.4,6.29-7.14,12.42-10.18,18.9-1.77,3.78-3.3,7.68-5.27,11.36-2.15,4-4.8,7.75-7,11.73-5.66,10-8.81,21.3-11.72,32.42a64.48,64.48,0,0,1-23.09-8.15c-.48-.28-.94-.58-1.39-.89a16.72,16.72,0,0,1-4.66-5.14c2.69-10.17,5.46-20.52,10.93-29.51,1.79-3,3.83-5.67,5.67-8.56,5.33-8.37,6.43-18.94,12.51-26.78a4.61,4.61,0,0,0,0-5.45c-.7-.91-1.82-1.78-1.61-2.91.15-.82,1-1.56.68-2.33-.16-.37-.54-.57-.83-.84-1-.95-.91-2.58-1-4-.23-3.54-2.35-6.66-4.44-9.56a6,6,0,0,0-1.62-1.75c-.55-.33-1.2-.48-1.75-.82-1.94-1.22-1.8-4.05-2.74-6.15-1.21-2.76-4.27-4.17-6.28-6.41-2.56-2.86-3.21-6.84-5.93-9.33a6.9,6.9,0,0,0-.88-.74c1.35,4.18,1.48,8.65,1.58,13.06.26,15.11-3.52,30.75-1.75,45.77,1.39,11.9-5.93,23.79-16.34,29.74a79.07,79.07,0,0,1-12.72,5.36c-6.51,2.3-13,4.68-19.39,7.35q-6.78,2.8-13.34,6a169.49,169.49,0,0,0-15.78,8.73c-6.27,4-12.54,8-17,14-4.3-.12-8.25-2.7-11-6s-4.45-7.41-6-11.38c-1.39-3.45-2.75-7-2.86-10.72a2.13,2.13,0,0,1,1.29-1.85l29.77-15.78,5.57-3c12.19-6.47,24.81-12.45,37-18.91.83.24,1.49-.69,1.73-1.48s.41-1.82,1.19-2.18c.38-.18.88-.17,1.17-.5a1.36,1.36,0,0,0,.21-1c-.39-5.93-4.65-11.32-3.79-17.17.36-2.49,1.64-4.94,1.09-7.41-.4-1.69-1.61-3.07-2.27-4.67-1.48-3.6,0-7.93-1.6-11.45a26.15,26.15,0,0,1-2.15-7.29,49.65,49.65,0,0,0-4.55-14.45,26.17,26.17,0,0,0-4.19-6.33c-.89-1-1.9-1.83-2.75-2.83-2.59-3.06-3.55-7.15-4.28-11.11-1.33-7.17-2.22-14.6-.59-21.7.56-2.42,1.42-4.82,1.38-7.31,0-3.28-1.48-7.11.8-9.48a7.36,7.36,0,0,1,3.34-1.71,99.93,99.93,0,0,1,16.14-3l24.86-3.25c2.84-.38,5.76-.74,8.27-2.16,3.37-1.86,5.61-5.3,7-8.89,4.36,3.19,6,9.12,9.48,13.24,1.69,2,3.79,3.63,5.65,5.47a62.88,62.88,0,0,1,6.23,7.69c5.19,7.12,10.38,14.29,14.08,22.28,1.94,4.15,3.43,8.48,5,12.78,6.07,16.95,16,33,20.06,50.56,1,4.28,3.63,8.15,4,12.53C1439.11,460.33,1437,464.82,1434.73,469Z"/><path class="cls-9" d="M1304.53,328.21a7.52,7.52,0,0,0-.91,3.66c.55-2.74,4.32-4.26,4.57-7,.11-1.25-.12-1.19-.89-.53C1306.13,325.38,1305.62,327.13,1304.53,328.21Z"/><path class="cls-9" d="M1316,336.53a5.71,5.71,0,0,0-1.72,2.55,6.42,6.42,0,0,0-.35,4.44c.56-.26.74-.94.91-1.53a10.47,10.47,0,0,1,1.18-2.62c.44-.75,2.5-2.4,2.49-3.18C1318.52,335,1316.58,336.11,1316,336.53Z"/><path class="cls-9" d="M1317.35,244.73a27.8,27.8,0,0,1-5.72,3.81c-5.37,2.72-11.32,4.16-16.73,6.8a83.68,83.68,0,0,0-7.77,4.53l-16.08,10.19a17.14,17.14,0,0,0-3.54,2.69c-1.93,2.06-1.93,5.68-3.7,7.89a10.86,10.86,0,0,1-7.81,3.6,25.24,25.24,0,0,1-8.69-1.48,45.17,45.17,0,0,1-5-1.81,23.09,23.09,0,0,1-4.78-2.73,13.62,13.62,0,0,1-5.61-8.89,17.5,17.5,0,0,1,1-7.25,28.51,28.51,0,0,1,1.71-4.39,17.78,17.78,0,0,1,1.37-2.31c3.7-5.24,10.2-7.69,16.49-8.9,3.31-.64,6.67-1,10-1.6a34.78,34.78,0,0,0,4.86.74c5.1.37,10.16-1,15.09-2.37l5.38-1.48c2.7-.74,4-4,6.78-4.57a9.55,9.55,0,0,1,3.65.18c5.54,1.06,11.12,2.41,16,5.23A25.55,25.55,0,0,1,1317.35,244.73Z"/><path class="cls-3" d="M1330.47,172.75c-.69,6.56-6.22,11.38-9.63,17-1.64,2.75-2.79,5.77-4.26,8.62a84.21,84.21,0,0,1-5.64,9l-6,8.75c-3.54,5.14-7.12,10.33-11.65,14.63-7.89,1.34-14.51,7.2-22,10.05-6,2.28-12.52,2.59-18.8,3.81s-12.8,3.7-16.49,8.89a23,23,0,0,0-3.08,6.67,17.15,17.15,0,0,0-1,7.24,13.73,13.73,0,0,0,5.61,8.89,31.05,31.05,0,0,0,9.73,4.54,25.74,25.74,0,0,0,8.7,1.48,10.6,10.6,0,0,0,7.81-3.6c1.83-2.31,1.75-5.83,3.7-7.89a17.2,17.2,0,0,1,3.55-2.69L1287.14,258a84.55,84.55,0,0,1,7.76-4.5c5.41-2.65,11.36-4.08,16.73-6.8s10.38-7.21,11.45-13.13c3.28-18.22,15.88-33.57,26.68-48.62-.36-.07-.24-.88-.38-1.22a15.53,15.53,0,0,0-7.9-8C1338,174,1334.18,173.55,1330.47,172.75Z"/><path class="cls-10" d="M1273.62,172.88a10.07,10.07,0,0,0-1.12-5.72c-1.79-3-5.53-4-8.89-4.7s-6.53-1.24-9.81-1.72a22.41,22.41,0,0,0-8.12-.14c-3.7.81-6.72,3.27-10.15,4.79-4.06,1.81-8.55,2.28-12.87,3.28s-8.76,2.7-11.47,6.21c-2.06,2.67-2.89,6.08-3.5,9.4-5.14,27.71.39,56.13,1.44,84.29.41,11-.09,22.67-6.35,31.68l18.24-.49c4.67-.11,9.68-.36,13.34-3.24,3.23-2.54,4.76-6.62,6.14-10.49a32.36,32.36,0,0,0,2.33-9.38c.29-6.62-3.47-13.11-2.23-19.63.92-4.86,4.45-8.79,8.24-12s8-5.93,11.05-9.84c5.47-6.92,6.52-16.36,5.84-25.15-.41-5.22-1.35-10.44-.89-15.67a19.72,19.72,0,0,1,4.13-11C1271.85,180,1273.37,177.78,1273.62,172.88Z"/><path class="cls-9" d="M1272.5,167.16c-1.76-2.92-5.4-4-8.75-4.67a8.65,8.65,0,0,1,4.33,3.41,9.91,9.91,0,0,1,1.12,5.72c-.25,4.89-1.77,7.06-4.67,10.52a19.7,19.7,0,0,0-4.14,11c-.45,5.23.48,10.45.89,15.67.68,8.79-.36,18.23-5.82,25.15-3.07,3.88-7.28,6.67-11.06,9.84s-7.33,7.12-8.24,12c-1.22,6.52,2.53,13,2.22,19.63a32.36,32.36,0,0,1-2.33,9.38c-1.38,3.87-2.92,8-6.15,10.48-3.7,2.88-8.69,3.14-13.33,3.25l-12.92.35c-.29.47-.59.94-.91,1.4l18.24-.49c4.67-.11,9.69-.36,13.34-3.24,3.23-2.54,4.76-6.62,6.14-10.49a32.36,32.36,0,0,0,2.33-9.38c.29-6.62-3.47-13.11-2.22-19.63.91-4.86,4.44-8.79,8.23-12s8-5.93,11.06-9.84c5.47-6.92,6.51-16.36,5.83-25.15-.41-5.22-1.34-10.44-.89-15.67a19.79,19.79,0,0,1,4.13-11c2.91-3.45,4.45-5.62,4.68-10.52A10.06,10.06,0,0,0,1272.5,167.16Z"/><path class="cls-9" d="M1409.52,452.74,1376,534.36a16.58,16.58,0,0,1-4.66-5.13c2.69-10.18,5.46-20.52,10.93-29.51,1.79-3,3.83-5.67,5.67-8.56,5.33-8.37,6.43-18.94,12.51-26.78a4.61,4.61,0,0,0,0-5.45c-.7-.92-1.82-1.78-1.61-2.91.15-.82,1-1.56.68-2.33-.16-.37-.54-.57-.83-.84-1-1-.91-2.59-1-4-.23-3.55-2.35-6.67-4.44-9.56a5.89,5.89,0,0,0-1.62-1.75c-.55-.34-1.2-.49-1.75-.83-1.94-1.21-1.8-4-2.74-6.14-1.21-2.76-4.27-4.17-6.28-6.42-2.56-2.85-3.21-6.83-5.93-9.33l-.23-.57,2.61-15.75Z"/><path class="cls-11" d="M795.9,488.22c3.43,0,8.63-6.63,12.93-25.23,1.36-5.87,2.5-12.41,3.42-19.43-5.06-3.41-10.21-7.1-15.33-11-5.75,5-11.45,9.61-17,13.79.85,6,1.86,11.53,3,16.61C787.27,481.59,792.47,488.22,795.9,488.22Z"/><path class="cls-11" d="M706.26,401.91c0,3.43,6.63,8.63,25.23,12.93,5.42,1.25,11.42,2.33,17.84,3.22,3.95-4.92,8.29-10,12.94-15.07-5.8-5.59-11.27-11.24-16.19-16.75-5.2.79-10.09,1.7-14.59,2.74C712.89,393.28,706.26,398.48,706.26,401.91Z"/><path class="cls-11" d="M798.83,425.24h-4.51q1.2.94,2.4,1.86Z"/><path class="cls-11" d="M813,437.57v-12.7q-3.84.17-7.71.26c-1.7,1.57-3.41,3.1-5.11,4.61,4.28,3.23,8.52,6.28,12.67,9.12Z"/><path class="cls-11" d="M772.83,412.78q-3.81-3.39-7.48-6.86c-3.93,4.31-7.64,8.58-11.06,12.77,6,.71,12.33,1.27,18.89,1.65C773,417.84,772.92,415.31,772.83,412.78Z"/><path class="cls-11" d="M731.32,464.08c2.38,2.47,10.76,1.62,27.14-8.18,5.34-3.2,11-7.06,16.95-11.44-.83-6.34-1.49-13-2-19.87-7.67-.45-15.18-1.13-22.27-2-4,5.1-7.61,10-10.65,14.72C730.11,453.27,728.94,461.61,731.32,464.08Z"/><path class="cls-11" d="M765.14,399.89q3.63-3.88,7.48-7.79.07-4.31.24-8.6c-7.61.46-14.91,1.14-21.74,2C755.4,390.23,760.1,395,765.14,399.89Z"/><path class="cls-11" d="M777.43,420.57l4.63.19-1.22-1c-1.21-1-2.41-2.05-3.62-3.09C777.28,418,777.35,419.27,777.43,420.57Z"/><path class="cls-11" d="M803.56,420.92q2.79-2.58,5.58-5.26c1.3-1.24,2.57-2.5,3.84-3.75V391.42c-1.57-1.37-3.15-2.73-4.76-4.09-1.79-1.51-3.58-3-5.36-4.44-2.31,0-4.62-.07-7-.07-2.57,0-5.13,0-7.66.08-1.86,1.73-3.72,3.47-5.58,5.26s-3.91,3.81-5.82,5.72c0,1.56,0,3.12,0,4.69q0,6.21.19,12.24,3.24,2.85,6.59,5.69c1.78,1.5,3.57,3,5.35,4.43,2.31,0,4.63.07,7,.07C798.47,421,801,421,803.56,420.92Zm-21.47-19.58a13.38,13.38,0,1,1,13.38,13.38A13.37,13.37,0,0,1,782.09,401.34Z"/><path class="cls-11" d="M813,385.8v-2.61l-3.23-.13,1.21,1Z"/><path class="cls-11" d="M779.71,385.1l2.13-2-4.73.2c-.06,1.49-.11,3-.15,4.51C777.87,386.88,778.79,386,779.71,385.1Z"/><path class="cls-11" d="M810,420.75l3-.12v-2.77l-.89.87Z"/><path class="cls-11" d="M768.22,402.81q2.17,2.06,4.43,4.1-.09-4.17-.09-8.34v-.33Q770.36,400.54,768.22,402.81Z"/><path class="cls-11" d="M787.41,425.16q-4.87-.12-9.72-.34c.4,5.79.94,11.39,1.6,16.72,4.64-3.57,9.39-7.46,14.18-11.59C791.44,428.38,789.41,426.78,787.41,425.16Z"/><path class="cls-11" d="M795.9,492.47c-9.35,0-16-18.43-19.81-43.23-5.36,3.91-10.55,7.38-15.44,10.3-8.3,5-18.41,9.93-25.64,9.93a9,9,0,0,1-6.75-2.44c-6-6.24,1.42-20.89,8.71-32.08,2.72-4.17,5.86-8.56,9.35-13.07C721,418.16,702,411.4,702,401.91c0-9,17.22-15.6,40.78-19.42l-.07-.08H680.45c-.31,1.8-.58,3.63-.8,5.45l-4.22-.52c.2-1.64.44-3.3.71-4.93H605.91V589.47H813V463.8C809,480.92,803.31,492.47,795.9,492.47Zm-13.32,25.84c2,.22,4,.39,5.94.51l-.25,4.24c-2.06-.12-4.13-.3-6.16-.53Zm-11.76-1.92c1.93.41,3.9.79,5.86,1.11l-.69,4.19c-2-.33-4.07-.72-6.07-1.15Zm-33.29-12.82c1.72,1,3.48,1.94,5.25,2.84l-1.92,3.79c-1.84-.93-3.67-1.92-5.45-2.94Zm-10-6.46c1.61,1.16,3.27,2.29,4.93,3.36l-2.3,3.57c-1.72-1.11-3.44-2.28-5.11-3.48ZM698.61,467.3l-3.53,2.37c-1.14-1.7-2.26-3.45-3.31-5.21l3.64-2.19C696.43,464,697.5,465.66,698.61,467.3Zm-6.13-10.21-3.76,2c-1-1.8-1.89-3.66-2.76-5.51l3.85-1.81C690.65,453.56,691.55,455.35,692.48,457.09Zm-5.06-10.77-3.94,1.61c-.77-1.9-1.51-3.84-2.19-5.78l4-1.4C686,442.62,686.67,444.49,687.42,446.32Zm-3.94-11.25-4.08,1.2c-.57-2-1.11-4-1.58-6l4.14-1C682.41,431.23,682.93,433.17,683.48,435.07Zm-3.69-17.48c.26,2,.58,4,.93,5.89l-4.18.77c-.37-2-.69-4.06-1-6.1ZM674.93,412c-.17-2.05-.28-4.12-.34-6.17l4.24-.13c.06,2,.17,4,.33,6Zm-.1-18.52,4.24.3c-.13,2-.22,4-.26,6l-4.25-.09C674.6,397.61,674.69,395.54,674.83,393.49ZM656.62,540H646.56v33.59h10.06v5.08H630.48v-5.08h10.07V540H630.48v-5h26.14ZM704,540H691v38.61h-6V540H672.09V535H704Zm-1.5-60.49c-1.31-1.58-2.59-3.21-3.82-4.85l3.4-2.55c1.18,1.59,2.43,3.16,3.69,4.68Zm8.37,9.08c-1.46-1.43-2.91-2.93-4.3-4.43l3.13-2.88c1.34,1.45,2.73,2.89,4.15,4.28Zm7.34,1c1.48,1.32,3,2.61,4.56,3.84l-2.65,3.32c-1.61-1.28-3.2-2.62-4.73-4Zm27.56,82.6a11.19,11.19,0,0,1-3.54,3.9,16.52,16.52,0,0,1-5.47,2.32,30.16,30.16,0,0,1-7,.77c-1.16,0-2.32,0-3.46-.14s-2.25-.2-3.31-.33-2.06-.29-3-.47-1.79-.37-2.54-.57V572a31.56,31.56,0,0,0,5.63,1.47,43.1,43.1,0,0,0,7.1.53,22.91,22.91,0,0,0,4.9-.45,9.43,9.43,0,0,0,3.31-1.34,5.39,5.39,0,0,0,1.87-2.15,6.9,6.9,0,0,0,.58-2.91,4.81,4.81,0,0,0-1-3,9.91,9.91,0,0,0-2.59-2.24,25,25,0,0,0-3.66-1.8l-4.2-1.69q-2.13-.87-4.19-1.89a17.55,17.55,0,0,1-3.66-2.4,11,11,0,0,1-2.59-3.26,9.4,9.4,0,0,1-1-4.45,11,11,0,0,1,.94-4.41,10.58,10.58,0,0,1,2.9-3.86,15.23,15.23,0,0,1,5.07-2.72,23.31,23.31,0,0,1,7.37-1c.73,0,1.53,0,2.39.1s1.72.16,2.61.29,1.74.26,2.6.41,1.66.33,2.39.5V541a40.85,40.85,0,0,0-5.15-1.12,34.44,34.44,0,0,0-5-.38q-5.1,0-7.52,1.7a5.35,5.35,0,0,0-2.4,4.58,4.84,4.84,0,0,0,1,3,9.83,9.83,0,0,0,2.59,2.28,24,24,0,0,0,3.66,1.82c1.37.54,2.77,1.11,4.2,1.69s2.82,1.21,4.19,1.9a17,17,0,0,1,3.66,2.46A11.17,11.17,0,0,1,746,562.3a9.68,9.68,0,0,1,1,4.51A11.19,11.19,0,0,1,745.75,572.26Zm6.41-57c-1.91-.74-3.84-1.54-5.72-2.38l1.73-3.88c1.81.81,3.67,1.58,5.52,2.29Zm7.16-2c1.87.61,3.79,1.19,5.71,1.71l-1.11,4.1c-2-.54-4-1.13-5.92-1.77Zm30.91,59a11.19,11.19,0,0,1-3.54,3.9,16.52,16.52,0,0,1-5.47,2.32,30.16,30.16,0,0,1-7,.77c-1.16,0-2.32,0-3.46-.14s-2.25-.2-3.31-.33-2.06-.29-3-.47-1.79-.37-2.54-.57V572a31.56,31.56,0,0,0,5.63,1.47,43.1,43.1,0,0,0,7.1.53,22.91,22.91,0,0,0,4.9-.45,9.43,9.43,0,0,0,3.31-1.34,5.39,5.39,0,0,0,1.87-2.15,6.9,6.9,0,0,0,.58-2.91,4.81,4.81,0,0,0-1-3,9.91,9.91,0,0,0-2.59-2.24,25,25,0,0,0-3.66-1.8l-4.2-1.69q-2.13-.87-4.19-1.89a17.55,17.55,0,0,1-3.66-2.4,11,11,0,0,1-2.59-3.26,9.4,9.4,0,0,1-1-4.45,11,11,0,0,1,.94-4.41,10.5,10.5,0,0,1,2.91-3.86,15.08,15.08,0,0,1,5.06-2.72,23.31,23.31,0,0,1,7.37-1c.73,0,1.53,0,2.39.1s1.73.16,2.61.29,1.74.26,2.6.41,1.66.33,2.39.5V541a41.09,41.09,0,0,0-5.14-1.12,34.65,34.65,0,0,0-5-.38q-5.12,0-7.53,1.7a5.35,5.35,0,0,0-2.4,4.58,4.84,4.84,0,0,0,1,3,9.83,9.83,0,0,0,2.59,2.28,24,24,0,0,0,3.66,1.82c1.38.54,2.77,1.11,4.2,1.69s2.82,1.21,4.19,1.9a17,17,0,0,1,3.66,2.46,11.17,11.17,0,0,1,2.59,3.32,9.68,9.68,0,0,1,1,4.51A11.19,11.19,0,0,1,790.23,572.26Zm5.44-49h-1.23l0-4.25c2,0,4,0,6-.09l.17,4.25C799,523.25,797.32,523.28,795.67,523.28Zm11.11-.5-.39-4.23c2-.18,4-.41,5.92-.69l.6,4.21C810.89,522.36,808.82,522.6,806.78,522.78Z"/><rect class="cls-12" x="1114.45" y="383.18" width="205.78" height="205.78" rx="12"/><rect class="cls-13" x="1133.99" y="383.69" width="6.17" height="205.78"/><rect class="cls-13" x="1186.98" y="545.74" width="67.91" height="29.84" rx="4.67"/><rect class="cls-12" x="1185.44" y="559.63" width="70.99" height="3.09"/><circle class="cls-14" cx="1220.94" cy="561.18" r="12.35"/><path class="cls-15" d="M1184.32,449.35H1167v-8.62H1212v8.62h-17.29v57.73H1212v8.74H1167v-8.74h17.29Z"/><path class="cls-15" d="M1281.57,449.47h-22.23v66.35H1249V449.47h-22.23v-8.74h54.8Z"/><path class="cls-11" d="M839.11,385.47v40H834v-40Z"/><path class="cls-11" d="M855.18,388.5v8.24h7.47v4h-7.47v15.48c0,3.56,1,5.57,3.91,5.57a12,12,0,0,0,3-.35l.24,3.91a12.89,12.89,0,0,1-4.62.71,7.25,7.25,0,0,1-5.64-2.19c-1.48-1.54-2-4.09-2-7.47V400.71h-4.45v-4h4.45v-6.88Z"/><path class="cls-11" d="M867.81,420.1a13.65,13.65,0,0,0,6.88,2.08c3.79,0,5.57-1.9,5.57-4.27s-1.48-3.86-5.34-5.28c-5.16-1.84-7.59-4.68-7.59-8.12,0-4.63,3.74-8.42,9.91-8.42a14.3,14.3,0,0,1,7,1.78l-1.3,3.79a11.19,11.19,0,0,0-5.87-1.66c-3.09,0-4.81,1.78-4.81,3.91,0,2.38,1.72,3.44,5.46,4.87,5,1.89,7.53,4.38,7.53,8.65,0,5-3.91,8.6-10.73,8.6a16.34,16.34,0,0,1-8.07-2Z"/><path class="cls-11" d="M891.29,420.1a13.65,13.65,0,0,0,6.88,2.08c3.79,0,5.57-1.9,5.57-4.27s-1.48-3.86-5.33-5.28c-5.16-1.84-7.59-4.68-7.59-8.12,0-4.63,3.73-8.42,9.9-8.42a14.3,14.3,0,0,1,7,1.78l-1.3,3.79A11.19,11.19,0,0,0,900.6,400c-3.08,0-4.8,1.78-4.8,3.91,0,2.38,1.72,3.44,5.45,4.87,5,1.89,7.53,4.38,7.53,8.65,0,5-3.91,8.6-10.73,8.6a16.3,16.3,0,0,1-8.06-2Z"/><path class="cls-11" d="M921.77,388.5v8.24h7.47v4h-7.47v15.48c0,3.56,1,5.57,3.91,5.57a12,12,0,0,0,3-.35l.23,3.91a12.81,12.81,0,0,1-4.62.71,7.23,7.23,0,0,1-5.63-2.19c-1.49-1.54-2-4.09-2-7.47V400.71h-4.45v-4h4.45v-6.88Z"/><path class="cls-11" d="M935.11,405.69c0-3.38-.06-6.28-.23-8.95h4.56l.18,5.63h.24c1.3-3.85,4.44-6.28,7.94-6.28a5.63,5.63,0,0,1,1.49.18v4.92a7.81,7.81,0,0,0-1.78-.18c-3.68,0-6.29,2.79-7,6.7a14.48,14.48,0,0,0-.24,2.43v15.3h-5.16Z"/><path class="cls-11" d="M970.1,425.44l-.42-3.62h-.17a10.71,10.71,0,0,1-8.78,4.27c-5.81,0-8.77-4.09-8.77-8.24,0-6.94,6.16-10.73,17.25-10.67v-.6c0-2.37-.65-6.64-6.52-6.64a14.23,14.23,0,0,0-7.47,2.14L954,398.64a17.82,17.82,0,0,1,9.43-2.55c8.77,0,10.91,6,10.91,11.74v10.73a41.09,41.09,0,0,0,.47,6.88Zm-.77-14.65c-5.69-.12-12.16.89-12.16,6.47a4.62,4.62,0,0,0,4.92,5,7.15,7.15,0,0,0,6.94-4.81,5.33,5.33,0,0,0,.3-1.66Z"/><path class="cls-11" d="M988.6,388.68a3.23,3.23,0,0,1-6.46,0,3.18,3.18,0,0,1,3.26-3.27A3.1,3.1,0,0,1,988.6,388.68Zm-5.81,36.76v-28.7H988v28.7Z"/><path class="cls-11" d="M996.67,404.51c0-3-.06-5.4-.24-7.77h4.62l.3,4.74h.12a10.56,10.56,0,0,1,9.49-5.39c4,0,10.14,2.37,10.14,12.21v17.14h-5.22V408.9c0-4.63-1.72-8.48-6.64-8.48a7.66,7.66,0,0,0-7.36,7.76v17.26h-5.21Z"/><path class="cls-11" d="M1035.39,388.68a3.23,3.23,0,0,1-6.46,0,3.18,3.18,0,0,1,3.26-3.27A3.11,3.11,0,0,1,1035.39,388.68Zm-5.81,36.76v-28.7h5.22v28.7Z"/><path class="cls-11" d="M1043.45,404.51c0-3,0-5.4-.23-7.77h4.62l.3,4.74h.12a10.56,10.56,0,0,1,9.49-5.39c4,0,10.13,2.37,10.13,12.21v17.14h-5.21V408.9c0-4.63-1.72-8.48-6.64-8.48a7.66,7.66,0,0,0-7.36,7.76v17.26h-5.22Z"/><path class="cls-11" d="M1101.09,396.74c-.12,2.07-.24,4.39-.24,7.89v16.66c0,6.58-1.3,10.61-4.09,13.1s-6.82,3.44-10.43,3.44c-3.44,0-7.24-.83-9.55-2.37l1.3-4a16.27,16.27,0,0,0,8.42,2.25c5.34,0,9.26-2.79,9.26-10v-3.2h-.12a10.25,10.25,0,0,1-9.14,4.8c-7.11,0-12.21-6.05-12.21-14,0-9.73,6.34-15.24,12.93-15.24,5,0,7.7,2.61,9,5h.12l.24-4.33Zm-5.39,11.32a7.37,7.37,0,0,0-.3-2.37,7.52,7.52,0,0,0-7.29-5.51c-5,0-8.54,4.21-8.54,10.85,0,5.63,2.84,10.32,8.48,10.32a7.63,7.63,0,0,0,7.23-5.34,9,9,0,0,0,.42-2.79Z"/><path class="cls-12" d="M908.55,440.43v25.06h-3.23V440.43Z"/><path class="cls-12" d="M921.76,443.18h-7.63v-2.75h18.56v2.75H925v22.31h-3.27Z"/><path class="cls-12" d="M948.94,440.72a37.6,37.6,0,0,1,6.21-.48c3.2,0,5.54.74,7,2.08a6.72,6.72,0,0,1,2.2,5.24,7.37,7.37,0,0,1-1.94,5.36c-1.71,1.82-4.5,2.75-7.66,2.75a11.41,11.41,0,0,1-2.6-.22v10h-3.24Zm3.24,12.09a11.09,11.09,0,0,0,2.67.26c3.91,0,6.29-1.9,6.29-5.36,0-3.31-2.34-4.9-5.91-4.9a13.48,13.48,0,0,0-3.05.26Z"/><path class="cls-12" d="M980.4,465.49l-.26-2.27H980a6.71,6.71,0,0,1-5.5,2.68,5.12,5.12,0,0,1-5.5-5.17c0-4.35,3.86-6.73,10.82-6.69v-.38c0-1.48-.41-4.16-4.09-4.16a8.94,8.94,0,0,0-4.69,1.34l-.74-2.16a11.11,11.11,0,0,1,5.91-1.6c5.5,0,6.84,3.76,6.84,7.36v6.73a25.69,25.69,0,0,0,.3,4.32Zm-.48-9.19c-3.57-.07-7.62.56-7.62,4.06a2.89,2.89,0,0,0,3.08,3.12,4.47,4.47,0,0,0,4.35-3,3.23,3.23,0,0,0,.19-1Z"/><path class="cls-12" d="M990.71,462.14a8.55,8.55,0,0,0,4.31,1.3c2.38,0,3.5-1.19,3.5-2.67s-.93-2.42-3.35-3.31c-3.24-1.16-4.76-2.94-4.76-5.1,0-2.9,2.34-5.28,6.21-5.28a8.9,8.9,0,0,1,4.42,1.12l-.81,2.38a7,7,0,0,0-3.69-1c-1.93,0-3,1.11-3,2.45s1.08,2.16,3.42,3.05c3.13,1.19,4.73,2.75,4.73,5.43,0,3.16-2.46,5.39-6.73,5.39a10.17,10.17,0,0,1-5.06-1.23Z"/><path class="cls-12" d="M1008.22,462.14a8.62,8.62,0,0,0,4.32,1.3c2.38,0,3.49-1.19,3.49-2.67s-.93-2.42-3.35-3.31c-3.23-1.16-4.76-2.94-4.76-5.1,0-2.9,2.35-5.28,6.21-5.28a8.91,8.91,0,0,1,4.43,1.12l-.82,2.38a7,7,0,0,0-3.68-1c-1.93,0-3,1.11-3,2.45s1.08,2.16,3.42,3.05c3.12,1.19,4.72,2.75,4.72,5.43,0,3.16-2.45,5.39-6.73,5.39a10.23,10.23,0,0,1-5.06-1.23Z"/><path class="cls-12" d="M1026.19,453.37c0-2.31-.08-4.17-.15-5.88H1029l.15,3.09h.08a7.07,7.07,0,0,1,6.39-3.5c4.35,0,7.63,3.68,7.63,9.15,0,6.47-4,9.67-8.18,9.67a6.29,6.29,0,0,1-5.54-2.83h-.08v9.78h-3.23Zm3.23,4.79a7.73,7.73,0,0,0,.15,1.34,5,5,0,0,0,4.91,3.83c3.46,0,5.46-2.82,5.46-6.95,0-3.61-1.89-6.7-5.35-6.7a5.23,5.23,0,0,0-4.95,4.06,5.36,5.36,0,0,0-.22,1.34Z"/><path class="cls-12" d="M1066.42,456.34c0,6.66-4.61,9.56-9,9.56-4.87,0-8.63-3.57-8.63-9.26,0-6,3.94-9.56,8.93-9.56C1062.93,447.08,1066.42,450.84,1066.42,456.34Zm-14.28.19c0,3.94,2.27,6.91,5.47,6.91s5.47-2.93,5.47-7c0-3.05-1.53-6.91-5.4-6.91S1052.14,453.11,1052.14,456.53Z"/><path class="cls-12" d="M1073.34,453.11c0-2.12,0-3.95-.15-5.62h2.86l.12,3.53h.15a5.39,5.39,0,0,1,5-3.94,3.77,3.77,0,0,1,.93.11v3.09a5.24,5.24,0,0,0-1.12-.11c-2.3,0-3.94,1.75-4.39,4.2a9.84,9.84,0,0,0-.14,1.52v9.6h-3.24Z"/><path class="cls-12" d="M1093.12,442.32v5.17h4.69V450h-4.69v9.71c0,2.23.64,3.49,2.46,3.49a7.3,7.3,0,0,0,1.89-.22l.15,2.45a8,8,0,0,1-2.9.45,4.51,4.51,0,0,1-3.53-1.38c-.93-1-1.26-2.56-1.26-4.68V450h-2.79v-2.49h2.79v-4.31Z"/><path class="cls-12" d="M617.8,605.85v26.8h-3.46v-26.8Z"/><path class="cls-12" d="M648.81,608.79h-8.15v-2.94H660.5v2.94h-8.19v23.86h-3.5Z"/><path class="cls-12" d="M711.67,605.85H726.1v2.9h-11v8.91h10.14v2.86H715.13v12.13h-3.46Z"/><path class="cls-12" d="M767,622.87c0,7.12-4.93,10.22-9.59,10.22-5.21,0-9.22-3.82-9.22-9.9,0-6.44,4.21-10.22,9.54-10.22C763.24,613,767,617,767,622.87Zm-15.27.2c0,4.21,2.42,7.39,5.84,7.39s5.85-3.14,5.85-7.47c0-3.26-1.63-7.4-5.77-7.4S751.71,619.41,751.71,623.07Z"/><path class="cls-12" d="M807.37,627.4c0,2,0,3.74.16,5.25h-3.1l-.2-3.14h-.08a7.23,7.23,0,0,1-6.36,3.58c-3,0-6.64-1.67-6.64-8.43V613.41h3.5v10.65c0,3.66,1.11,6.13,4.29,6.13a5.06,5.06,0,0,0,4.62-3.19,5.27,5.27,0,0,0,.31-1.78V613.41h3.5Z"/><path class="cls-12" d="M833.06,618.61c0-2,0-3.61-.16-5.2H836l.2,3.18h.08a7.07,7.07,0,0,1,6.36-3.62c2.66,0,6.8,1.59,6.8,8.19v11.49h-3.5V621.56c0-3.1-1.15-5.69-4.45-5.69a5.14,5.14,0,0,0-4.94,5.21v11.57h-3.49Z"/><path class="cls-12" d="M891.62,604.42v23.26c0,1.71,0,3.66.16,5h-3.14l-.16-3.34h-.08a7.11,7.11,0,0,1-6.56,3.78c-4.65,0-8.23-3.94-8.23-9.78,0-6.41,3.94-10.34,8.63-10.34a6.42,6.42,0,0,1,5.8,2.94h.08V604.42Zm-3.5,16.82a6.67,6.67,0,0,0-.15-1.47,5.15,5.15,0,0,0-5.05-4.06c-3.62,0-5.77,3.18-5.77,7.44,0,3.89,1.91,7.12,5.69,7.12a5.28,5.28,0,0,0,5.13-4.18,6.55,6.55,0,0,0,.15-1.51Z"/><path class="cls-12" d="M928,632.65l-.27-2.42h-.12a7.19,7.19,0,0,1-5.89,2.86,5.48,5.48,0,0,1-5.88-5.53c0-4.65,4.13-7.2,11.57-7.16V620c0-1.59-.44-4.46-4.38-4.46a9.62,9.62,0,0,0-5,1.43l-.79-2.3a11.87,11.87,0,0,1,6.32-1.71c5.89,0,7.32,4,7.32,7.87V628a28,28,0,0,0,.31,4.61Zm-.51-9.82c-3.82-.08-8.16.6-8.16,4.33a3.1,3.1,0,0,0,3.31,3.34,4.79,4.79,0,0,0,4.65-3.22,3.56,3.56,0,0,0,.2-1.11Z"/><path class="cls-12" d="M960.41,607.88v5.53h5v2.66h-5v10.38c0,2.38.67,3.74,2.62,3.74a7.74,7.74,0,0,0,2-.24l.16,2.62a8.53,8.53,0,0,1-3.1.48,4.86,4.86,0,0,1-3.78-1.47c-1-1-1.35-2.75-1.35-5v-10.5h-3v-2.66h3v-4.62Z"/><path class="cls-12" d="M993.13,608a2.17,2.17,0,0,1-4.34,0,2.13,2.13,0,0,1,2.19-2.19A2.08,2.08,0,0,1,993.13,608Zm-3.9,24.65V613.41h3.5v19.24Z"/><path class="cls-12" d="M1035.83,622.87c0,7.12-4.93,10.22-9.58,10.22-5.21,0-9.23-3.82-9.23-9.9,0-6.44,4.22-10.22,9.55-10.22C1032.09,613,1035.83,617,1035.83,622.87Zm-15.27.2c0,4.21,2.43,7.39,5.85,7.39s5.84-3.14,5.84-7.47c0-3.26-1.63-7.4-5.76-7.4S1020.56,619.41,1020.56,623.07Z"/><path class="cls-12" d="M1060.12,618.61c0-2,0-3.61-.16-5.2h3.11l.19,3.18h.08a7.1,7.1,0,0,1,6.37-3.62c2.66,0,6.8,1.59,6.8,8.19v11.49H1073V621.56c0-3.1-1.16-5.69-4.46-5.69a5.14,5.14,0,0,0-4.93,5.21v11.57h-3.5Z"/><path class="cls-12" d="M1130,628.44a12.31,12.31,0,0,0,6.2,1.75c3.54,0,5.61-1.87,5.61-4.58,0-2.5-1.43-3.93-5-5.33-4.37-1.55-7.08-3.81-7.08-7.59,0-4.18,3.46-7.28,8.67-7.28a12.14,12.14,0,0,1,5.93,1.32l-1,2.82a10.61,10.61,0,0,0-5.09-1.27c-3.66,0-5,2.18-5,4,0,2.51,1.63,3.74,5.33,5.17,4.53,1.75,6.84,3.94,6.84,7.87,0,4.14-3.06,7.72-9.38,7.72a13.88,13.88,0,0,1-6.84-1.71Z"/><path class="cls-12" d="M1173.32,622.23h.08c.48-.67,1.15-1.51,1.71-2.18l5.65-6.64H1185l-7.43,7.91,8.46,11.33h-4.25l-6.64-9.22-1.79,2v7.24h-3.46V604.42h3.46Z"/><path class="cls-12" d="M1213,608a2.17,2.17,0,0,1-4.33,0,2.13,2.13,0,0,1,2.18-2.19A2.07,2.07,0,0,1,1213,608Zm-3.9,24.65V613.41h3.5v19.24Z"/><path class="cls-12" d="M1238.25,604.42h3.5v28.23h-3.5Z"/><path class="cls-12" d="M1267.51,604.42h3.5v28.23h-3.5Z"/><path class="cls-12" d="M1296.3,629.07a9.11,9.11,0,0,0,4.61,1.39c2.54,0,3.74-1.27,3.74-2.86s-1-2.58-3.58-3.54c-3.46-1.23-5.09-3.14-5.09-5.45,0-3.1,2.5-5.64,6.64-5.64a9.54,9.54,0,0,1,4.73,1.19l-.87,2.55a7.48,7.48,0,0,0-3.94-1.12c-2.07,0-3.22,1.2-3.22,2.63,0,1.59,1.15,2.3,3.66,3.26,3.34,1.27,5,2.94,5,5.8,0,3.38-2.63,5.77-7.2,5.77a11,11,0,0,1-5.41-1.31Z"/><path class="cls-1" d="M414.69,787.75C381.3,776.62,346,767.28,309.93,768.24c-53,1.42-104,26.89-129.18,64.54-21.26,31.9-24.1,69.39-33.38,104.87-11.43,43.7-33.14,85.17-56.3,125.73-12.44,21.79-25.56,44-27.73,68-3,33.23,16.58,66.46,47.38,88.73s71.8,34.14,113,36.91c21.91,1.47,44.82.33,64.33-7.8,20.64-8.57,35.73-24.26,56.46-32.74,19.2-7.85,41.59-8.86,63.13-7.71A342.14,342.14,0,0,1,490,1223.28c30,9.26,57.94,22.58,87.9,32s63.47,14.7,94.17,7.15c28.83-7.09,51.7-24.56,72.32-42.26a797.06,797.06,0,0,0,92.38-93.35c18.63-22.28,36-45.8,44.29-71.84,15.89-49.78-5.39-106.14-53-140.42-39.46-28.42-92.54-41-144.53-48.58-47.4-7-102.25-7.72-145.82-25.6C496.08,823.26,458.28,802.29,414.69,787.75Z"/><ellipse class="cls-1" cx="840.25" cy="954.37" rx="21.36" ry="3.02"/><ellipse class="cls-1" cx="758.42" cy="962.93" rx="21.36" ry="3.02"/><ellipse class="cls-1" cx="662.04" cy="951.35" rx="21.36" ry="3.02"/><ellipse class="cls-1" cx="791.17" cy="987.27" rx="15.19" ry="2.15"/><ellipse class="cls-1" cx="706.25" cy="985.12" rx="15.19" ry="2.15"/><path class="cls-3" d="M758,962.24s30-101.22-4.68-141.76c-25.89-30.33-55.35-26.67-68.52-22.94A24.54,24.54,0,0,0,669,811c-4.62,10.24-3.77,26.87,28.75,46.27,54.45,32.49,57.84,77.06,57.84,77.06Z"/><path class="cls-16" d="M689.44,811.89S777.77,840.35,758,962.24"/><path class="cls-16" d="M741,822.09s-12.16,8.45-8.32,21.14"/><path class="cls-16" d="M698.31,829.61s7.39-7.79,16.48-3.5"/><path class="cls-16" d="M733.22,868.81s13-6.83,16.42,1.72"/><path class="cls-16" d="M765.52,883s-9.8-.8-10,4"/><path class="cls-3" d="M759.17,963.05s-35.12-73.56-44.72-71.95c-4.63.76-6.7,5.41-7.65,10.06a30.53,30.53,0,0,0,1.91,17.91C713.7,930.85,727.07,953.2,759.17,963.05Z"/><path class="cls-16" d="M714.7,905.06s36.84,55,43.95,57.46"/><line class="cls-16" x1="711.32" y1="913.65" x2="719.92" y2="913.65"/><line class="cls-16" x1="721.62" y1="933.79" x2="735.09" y2="934.38"/><line class="cls-16" x1="729.82" y1="917.68" x2="728.36" y2="924.91"/><line class="cls-16" x1="744.14" y1="939.69" x2="743.88" y2="946.27"/><path class="cls-3" d="M758.14,963.05s35.12-73.56,44.72-71.95c4.63.76,6.7,5.41,7.65,10.06a30.45,30.45,0,0,1-1.92,17.91C803.61,930.85,790.24,953.2,758.14,963.05Z"/><path class="cls-16" d="M802.6,905.06s-36.83,55-44,57.46"/><line class="cls-16" x1="805.99" y1="913.65" x2="797.39" y2="913.65"/><line class="cls-16" x1="795.69" y1="933.79" x2="782.21" y2="934.38"/><line class="cls-16" x1="787.49" y1="917.68" x2="788.95" y2="924.91"/><line class="cls-16" x1="773.16" y1="939.69" x2="773.42" y2="946.27"/><path class="cls-3" d="M697.88,980.24a6.32,6.32,0,0,1-2-3.11,2.79,2.79,0,0,1,1.39-3.17c1.29-.51,2.65.41,3.7,1.34s2.23,2,3.58,1.78a5.77,5.77,0,0,1-1.68-5.27,2.33,2.33,0,0,1,.46-1.07c.72-.78,2-.44,2.86.17,2.71,2,3.47,5.76,3.49,9.17a18.66,18.66,0,0,0,0-3.81,3.91,3.91,0,0,1,1.37-3.34,4.07,4.07,0,0,1,2.1-.52,4.33,4.33,0,0,1,3.41,1c1,1.15.76,3.06-.14,4.32a13.44,13.44,0,0,1-3.52,2.86,7.82,7.82,0,0,0-2.52,2.47,3.43,3.43,0,0,0-.19.44h-7.63A20.74,20.74,0,0,1,697.88,980.24Z"/><path class="cls-3" d="M831.6,950.6a6.27,6.27,0,0,1-2-3.1,2.81,2.81,0,0,1,1.4-3.17c1.28-.5,2.65.41,3.7,1.34s2.23,2,3.59,1.78a5.73,5.73,0,0,1-1.69-5.27,2.25,2.25,0,0,1,.47-1.07c.71-.78,2-.44,2.85.18,2.71,2,3.46,5.71,3.48,9.17a17.33,17.33,0,0,0,0-3.81,4,4,0,0,1,1.38-3.35,4.18,4.18,0,0,1,2.1-.5,4.23,4.23,0,0,1,3.41,1c1,1.14.77,3-.14,4.31a13.12,13.12,0,0,1-3.52,2.91,7.85,7.85,0,0,0-2.52,2.48,2.44,2.44,0,0,0-.19.44h-7.63A21.19,21.19,0,0,1,831.6,950.6Z"/><path class="cls-3" d="M787,980.24a6.41,6.41,0,0,1-2-3.11,2.81,2.81,0,0,1,1.4-3.17c1.28-.51,2.65.41,3.7,1.34s2.22,2,3.58,1.78a5.75,5.75,0,0,1-1.69-5.27,2.46,2.46,0,0,1,.47-1.07c.71-.78,2-.44,2.86.17,2.71,2,3.47,5.76,3.48,9.17a18,18,0,0,0,0-3.81,3.92,3.92,0,0,1,1.38-3.34,4,4,0,0,1,2.1-.52,4.33,4.33,0,0,1,3.41,1c1,1.15.75,3.06-.14,4.32a13.44,13.44,0,0,1-3.52,2.86,7.75,7.75,0,0,0-2.53,2.47,3.38,3.38,0,0,0-.18.44h-7.64A21.2,21.2,0,0,1,787,980.24Z"/><path class="cls-3" d="M660.65,920.34S657.79,924.2,662,930s7.63,10.74,6.24,14.37c0,0-6.31-10.81-11.45-11S655,926.84,660.65,920.34Z"/><path class="cls-9" d="M660.65,920.34a4.85,4.85,0,0,0-.59,1.21c-5,6.07-7.68,11.73-2.87,11.88,4.5.13,9.89,8.4,11.17,10.47a1.34,1.34,0,0,1-.15.48s-6.31-10.81-11.45-11S655,926.84,660.65,920.34Z"/><path class="cls-17" d="M655.33,925.25c0,1.37.15,2.46.33,2.46s.32-1.09.32-2.46-.18-.71-.36-.71S655.33,923.9,655.33,925.25Z"/><path class="cls-17" d="M653.5,926.87c1.15.66,2.17,1,2.25.89s-.77-.83-1.93-1.48-.7-.18-.79,0S652.34,926.23,653.5,926.87Z"/><path class="cls-3" d="M675.76,920.34s2.87,3.86-1.32,9.68-7.62,10.74-6.23,14.37c0,0,6.31-10.81,11.44-11S681.42,926.84,675.76,920.34Z"/><path class="cls-9" d="M675.76,920.34a4.56,4.56,0,0,1,.6,1.21c5,6.07,7.68,11.73,2.86,11.88-4.49.13-9.88,8.4-11.16,10.47a3.37,3.37,0,0,0,.15.48s6.31-10.81,11.44-11S681.42,926.84,675.76,920.34Z"/><path class="cls-17" d="M681.09,925.25c0,1.37-.15,2.46-.34,2.46s-.32-1.09-.32-2.46.19-.71.36-.71S681.09,923.9,681.09,925.25Z"/><path class="cls-17" d="M682.92,926.87c-1.16.66-2.17,1-2.26.89s.78-.83,1.93-1.48.71-.18.8,0S684.07,926.23,682.92,926.87Z"/><path class="cls-18" d="M680.17,943.89s-8-.25-10.41-2-12.31-3.89-12.94-1-12,14.12-3,14.19,21-1.45,23.4-3S680.17,943.89,680.17,943.89Z"/><path class="cls-19" d="M653.7,954c9,.08,21-1.45,23.4-3,1.85-1.14,2.56-5.28,2.78-7.18h.26s-.5,6.66-2.92,8.16-14.36,3-23.4,3c-2.61,0-3.5-1-3.46-2.39C650.76,953.48,651.76,954,653.7,954Z"/><ellipse class="cls-1" cx="151.23" cy="543.6" rx="19.99" ry="20.6"/><ellipse class="cls-1" cx="497.01" cy="511.08" rx="19.99" ry="20.6"/><ellipse class="cls-1" cx="814.19" cy="592.48" rx="19.99" ry="20.6"/><ellipse class="cls-1" cx="65.51" cy="732.52" rx="33.51" ry="34.53"/><ellipse class="cls-1" cx="97.63" cy="903.03" rx="33.51" ry="34.53"/><ellipse class="cls-1" cx="725.15" cy="752.63" rx="33.51" ry="34.53"/><path class="cls-20" d="M448.08,817.29c-1.18.12-2.38.06-3.56.25a15.84,15.84,0,0,0-5.54,2.29c-8.41,4.94-16.35,11.72-19.84,21a3,3,0,0,0-.26,1.86,3.19,3.19,0,0,0,1,1.31l3.27,3.07a4.54,4.54,0,0,0,1.46,1,4.62,4.62,0,0,0,2.68-.08c9-2.13,18.55-4.57,24.86-11.51,3-3.28,5.76-7.81,10.17-7.93,1.85,0,3.57.73,5.4.95s4-.58,4.44-2.41a5.29,5.29,0,0,0-.29-2.7l-2.72-9.32c-.74-2.55-8.2-2.69-10.69-2.23C454.65,813.58,452.1,816.91,448.08,817.29Z"/><path class="cls-20" d="M480.1,869.82c-.13,3.2.12,6.42-.39,9.59a28.73,28.73,0,0,1-2.3,7.19,47.48,47.48,0,0,1-6.29,10.2c-2.33,2.86-5.13,5.54-8.6,6.67s-7.73.31-9.89-2.7c-1.77-2.45-1.85-5.71-1.72-8.77.31-7.52,1.46-15.14,4.73-21.86,1.41-2.86,3.19-5.58,4.62-8.47,3-6,4.71-13.1,9.88-17.23a31.73,31.73,0,0,0,10.25,2.9c1.38.16,5.32.25,5.78,2.07.32,1.23-2.27,4.67-2.77,5.88A41.24,41.24,0,0,0,480.1,869.82Z"/><path class="cls-10" d="M443.46,732.45c1.11,2.91,2.51,5.77,2.77,8.87.19,1.91,0,3.82,0,5.72a38.75,38.75,0,0,0,1.26,7.72l5.15,21.71c.77,3.25,1.53,6.59,1.14,9.9-.27,2.21-1,4.35-1,6.57a26.19,26.19,0,0,0,.78,5,31.69,31.69,0,0,1-.78,15.14,2.34,2.34,0,0,0-.16,1.17,2.2,2.2,0,0,0,1.24,1.3,51.73,51.73,0,0,0,17.84,6.12,184.14,184.14,0,0,0,11.74-43.19c1.31-9,2-18.1,3.63-27a2.26,2.26,0,0,1,.6-1.37c.63-.54,1.58-.2,2.32.16a206.26,206.26,0,0,1,27.19,16.19,35.84,35.84,0,0,0,6.27-29A60.35,60.35,0,0,0,518.79,725a70.38,70.38,0,0,0-7.86-13.59c-6.85-8.86-16.91-14.52-27.26-18.36-6.3-2.34-12.78-4.08-19.25-5.85-3.62-1-9.69-4.26-13.21-1.72-3.7,2.64-6.16,9.18-7.68,13.33a50.39,50.39,0,0,0-3,16.09A46.82,46.82,0,0,0,443.46,732.45Z"/><path class="cls-10" d="M517.76,758.63c-1.93,2.17-.3,5.64-.67,8.58a12,12,0,0,1-1.36,3.76l-8.84,17.9a33.88,33.88,0,0,0-3.3,8.57c-1.21,6.46,1.28,13.72-1.9,19.42-1,1.84-2.61,3.42-3,5.5-.31,1.51,0,3.09-.16,4.63-.21,1.8-1.14,3.42-1.66,5.15a37.8,37.8,0,0,0-.86,5.07,30,30,0,0,1-10.39,18.52,16.25,16.25,0,0,1-11.46,4c-4.12-.37-8.22-3.25-9.06-7.42-.29-1.42-.23-3-1.09-4.16-1.22-1.64-3.79-1.71-5-3.4l4.54-7.71c1.42-2.39,2.86-4.89,3.09-7.68.28-3.42-1.32-6.83-.75-10.21.49-2.91,2.52-5.33,3.13-8.2.75-3.58-.76-7.19-1.58-10.75-2-8.77.24-17.92,2.48-26.67C472.91,762,476,750.2,482,740,494.07,746.66,505.17,753.09,517.76,758.63Z"/><path class="cls-3" d="M517.88,577.19c.72,2,.33,4.26.19,6.4-.32,4.76.66,9.53.43,14.36s-1.66,9.44-2.66,14.13c-2.84,13.4-2.15,27.37-4.72,40.83-3.17,16.67-11.28,32.2-12.88,49.11-.51,5.38-.44,11.13-3.3,15.66a237.08,237.08,0,0,1-47.8-28.94c3.25-24.87,6.47-49.86,6-75a33.34,33.34,0,0,1,.61-9,28.24,28.24,0,0,1,3.3-7c3.57-6,7.51-11.75,11.44-17.49,2.51-3.68,5.23-7.54,9.24-9.26s8.76-1,13.14-.13l15.76,3C509.94,574.44,516.47,573.26,517.88,577.19Z"/><path class="cls-21" d="M391.31,672.49a50.19,50.19,0,0,0-7-6c3.28-4.11,2.63-10.07,3.43-15.33a51.66,51.66,0,0,1,3-10c.33-.9.8-1.9,1.72-2.14a2.9,2.9,0,0,1,1.64.27c2.78,1,8.56,1,10.72,2.8,2.59,2.25.22,6.95-.76,9.76C403.34,653.75,392.69,673.92,391.31,672.49Z"/><path class="cls-20" d="M399.36,850.38A20.23,20.23,0,0,1,402,858c.22,2.71-.74,5.67-3,7.1s-5.45.95-8.11.1a42.7,42.7,0,0,1-25.56-23.82c-.84-2-1.57-4.12-3.06-5.67a16.61,16.61,0,0,0-3.65-2.52c-3.63-2.12-7.13-4.9-8.81-8.84s-.93-9.21,2.56-11.55a9.2,9.2,0,0,1,7.24-1,27.63,27.63,0,0,1,6.86,3.08c3.59,2,8,3.74,11.09,6.42a71.67,71.67,0,0,1,7.63,8.31,113.89,113.89,0,0,1,7.6,10C393.61,840.67,400,849.46,399.36,850.38Z"/><path class="cls-20" d="M331.61,830.39a67,67,0,0,1-2.45,14.14c-.75,2.6-1.74,5.29-3.82,6.94a13.73,13.73,0,0,1-5.83,2.2,5.4,5.4,0,0,1-2.23.14,5.53,5.53,0,0,1-3-2.48c-3.09-4.21-6.09-8.66-7.4-13.77-1.85-7.4,0-15.33,3.21-22.25a22.61,22.61,0,0,1,4.95-7.42,18.62,18.62,0,0,1,9.07-4.2c3.41-.71,7.6-2.21,7.85,2.07A206.57,206.57,0,0,1,331.61,830.39Z"/><path class="cls-10" d="M382.75,651.35c6.38,3.4,13.46,7.72,14.79,15,.82,4.44-.76,9-.5,13.5.23,4,1.85,7.81,1.65,11.77q-.33,2.8-.93,5.57c-.54,3.52-.22,7.1-.36,10.65-.3,8-2.9,15.7-4.16,23.6a71.64,71.64,0,0,0-.62,17.06c.31,3.67.93,7.33.93,11a50.22,50.22,0,0,1-.64,7.94,80.93,80.93,0,0,1-7.39,23.69c-4.45,9-3.82,20.66-3.35,30.77a7.84,7.84,0,0,1-.5,4.12c-1.16,2.18-4.07,2.49-6.47,2.28a34.77,34.77,0,0,1-23.11-12.06,6.21,6.21,0,0,1-1.68-3.21c-.2-2,1.39-3.71,2.53-5.4,3.9-5.71,2.92-13.46,3.38-20.48a45.67,45.67,0,0,1,3.5-14.81c1.15-2.72,2.58-5.39,2.84-8.35.24-2.75-.57-5.47-1.38-8.1l-2.77-9.07c-4.3-14.09-8.63-28.26-15.13-41.42a20.71,20.71,0,0,0-8.55,12.39c-2.42,9,1,19-2.28,27.62a25.7,25.7,0,0,0-1.35,3.71,15.38,15.38,0,0,0-.23,3.32q.13,13.93,1.65,27.79a8.77,8.77,0,0,0,1.11,4c.54.81,1.34,1.41,1.92,2.18,1.62,2.16,1.31,5.19.92,7.89L334.73,807a3.68,3.68,0,0,1-.6,1.8,3.27,3.27,0,0,1-1.58.88,42.54,42.54,0,0,1-18.17,1.71c-1.8-.22-3.44-1.46-4.94-2.51-.16-1.91,2.14-3.17,2.22-5.07a4.35,4.35,0,0,0-1.41-2.91c-3.44-4-7.54-8.25-7.5-13.6,0-1.4.32-2.8.27-4.2-.12-3.59-2.52-6.67-3.36-10.12-1-4.28.34-8.72.87-13.09.72-5.89-.13-11.85-.93-17.73l-3.09-21.56a59.21,59.21,0,0,0-1.93-9.89,78.24,78.24,0,0,0-4.09-9.28c-3-6.19-5.39-12.63-7.81-19.05a17.5,17.5,0,0,1-1.43-5.52c-.14-3.26,1.49-6.35,3.53-8.86a26.68,26.68,0,0,1,14.79-9.24,6.31,6.31,0,0,1,3-.13,8,8,0,0,1,2.3,1.25,53.91,53.91,0,0,0,48.87,6c.93.73,2.64.41,3.7-.1,3-1.4,5.39-3.74,8-5.72C370.25,656.27,376.79,652.67,382.75,651.35Z"/><path class="cls-10" d="M191.17,896a13.13,13.13,0,0,0,2.18,4c3.35,4.5,8,8.09,10.17,13.34.45,1.12.79,2.3,1.2,3.45a22.74,22.74,0,0,0,6,9,36.63,36.63,0,0,0,6.63,4.52c4.08,2.3,8.5,4.38,13.14,4.25a13.63,13.63,0,0,0,2.77-.34,15,15,0,0,0,4.14-1.56c3-1.7,5.54-5,5-8.47a8,8,0,0,0-.6-1.91,20.9,20.9,0,0,0-1.69-2.75c-1.56-2.23-3.17-4.51-5.45-5.94-2.57-1.62-5.81-2-8.12-4a13,13,0,0,1-2.34-2.92,37.44,37.44,0,0,1-4.62-10.79c-.7-2.86-1.17-6-3.2-8.09s-4.8-2.57-7.5-3.05a13,13,0,0,0-2.78-.27c-1.32.05-2.69.44-3.92-.2s-1.66-1.54-3.16-1.42a6.31,6.31,0,0,0-3.24,1.46C192.23,886.91,189.9,891.68,191.17,896Z"/><path class="cls-8" d="M224,900.31c.6,3.23,1.53,6.66,4,8.77,1.54,1.37,3.7,2.23,4.46,4.16s-.22,4.36-1.49,6.14a22.17,22.17,0,0,1-6,5.63c-1.95,1.24-4.29,2.2-6.54,1.64-1.85-.44-3.31-1.82-4.69-3.14-3.16-3-6.39-6.15-8.17-10.2-1.84-4.27-1.94-9.21-3.95-13.41-1.18-2.45-3-4.59-3.7-7.22a4.62,4.62,0,0,1,0-2.94,4,4,0,0,1,3.62-2.22,12.27,12.27,0,0,1,4.34,1,93.22,93.22,0,0,0,12.78,3.68c1.73.34,2.77.33,3.7,2.05A21.05,21.05,0,0,1,224,900.31Z"/><path class="cls-8" d="M234.74,927.61a10.53,10.53,0,0,0-1.44,3.54,8.13,8.13,0,0,0-.1,3,14.54,14.54,0,0,0,4.13-1.56c3-1.7,5.55-5,5-8.47a7.79,7.79,0,0,0-.6-1.9,2.52,2.52,0,0,0-2.46.79A20.47,20.47,0,0,0,234.74,927.61Z"/><path class="cls-10" d="M201.61,855.23a4.83,4.83,0,0,0-.34,2.86c.42,1.9,2.32,3,4,3.87l16.25,8.19a35.15,35.15,0,0,1,3.3,1.8c2.77,1.75,5,4.23,7.32,6.5s5,4.39,8.13,5.19a13.42,13.42,0,0,0,9.24-1.25,19.45,19.45,0,0,0,4.24-3,27.79,27.79,0,0,0,3-3.27,7.15,7.15,0,0,0,1.65-3.08,6.85,6.85,0,0,0-1.52-4.89,23.46,23.46,0,0,0-1.84-2.37c-6.17-7-16.27-10.66-25-12.08a70.08,70.08,0,0,1-10.07-3c-3.32-1.08-6.84-1.9-10.3-1.4S202.93,851.9,201.61,855.23Z"/><path class="cls-9" d="M201.61,855.23a4.83,4.83,0,0,0-.34,2.86c.42,1.9,2.32,3,4,3.87l16.25,8.19a35.15,35.15,0,0,1,3.3,1.8c2.77,1.75,5,4.23,7.32,6.5s5,4.39,8.13,5.19a13.42,13.42,0,0,0,9.24-1.25,19.45,19.45,0,0,0,4.24-3,27.79,27.79,0,0,0,3-3.27,7.15,7.15,0,0,0,1.65-3.08,6.85,6.85,0,0,0-1.52-4.89,23.46,23.46,0,0,0-1.84-2.37c-6.17-7-16.27-10.66-25-12.08a70.08,70.08,0,0,1-10.07-3c-3.32-1.08-6.84-1.9-10.3-1.4S202.93,851.9,201.61,855.23Z"/><path class="cls-8" d="M242.3,860.46a19.36,19.36,0,0,1,3,4.85,4.29,4.29,0,0,1-1,6.16L242.73,873a5,5,0,0,1-4.45,1.72c-2.18,0-4.52,0-6.28-1.34-2.41-1.79-2.85-5.5-1.75-8.35s3.4-5,5.72-6.92C237.86,856.56,241,859,242.3,860.46Z"/><path class="cls-8" d="M252.17,870.31a8.73,8.73,0,0,0,.41,4.72c.41,1.42.81,2.85,1.21,4.31v.06a27,27,0,0,0,3-3.27,7.1,7.1,0,0,0,1.65-3.08,6.91,6.91,0,0,0-1.52-4.89,22.27,22.27,0,0,0-1.84-2.36c-.44.58-.82,1.15-1.13,1.52A8.44,8.44,0,0,0,252.17,870.31Z"/><path class="cls-10" d="M209.7,799.32c-1.92,8.28-1.1,16.95-.09,25.41.78,6.44,1.65,13.11-.2,19.31-.68,2.31-1.77,4.67-1.35,7.06.79,4.5,6.05,6.24,10.42,7.08a10,10,0,0,0,3.85.24,9,9,0,0,0,3.51-1.9A39.58,39.58,0,0,0,239.37,838c1.65-5,2.18-10.26,2.69-15.49.85-8.8,1.71-17.71.46-26.45-.37-2.57-.93-5.12-1.16-7.71a57.44,57.44,0,0,1,.72-13.48,225.53,225.53,0,0,1,7.21-32.52,41.39,41.39,0,0,1-25.58-4.76c1.51.84-.22,14.2-.41,16.08a111.83,111.83,0,0,1-2.93,16.57C217.79,780.4,212,789.22,209.7,799.32Z"/><path class="cls-9" d="M209.7,799.32c-1.92,8.28-1.1,16.95-.09,25.41.78,6.44,1.65,13.11-.2,19.31-.68,2.31-1.77,4.67-1.35,7.06.79,4.5,6.05,6.24,10.42,7.08a10,10,0,0,0,3.85.24,9,9,0,0,0,3.51-1.9A39.58,39.58,0,0,0,239.37,838c1.65-5,2.18-10.26,2.69-15.49.85-8.8,1.71-17.71.46-26.45-.37-2.57-.93-5.12-1.16-7.71a57.44,57.44,0,0,1,.72-13.48,225.53,225.53,0,0,1,7.21-32.52,41.39,41.39,0,0,1-25.58-4.76c1.51.84-.22,14.2-.41,16.08a111.83,111.83,0,0,1-2.93,16.57C217.79,780.4,212,789.22,209.7,799.32Z"/><path class="cls-10" d="M257.69,750.76c3.69,11,2.88,23.09,1.28,34.66s-4,23.13-3.26,34.78c.27,4.57,1,9.26-.31,13.64a30.58,30.58,0,0,1-2.83,6.08l-29.5,52.57a9.15,9.15,0,0,1-7.39,4.76c-3.16.23-6.25-.84-9.19-2a16.33,16.33,0,0,1-5.35-3.06,6.61,6.61,0,0,1-2.26-5.58c1.32-9.13,3.31-18.47,4.78-27.62a48.59,48.59,0,0,1,6.42-17.5c2.28-3.81,5.09-7.23,7.06-11.2,5.65-11.35,3.69-25.2-.67-37.14s-10.86-23-14.33-35.25a41.78,41.78,0,0,1-1.74-10.48,28.4,28.4,0,0,1,7.72-19.87,6.76,6.76,0,0,1,2.68-1.9,7.24,7.24,0,0,1,3.64.06C230.86,729,252.26,734.45,257.69,750.76Z"/><path class="cls-8" d="M522.8,585.93c.54,4.18-.92,8.4-3,12-7.87,13.52-26,19.51-40,13.21-5.78-2.6-10.67-6.89-15.46-11.12-1.61-1.43-3.28-2.92-4.09-4.94-1.44-3.57.29-7.83,3.11-10.38s6.47-3.81,10.1-5C485.43,575.91,520,563.78,522.8,585.93Z"/><path class="cls-10" d="M515.79,572.69c10.91,9,26.8,17.67,39.17,24.38,4.2,2.29,8.87,4.86,10.39,9.53.81,2.49.54,5.21.27,7.84-.51,5-1,10.19-2.94,14.88-2.23,5.5-6.17,10-9.33,15-5.55,8.74-8.8,19-15.65,26.77,4.62,15.82,9.68,31.63,11.32,48a1.66,1.66,0,0,1-.86,2L536.67,729a12.79,12.79,0,0,0-3.32,2.86c-2,2.72-1.77,6.55-3,9.72a12.44,12.44,0,0,1-7.12,6.67,21.3,21.3,0,0,1-9.79,1.07A22.29,22.29,0,0,1,501.74,745c-2.93-2.29-5-5.5-7-8.66a34.2,34.2,0,0,1-3.69-6.94c-1.23-3.51-1.31-7.33-1.26-11.06a120.25,120.25,0,0,1,2-21.18c.53-2.77,1.2-5.5,1.62-8.29.85-5.62.69-11.36,1.32-17a117.18,117.18,0,0,1,4.11-18.73,98.31,98.31,0,0,0,2.4-11.53c1.08-6.84,3.24-13.44,5.39-20l3.7-11.25c.78-2.43,1.58-4.85,2.51-7.22,1.74-4.43,4-8.75,4.57-13.47.66-5.16-4.74-11.27-2.92-16.11C514.57,573.06,515.37,572.35,515.79,572.69Z"/><path class="cls-10" d="M562.39,603.94c2.56,1.19,4,4,4.89,6.77A39.5,39.5,0,0,1,568.72,630a35.4,35.4,0,0,0-.74,4.92,33.07,33.07,0,0,0,.55,5.71c.92,7.29,0,14.69.3,22,.32,8.27,2.06,17-1.3,24.52-2.24,5-6.47,8.71-10.65,12.08a211.46,211.46,0,0,1-51,30.33c3.15-3.9,3.2-9.78,1.11-14.38s-6-8.06-10.17-10.75a64,64,0,0,0,15.3-5.63c9.68-5.06,18-12.48,26.18-19.83a8.16,8.16,0,0,0,2.72-3.54c.83-2.86-1.46-5.57-3-8.08-4.82-7.62-3.7-17.57-1.68-26.4,2.24-9.66,5.54-19.29,11.56-27.07C551.61,609,556.51,605.28,562.39,603.94Z"/><path class="cls-8" d="M505.07,729.79a12.77,12.77,0,0,1-3.18,3.6c-2.77,1.91-6.58,1.18-9.67-.17a28.19,28.19,0,0,1-7.86-5.15,12.34,12.34,0,0,0-3.48-2.67c-2.43-.95-5.81-.24-7.17-2.54a1.36,1.36,0,0,1-.22-.81c.08-.83,1.14-1.06,1.95-1.11a23.68,23.68,0,0,0,10.69-3.4,10.37,10.37,0,0,1-2.62-2.86,2.25,2.25,0,0,1-.44-1.35,2.38,2.38,0,0,1,.8-1.35,20.12,20.12,0,0,1,22.63-3.89,4.61,4.61,0,0,1,1.85,1.43,5.33,5.33,0,0,1,.67,1.9c.6,2.67,2.77,6.67,2,9.37C510.14,723.88,506.86,727.17,505.07,729.79Z"/><path class="cls-10" d="M442.05,717.78c11.49-13.69,16.63-31.7,21.4-49.13l3.41-12.38,8.23-29.82c1.21-4.4,2.42-8.8,3.23-13.29,1.37-7.75,1.5-15.66,1.42-23.53a26,26,0,0,0-2.14-9.45c-.8-2.06-1.19-4.25-1.85-6.37a32.17,32.17,0,0,0-3.7-8.37,8.77,8.77,0,0,0-1.67-2.06,9.47,9.47,0,0,0-3.78-1.58,32.38,32.38,0,0,0-9.05-1.42,11.05,11.05,0,0,0-8.21,3.61c-1.51,1.84-2.2,4.22-3.39,6.28a24.64,24.64,0,0,0-1.51,2.64,13.63,13.63,0,0,0-.83,4.33q-.72,9-1.23,18c-.16,2.73-.3,5.49-.2,8.23.09,2.13.31,4.26.53,6.38l2.19,20.81c.51,4.88.15,9.46.57,14.35,1,11.82-1.43,23.64-4,35.25-1.21,5.51-2.46,11.1-5.05,16.09-2.28,4.42-5.7,8.91-4.79,13.83.31,1.72,1.15,3.32,1.28,5a10.37,10.37,0,0,0,.31,3.19,3.64,3.64,0,0,0,3.94,1.91A9.13,9.13,0,0,0,442.05,717.78Z"/><path class="cls-8" d="M443.45,663c.35,2.73.08,5.5.21,8.26a57.13,57.13,0,0,0,1.85,10.47c.93,3.81,2.11,8.08,5.37,10.2a16.09,16.09,0,0,1,2.34,1.51A2.39,2.39,0,0,1,454,696l-2.54-.44a2.72,2.72,0,0,1,.48,3.73,2.53,2.53,0,0,1-3.62.5,2.33,2.33,0,0,1-.41-.42,6.52,6.52,0,0,1-.23,2.56,2,2,0,0,1-1.85,1.43,3,3,0,0,1-1.32-.57l-6.64-4.24a12.52,12.52,0,0,1-4.78-4.77l-2.9-4.5a10.88,10.88,0,0,1-1.51-2.86c-1.08-3.81,1.94-8,.37-11.63a15.44,15.44,0,0,0-1.65-2.5c-3.36-4.76-3.15-11.24-2.78-17.14.12-2,.48-4.36,2.22-5.22,1.39-.7,3.05-.08,4.34.79a17.91,17.91,0,0,0,3.88,2.52c.92.33,1.94.36,2.87.71,1.29.46,2.49,2.28,3.36,3.36A11.37,11.37,0,0,1,443.45,663Z"/><path class="cls-21" d="M362.45,577.39a16.81,16.81,0,0,1-3.25,5,6.19,6.19,0,0,1-5.36,1.91c-2-.42-3.56-2.17-4.92-3.81-3.55-4.3-7.14-8.65-9.53-13.74-3.64-7.74-4.22-16.58-4.75-25.17-.13-2.21-.24-4.55.79-6.48,1.3-2.47,4.07-3.63,6.62-4.61l14.09-5.43a5.24,5.24,0,0,1,2.77-.53c2.21.38,3,3.13,3.63,5.35a33.73,33.73,0,0,0,5.27,11.05c3.16,4.34,10.25,10.19,6.2,15.61C369.12,563,366,570.06,362.45,577.39Z"/><path class="cls-22" d="M380.49,552.6c6.17,6,8.26,15.3,8,24s-2.65,17.21-4,25.82-1.61,17.81,2,25.72c1.24,2.72,2.94,5.23,3.81,8.1A26,26,0,0,1,391,645a25.37,25.37,0,0,1-1.68,9c-2,4.49-6,7.62-9.89,10.48-7.9,5.88-16,11.86-25.24,14.94-6.29,2.09-12.94,2.77-19.52,3.14a59.8,59.8,0,0,1-13.37-.39,36,36,0,0,1-20.29-11.06,11.93,11.93,0,0,1-2.3-3.27,14,14,0,0,1-.8-5q-.33-9.37.11-18.76a85.47,85.47,0,0,1,2.37-17.67c1.77-6.67,4.83-12.92,7.15-19.41,8.08-22.59,7.26-48.29,18.49-69.38,2.42-4.55,6.47-9.34,11.46-8.62a3.81,3.81,0,0,1,2.53,1.2,5.67,5.67,0,0,1,.92,2.94c1.2,10.24,2.89,20.76,7.57,30,1.85,3.63,4.62,9.15,8.89,10.13s6.77-3.22,9.05-6.2A75.3,75.3,0,0,1,380.49,552.6Z"/><path class="cls-10" d="M410,537.18a18.07,18.07,0,0,1,3.5,2.54c2.77,2.7,3.79,6.85,3.77,10.77s-.92,7.79-1.48,11.68c-1.49,10.48-.22,21.2.37,31.81a16.06,16.06,0,0,1-.29,5.13c-.46,1.6-1.39,3-2,4.56-1.77,4.59-.43,9.83-1.47,14.65-1.11,5.14-4.91,9.8-4.2,15,.29,2,1.24,3.92,1.65,5.94s.05,4.46-1.64,5.54-4.15.3-6.16.9a19.12,19.12,0,0,0-2.39,1.1,11.37,11.37,0,0,1-9.9-.63,30.21,30.21,0,0,1-8-6.53c-3.52-3.72-6.93-7.78-8.48-12.73-2.25-7.16-.25-15,2.2-22.07s5.37-14.29,4.94-21.84c-.24-4.23-1.54-8.3-2.31-12.45a82,82,0,0,1-1-17.43c.12-4.27.4-8.67,2.18-12.53a16.75,16.75,0,0,1,13.24-9.33C399,530.54,404.57,533.94,410,537.18Z"/><path class="cls-9" d="M392.56,629.26a29.58,29.58,0,0,0,1.57,8.94c1.65-3.88,1.85-8.25,2.07-12.48.93-14.56,4.06-28.3,7.4-42.4-2.44,1.9-3.8,6.66-5,9.52A86.36,86.36,0,0,0,392.56,629.26Z"/><path class="cls-10" d="M330.25,527.77c-4.45,1.21-8.32,3.94-12.63,5.72-4.49,1.9-9.31,2.71-14,3.88-10.88,2.73-21.82,7.79-28.39,17.15-4.84,6.89-6.85,15.39-10.17,23.19-2.77,6.55-6.47,12.68-8.51,19.49-2.67,8.89-2.37,18.42-1.71,27.69.54,7.62,1.35,15.33,4.7,22.08,1.76,3.55,4.18,6.72,5.94,10.26,2.11,4.26,3.22,9,5,13.34s4.34,8.76,8.41,11l6.75-4.07c10.07-6.07,20.13-12.14,29.88-18.74,8.51-5.71,17.08-12.27,21.61-21.67,4-8.29,4.41-18,3.38-27.2s-3.41-18.22-4.63-27.41a113.57,113.57,0,0,1,.7-34.77c.92-5.19,3.38-10.54,3.89-15.7C341,526.54,334.11,526.72,330.25,527.77Z"/><path class="cls-8" d="M288.54,679.2c5.17,5,12.6,6.51,19.06,9.52a41.19,41.19,0,0,1,12.73,9.53c2,2.25,3.9,5.31,2.91,8.16-.84,2.46-3.42,3.72-5.79,4.63-2.94,1.15-6.22,2.16-9.15,1-1.72-.67-3.11-2-4.69-3-3.87-2.37-8.75-2.38-12.72-4.57-5.6-3.09-8.4-9.88-13.66-13.55-2.89-2-6.87-3.63-7.17-7.21a8.9,8.9,0,0,1,.78-3.74c1.06-2.91,2.87-12.93,6.92-12.66C282.17,667.62,285.26,676.79,288.54,679.2Z"/><path class="cls-8" d="M261.47,634.55c1.69,6.27,5.62,11.61,9.69,16.59,2.93,3.57,6.15,7.46,6.25,12.13.09,4.42-2.77,8.49-6.47,10.75s-8.05,3-12.33,3.26a30.06,30.06,0,0,1-10.22-.73c-8.45-2.36-14.31-9.95-21-15.82-3.94-3.48-8.38-6.51-11.4-10.86s-4.3-10.6-1.32-15a20.82,20.82,0,0,1,3.69-3.81,63.19,63.19,0,0,0,12.75-15.77c1.37-2.39,2.68-5,5-6.42,3.3-2.07,7.53-1.12,11.27-.11,4.06,1.09,15.49,3.24,16.28,8.57.33,2.19-2.31,5.6-2.7,7.95A21.6,21.6,0,0,0,261.47,634.55Z"/><path class="cls-23" d="M282.36,646.5a40.45,40.45,0,0,1,3,7.09c2.82,10.1-2.22,20.5-4.62,30.72-3.07,13.07-1.77,26.75-1.91,40.21-.07,6.16-.71,12.93-5,17.2a15.66,15.66,0,0,0-3.19,3.37,13.83,13.83,0,0,0-1,3.15,15.7,15.7,0,0,1-19.51,11.13,15.36,15.36,0,0,1-3.34-1.43c-3.5-2-6.54-5.5-10.55-5.6a28.26,28.26,0,0,0-3.77.43c-4,.4-7.9-1.12-11.64-2.61a7.52,7.52,0,0,1-2.46-1.36c-.67-.64-1.11-1.49-1.73-2.18-2.28-2.53-6.18-2.09-9.47-2.8a13.48,13.48,0,0,1-10.05-10.35c-.67-3.28-.1-6.67.45-10L200,708.77a138.71,138.71,0,0,0,2.15-16.36,70.48,70.48,0,0,0-1.53-18.49c-1.09-4.95-2.72-9.8-3.31-14.85a37.14,37.14,0,0,1,6.47-25.54c1.29-1.82,3-3.63,5.15-3.81,1.76-.16,3.42.81,4.95,1.75q20,12.19,40.27,23.88c3.69,2.14,7.47,4.29,11.6,5.35,1.23.32,3,.19,3.18-1.1a2.35,2.35,0,0,0-.36-1.4c-2.31-4.59-5.65-8.52-8.31-12.88s-4.72-9.53-3.93-14.6c1.07-7,7.39-11.65,12.56-6.15C274.68,630.81,278.57,638.83,282.36,646.5Z"/><path class="cls-8" d="M241,735.4c10.85.71,21.93,1.48,32,5.76,3.22,1.37,6.64,3.15,10,2.3a13.48,13.48,0,0,0,4.63-2.55,107.6,107.6,0,0,0,11.81-10.39c-.37-2.08-3.12-2.37-5.17-2.35a30.15,30.15,0,0,1-14.38-3.56,23.65,23.65,0,0,0-4.62-2.22c-4.39-1.25-8.87,1.13-13.27,2.29-6.53,1.72-13.41.72-20.07-.29l-18-2.74c-1.67-.24-3.56-.44-4.89.62a6.18,6.18,0,0,0-1.74,3.23c-2.2,7.62-1.15,8.26,6.17,8.74Z"/><ellipse class="cls-9" cx="486.58" cy="572.67" rx="29.58" ry="30.48"/><ellipse class="cls-8" cx="486.37" cy="571.34" rx="29.58" ry="30.48"/><path class="cls-10" d="M511.33,532.64c2.37,1.5,4.84,3.12,6.14,5.66a29.7,29.7,0,0,1,1.58,5.33c1.62,5.72,5.92,10.68,6.18,16.63.29,6.53-4.46,12.2-9.84,15.62a7.17,7.17,0,0,1-4.23,1.46c-1.57-.1-2.92-1.11-4.35-1.76-6.07-2.78-12.86.74-19.3,2.36a33.62,33.62,0,0,1-20.15-1.22,19,19,0,0,1-9-6.43c-2.17-3.09-2.95-7.43-1.1-10.75.92-1.7,2.46-3.23,2.36-5.16-.06-1.17-.72-2.21-.93-3.36-.29-1.82.63-3.59,1.57-5.14a74,74,0,0,1,16-18.64c1.85-1.56,4-3.09,6.41-3.2,4.86-.22,9,3.51,14,3.53C502.37,527.59,506.45,529.53,511.33,532.64Z"/><ellipse class="cls-9" cx="377.48" cy="533.47" rx="30.5" ry="31.43"/><ellipse class="cls-21" cx="378.02" cy="532.7" rx="30.5" ry="31.43"/><path class="cls-10" d="M394.32,550.45c4.3,2.49,9.62,2.23,14.42,1.1a19,19,0,0,0,7.58-3.3,9.49,9.49,0,0,0,3.82-7.24c0-3.19-2-6.07-2.28-9.26-.31-4,2.23-7.73,2.5-11.77s-1.66-7.68-3.55-11.14c-3.24-6-6.62-12-11.55-16.54s-11.78-7.46-18.25-5.93c-3.18.76-6.12,2.52-9.37,2.86-2.88.28-5.73-.62-8.6-1s-6.1-.14-8.17,1.91c-1.12,1.14-1.84,2.75-3.17,3.59a18.14,18.14,0,0,1-2.77,1c-3.34,1.39-4.86,5.26-6,8.75L341,527c2.65,1.91,5.85,2.77,8.75,4.24s5.72,3.81,6.31,7.09c.45,2.48-.41,5.34,1,7.42,1.28,1.9,3.9,2.23,6.12,1.9s4.44-1.11,6.66-.76c5.55.87,7.61,4.37,12.74,0S389.55,547.69,394.32,550.45Z"/><ellipse class="cls-9" cx="248.4" cy="603.59" rx="27.73" ry="28.58"/><ellipse class="cls-8" cx="249.47" cy="602.03" rx="27.73" ry="28.58"/><path class="cls-10" d="M270.7,574.09a72.23,72.23,0,0,0-21.93-11.88c-5.07-1.7-10.58-2.86-15.72-1.3-7,2.05-16.29,5.11-20.61,11.12-2.12,3-4.28,6-5.3,9.52-2.06,7.11.86,14.68.67,22.09-.23,8.64-4.68,16.53-9.53,23.58s-5.83,17.14-8.7,25.28c-1,2.79-1.29,6.67,1.23,8.07,2.22,1.26,4.9-.32,6.95-1.84l12.34-9.19a9.22,9.22,0,0,1,3.26-1.79c2.54-.61,5,1,7.15,2.58l25.88,18.86a8.4,8.4,0,0,0,.12-6.94c2.43.78,4.2,2.86,6.33,4.35s5.38,2,6.93-.11.38-4.87-1.34-6.54-4-2.68-5.7-4.4c-3.35-3.44-3.7-8.87-5.81-13.21-1.52-3.05-4-5.61-5-8.85-1.75-5.31.54-11,2.77-16.13,2.67-6.06,5.7-12.53,11.38-15.69,1.91-1.07,4-1.69,6-2.67,4.88-2.41,11-8.09,13.36-13.19C277.47,581.29,274.25,576.91,270.7,574.09Z"/><path class="cls-9" d="M228.73,668.53c2.65,1.74,5.64,2.86,8.25,4.68s4.89,4.58,5,7.82-1.84,5.81-3.69,8.27l-22.52,30.45,11.48,3.13c-1.85,2.63-2.32,6-3.28,9.07s-2.77,6.3-5.84,7.11c-2.77.73-5.68-.77-8.54-.6-2.12.13-4.11,1.16-6.23,1.25-2.73.1-5.26-1.38-7.53-2.94-5.07-3.49-10.1-8.5-10.06-14.79a22.73,22.73,0,0,1,1.23-6.23c3.32-11.16,6.76-22.58,13.63-31.85,3.7-5,8.22-9.14,12.74-13.29a12,12,0,0,1,3.57-2.55c2.95-1.14,6.18.27,9.24,1.19s6.91,1,8.68-1.65"/><path class="cls-23" d="M227.76,666.65c2.65,1.74,5.64,2.86,8.25,4.68s4.89,4.58,5,7.81-1.85,5.82-3.69,8.28l-22.53,30.42L226.24,721c-1.85,2.63-2.32,6-3.28,9.07s-2.77,6.29-5.84,7.1c-2.77.74-5.68-.77-8.54-.6-2.12.13-4.12,1.16-6.23,1.24-2.73.11-5.26-1.37-7.54-2.93-5.06-3.49-10.09-8.51-10-14.79a22.5,22.5,0,0,1,1.22-6.23c3.32-11.16,6.75-22.58,13.63-31.85,3.7-5,8.23-9.14,12.74-13.34a12.12,12.12,0,0,1,3.57-2.54c2.95-1.14,6.18.27,9.24,1.19s6.91,1.05,8.68-1.65"/><g class="cls-24"><path d="M459.32,564a19.15,19.15,0,0,0,9,6.43,33.54,33.54,0,0,0,20.15,1.22c6.47-1.62,13.23-5.15,19.3-2.36,1.44.65,2.78,1.65,4.34,1.77a7.26,7.26,0,0,0,4.24-1.48,22.37,22.37,0,0,0,8.83-9.93,2.77,2.77,0,0,0,.05.63c.29,6.53-4.46,12.2-9.84,15.62a7.17,7.17,0,0,1-4.23,1.46c-1.57-.1-2.92-1.11-4.35-1.76-6.07-2.78-12.86.74-19.3,2.36a33.62,33.62,0,0,1-20.15-1.22,19,19,0,0,1-9-6.43c-2.17-3.09-2.95-7.43-1.1-10.75l.14-.24A11.82,11.82,0,0,0,459.32,564Z"/><path d="M460.55,548.06c.07,1.47-.79,2.7-1.61,3.94a7,7,0,0,1-.27-1,7.56,7.56,0,0,1,1.4-4.86A6.78,6.78,0,0,1,460.55,548.06Z"/></g><path class="cls-9" d="M351.05,500.42l-7.93,23.42c2.65,1.9,5.85,2.78,8.75,4.24s5.72,3.81,6.31,7.08c.46,2.49-.4,5.35,1,7.43,1.29,1.91,3.9,2.22,6.12,1.91s4.45-1.12,6.67-.76c5.54.86,7.6,4.37,12.73,0s7,.81,11.76,3.58c4.31,2.49,9.62,2.23,14.43,1.09a19.07,19.07,0,0,0,7.58-3.28c.32-.28.63-.57.92-.87a10.58,10.58,0,0,1-3.1,4,19.11,19.11,0,0,1-7.58,3.3c-4.81,1.13-10.17,1.39-14.43-1.1-4.77-2.76-6.73-7.8-11.76-3.57s-7.21.82-12.74,0c-2.21-.35-4.43.44-6.66.76s-4.83,0-6.12-1.9c-1.4-2.08-.54-4.94-1-7.42-.59-3.28-3.41-5.63-6.31-7.09s-6.1-2.34-8.75-4.24l8-23.48c.93-2.58,2-5.37,3.79-7.21A31.71,31.71,0,0,0,351.05,500.42Z"/><g class="cls-24"><path d="M248.57,663.28c2,1,4.62,1.1,5.92-.68s.38-4.86-1.35-6.55-4-2.67-5.7-4.4c-3.35-3.43-3.69-8.86-5.81-13.2-1.52-3.06-4-5.61-5-8.86-1.74-5.3.54-11,2.78-16.12,2.67-6.06,5.69-12.52,11.37-15.69,1.92-1.06,4-1.69,6-2.66,4.88-2.41,11-8.11,13.36-13.2,2-4.3-.82-8.47-4.19-11.3q2.46,1.64,4.79,3.47c3.56,2.86,6.77,7.2,4.62,11.7-2.38,5.1-8.47,10.78-13.35,13.19-2,1-4.08,1.61-6,2.67-5.69,3.16-8.71,9.63-11.38,15.69-2.25,5.11-4.53,10.82-2.77,16.13,1.07,3.25,3.52,5.8,5,8.85,2.15,4.34,2.46,9.77,5.82,13.21,1.69,1.72,4,2.71,5.69,4.4s2.77,4.6,1.35,6.54-4.81,1.55-6.93.11C251.34,665.58,250,664.26,248.57,663.28Z"/><path d="M192.51,654.83l12.34-9.18a9.41,9.41,0,0,1,3.26-1.8c2.54-.6,5,1,7.15,2.59l25.88,18.86a8.4,8.4,0,0,0,.12-6.94c2.38.76,4.1,2.8,6.17,4.23a7.45,7.45,0,0,0-.93-.36,8.4,8.4,0,0,1-.12,6.94L220.5,650.31c-2.12-1.55-4.62-3.19-7.15-2.58a9.38,9.38,0,0,0-3.26,1.79l-12.34,9.19c-2.05,1.52-4.73,3.11-6.95,1.84a4.23,4.23,0,0,1-1.93-3.68A13.19,13.19,0,0,0,192.51,654.83Z"/></g><path class="cls-22" d="M500.79,717s-53,4.38-63.5-3.36L485.75,706Z"/><path class="cls-9" d="M500.79,717s-53,4.38-63.5-3.36L485.75,706Z"/><path class="cls-22" d="M500.79,717,486,707.37s-44.26,13.1-56.38,7.69l12.34-17.84L485.77,706Z"/><path class="cls-10" d="M435,588.72a27.33,27.33,0,0,0-3.89,7c-.42,1.34-.63,2.74-1,4.1a31.77,31.77,0,0,1-4.62,9.44c-4.55,6.83-10.25,13.42-11.39,21.62a37.34,37.34,0,0,0,.83,12.18,33.52,33.52,0,0,0,2.18,7.68c1.17,2.61,2.92,4.91,4.26,7.43a53.34,53.34,0,0,1,3.09,7.7c1.58-1.63,2.51-3.81,3.78-5.71s3.15-3.62,5.38-3.65c2.57,0,4.68,2.19,7.23,2.53A2.08,2.08,0,0,0,442,659c.92-.45,1-1.74.92-2.77-.73-7.19-4.72-14.28-2.83-21.26,1.73-6.45,7.94-10.47,11.21-16.26,2.36-4.2,3.07-9.15,3.69-14,.79-5.76,1.59-11.57,1.23-17.37-.17-2.93-2.43-21.41-6.55-19.48-1.43.67-2.68,3.5-3.58,4.77l-3.69,5.4Z"/><polygon class="cls-22" points="324.36 707.93 294.62 732.88 256.36 725.83 282.12 704.99 324.36 707.93"/><polygon class="cls-9" points="325.43 706.38 295.69 731.32 257.44 724.27 283.2 703.43 325.43 706.38"/><polygon class="cls-22" points="325.21 705.05 295.48 729.99 257.21 722.95 282.98 702.1 325.21 705.05"/><polygon class="cls-9" points="326.07 702.16 296.33 727.11 258.07 720.06 283.84 699.22 326.07 702.16"/><polygon class="cls-22" points="325.85 700.84 296.12 725.79 257.86 718.74 283.62 697.9 325.85 700.84"/><path class="cls-10" d="M717,1041.71h0a4.73,4.73,0,0,1,6.4,2.28,5,5,0,0,1,.46,1.77l1.66,22.11-9.82,1.83-5.17-16Z"/><path class="cls-10" d="M373.56,893.52,223.34,972.09a10.92,10.92,0,0,0-4.56,14.49,10.62,10.62,0,0,0,4.63,4.74L547,1158.66a38.28,38.28,0,0,0,36.91-1l136.28-79.2a11,11,0,0,0,3.9-14.7,10.65,10.65,0,0,0-4.52-4.35l-336.73-166A10.2,10.2,0,0,0,373.56,893.52Z"/><path class="cls-10" d="M222.33,958.42l-4.7,3.6-.37,17.24A7.2,7.2,0,0,0,221,985.8l329.08,174a4.83,4.83,0,0,0,6.6-2.17,5.3,5.3,0,0,0,.54-2.32v-25Z"/><path class="cls-22" d="M373.56,873.54,223.34,952.1a10.92,10.92,0,0,0-4.58,14.48,10.62,10.62,0,0,0,4.62,4.75L547,1138.66a38.28,38.28,0,0,0,36.91-1l136.28-79.2a11,11,0,0,0,3.9-14.7,10.54,10.54,0,0,0-4.52-4.35l-336.73-166A10.17,10.17,0,0,0,373.56,873.54Z"/><polygon class="cls-10" points="404.66 887.8 239.13 974.41 523.62 1121.01 694.32 1031.72 404.66 887.8"/><ellipse class="cls-10" cx="627.73" cy="1083.7" rx="17.46" ry="10.66"/><ellipse class="cls-10" cx="309.29" cy="915.45" rx="1.62" ry="1.67"/><ellipse class="cls-10" cx="304.45" cy="928.44" rx="1.94" ry="2"/><line class="cls-25" x1="311.55" y1="925.11" x2="330.95" y2="915.79"/><path class="cls-3" d="M428.65,1001.06l54.77-32.59a16.36,16.36,0,0,1,22.73,6.28h0a17.45,17.45,0,0,1-6.09,23.42l-54.77,32.58a16.37,16.37,0,0,1-22.73-6.27h0A17.43,17.43,0,0,1,428.65,1001.06Z"/><path class="cls-3" d="M477.64,1026.78l54.77-32.59a16.37,16.37,0,0,1,22.72,6.28h0a17.43,17.43,0,0,1-6.09,23.42l-54.76,32.59a16.38,16.38,0,0,1-22.73-6.28h0A17.42,17.42,0,0,1,477.64,1026.78Z"/><path class="cls-3" d="M384.28,971.53l54.77-32.59a16.38,16.38,0,0,1,22.73,6.28h0a17.43,17.43,0,0,1-6.09,23.42l-54.77,32.59A16.37,16.37,0,0,1,378.2,995h0A17.43,17.43,0,0,1,384.28,971.53Z"/></svg>