<?xml version="1.0" encoding="UTF-8" standalone="no"?>
<!DOCTYPE svg PUBLIC "-//W3C//DTD SVG 1.1//EN"
 "http://www.w3.org/Graphics/SVG/1.1/DTD/svg11.dtd">
<!-- Generated by graphviz version 2.40.1 (20161225.0304)
 -->
<!-- Title: dependencies Pages: 1 -->
<svg width="3213pt" height="360pt"
 viewBox="0.00 0.00 3213.00 360.00" xmlns="http://www.w3.org/2000/svg" xmlns:xlink="http://www.w3.org/1999/xlink">
<g id="graph0" class="graph" transform="scale(1 1) rotate(0) translate(4 356)">
<title>dependencies</title>
<polygon fill="#ffffff" stroke="transparent" points="-4,4 -4,-356 3209,-356 3209,4 -4,4"/>
<text text-anchor="start" x="1581.5091" y="-42.4" font-family="sans-serif" font-weight="bold" font-size="14.00" fill="#000000">Legend</text>
<polygon fill="#ffffb3" stroke="transparent" points="1368.5,-10 1368.5,-30 1388.5,-30 1388.5,-10 1368.5,-10"/>
<text text-anchor="start" x="1392.129" y="-15.4" font-family="sans-serif" font-size="14.00" fill="#000000"> &#160;Declarations</text>
<polygon fill="#8dd3c7" stroke="transparent" points="1481.5,-10 1481.5,-30 1501.5,-30 1501.5,-10 1481.5,-10"/>
<text text-anchor="start" x="1505.2251" y="-15.4" font-family="sans-serif" font-size="14.00" fill="#000000"> &#160;Module</text>
<polygon fill="#80b1d3" stroke="transparent" points="1567.5,-10 1567.5,-30 1587.5,-30 1587.5,-10 1567.5,-10"/>
<text text-anchor="start" x="1591.2812" y="-15.4" font-family="sans-serif" font-size="14.00" fill="#000000"> &#160;Bootstrap</text>
<polygon fill="#fdb462" stroke="transparent" points="1664.5,-10 1664.5,-30 1684.5,-30 1684.5,-10 1664.5,-10"/>
<text text-anchor="start" x="1688.1732" y="-15.4" font-family="sans-serif" font-size="14.00" fill="#000000"> &#160;Providers</text>
<polygon fill="#fb8072" stroke="transparent" points="1760.5,-10 1760.5,-30 1780.5,-30 1780.5,-10 1760.5,-10"/>
<text text-anchor="start" x="1784.2258" y="-15.4" font-family="sans-serif" font-size="14.00" fill="#000000"> &#160;Exports</text>
<g id="clust1" class="cluster">
<title>cluster_AccountPageModule</title>
<polygon fill="none" stroke="#000000" stroke-dasharray="1,5" points="8,-70 8,-206 158,-206 158,-70 8,-70"/>
</g>
<g id="clust2" class="cluster">
<title>cluster_AccountPageModule_declarations</title>
<polygon fill="none" stroke="#000000" points="30,-78 30,-130 136,-130 136,-78 30,-78"/>
</g>
<g id="clust8" class="cluster">
<title>cluster_AdPagePageModule</title>
<polygon fill="none" stroke="#000000" stroke-dasharray="1,5" points="166,-70 166,-206 314,-206 314,-70 166,-70"/>
</g>
<g id="clust9" class="cluster">
<title>cluster_AdPagePageModule_declarations</title>
<polygon fill="none" stroke="#000000" points="188,-78 188,-130 292,-130 292,-78 188,-78"/>
</g>
<g id="clust15" class="cluster">
<title>cluster_AppModule</title>
<polygon fill="none" stroke="#000000" stroke-dasharray="1,5" points="322,-146 322,-344 999,-344 999,-146 322,-146"/>
</g>
<g id="clust16" class="cluster">
<title>cluster_AppModule_declarations</title>
<polygon fill="none" stroke="#000000" points="869,-154 869,-206 991,-206 991,-154 869,-154"/>
</g>
<g id="clust18" class="cluster">
<title>cluster_AppModule_imports</title>
<polygon fill="none" stroke="#000000" points="330,-154 330,-206 861,-206 861,-154 330,-154"/>
</g>
<g id="clust20" class="cluster">
<title>cluster_AppModule_bootstrap</title>
<polygon fill="none" stroke="#000000" points="639,-284 639,-336 763,-336 763,-284 639,-284"/>
</g>
<g id="clust28" class="cluster">
<title>cluster_BeforeStartPageModule</title>
<polygon fill="none" stroke="#000000" stroke-dasharray="1,5" points="1007,-70 1007,-206 1175,-206 1175,-70 1007,-70"/>
</g>
<g id="clust29" class="cluster">
<title>cluster_BeforeStartPageModule_declarations</title>
<polygon fill="none" stroke="#000000" points="1029,-78 1029,-130 1153,-130 1153,-78 1029,-78"/>
</g>
<g id="clust35" class="cluster">
<title>cluster_CatInfoModalPageModule</title>
<polygon fill="none" stroke="#000000" stroke-dasharray="1,5" points="344,-70 344,-138 498,-138 498,-70 344,-70"/>
</g>
<g id="clust36" class="cluster">
<title>cluster_CatInfoModalPageModule_declarations</title>
<polygon fill="none" stroke="#000000" points="352,-78 352,-130 490,-130 490,-78 352,-78"/>
</g>
<g id="clust42" class="cluster">
<title>cluster_ChallengePageModule</title>
<polygon fill="none" stroke="#000000" stroke-dasharray="1,5" points="1183,-70 1183,-206 1343,-206 1343,-70 1183,-70"/>
</g>
<g id="clust43" class="cluster">
<title>cluster_ChallengePageModule_declarations</title>
<polygon fill="none" stroke="#000000" points="1205,-78 1205,-130 1321,-130 1321,-78 1205,-78"/>
</g>
<g id="clust49" class="cluster">
<title>cluster_EditProfileModalPageModule</title>
<polygon fill="none" stroke="#000000" stroke-dasharray="1,5" points="527,-70 527,-138 701,-138 701,-70 527,-70"/>
</g>
<g id="clust50" class="cluster">
<title>cluster_EditProfileModalPageModule_declarations</title>
<polygon fill="none" stroke="#000000" points="535,-78 535,-130 693,-130 693,-78 535,-78"/>
</g>
<g id="clust56" class="cluster">
<title>cluster_LoginPageModule</title>
<polygon fill="none" stroke="#000000" stroke-dasharray="1,5" points="1351,-70 1351,-206 1487,-206 1487,-70 1351,-70"/>
</g>
<g id="clust57" class="cluster">
<title>cluster_LoginPageModule_declarations</title>
<polygon fill="none" stroke="#000000" points="1373,-78 1373,-130 1465,-130 1465,-78 1373,-78"/>
</g>
<g id="clust63" class="cluster">
<title>cluster_SignUpPageModule</title>
<polygon fill="none" stroke="#000000" stroke-dasharray="1,5" points="1495,-70 1495,-206 1641,-206 1641,-70 1495,-70"/>
</g>
<g id="clust64" class="cluster">
<title>cluster_SignUpPageModule_declarations</title>
<polygon fill="none" stroke="#000000" points="1517,-78 1517,-130 1619,-130 1619,-78 1517,-78"/>
</g>
<g id="clust70" class="cluster">
<title>cluster_Tab1PageModule</title>
<polygon fill="none" stroke="#000000" stroke-dasharray="1,5" points="1649,-70 1649,-206 1781,-206 1781,-70 1649,-70"/>
</g>
<g id="clust71" class="cluster">
<title>cluster_Tab1PageModule_declarations</title>
<polygon fill="none" stroke="#000000" points="1671,-78 1671,-130 1759,-130 1759,-78 1671,-78"/>
</g>
<g id="clust77" class="cluster">
<title>cluster_Tab2PageModule</title>
<polygon fill="none" stroke="#000000" stroke-dasharray="1,5" points="1789,-70 1789,-206 1921,-206 1921,-70 1789,-70"/>
</g>
<g id="clust78" class="cluster">
<title>cluster_Tab2PageModule_declarations</title>
<polygon fill="none" stroke="#000000" points="1811,-78 1811,-130 1899,-130 1899,-78 1811,-78"/>
</g>
<g id="clust84" class="cluster">
<title>cluster_Tab3PageModule</title>
<polygon fill="none" stroke="#000000" stroke-dasharray="1,5" points="1929,-70 1929,-206 2061,-206 2061,-70 1929,-70"/>
</g>
<g id="clust85" class="cluster">
<title>cluster_Tab3PageModule_declarations</title>
<polygon fill="none" stroke="#000000" points="1951,-78 1951,-130 2039,-130 2039,-78 1951,-78"/>
</g>
<g id="clust91" class="cluster">
<title>cluster_TabsPageModule</title>
<polygon fill="none" stroke="#000000" stroke-dasharray="1,5" points="2069,-70 2069,-206 2355,-206 2355,-70 2069,-70"/>
</g>
<g id="clust92" class="cluster">
<title>cluster_TabsPageModule_declarations</title>
<polygon fill="none" stroke="#000000" points="2261,-78 2261,-130 2347,-130 2347,-78 2261,-78"/>
</g>
<g id="clust94" class="cluster">
<title>cluster_TabsPageModule_imports</title>
<polygon fill="none" stroke="#000000" points="2077,-78 2077,-130 2253,-130 2253,-78 2077,-78"/>
</g>
<g id="clust104" class="cluster">
<title>cluster_TestResultPageModule</title>
<polygon fill="none" stroke="#000000" stroke-dasharray="1,5" points="2363,-70 2363,-206 2525,-206 2525,-70 2363,-70"/>
</g>
<g id="clust105" class="cluster">
<title>cluster_TestResultPageModule_declarations</title>
<polygon fill="none" stroke="#000000" points="2384,-78 2384,-130 2504,-130 2504,-78 2384,-78"/>
</g>
<g id="clust111" class="cluster">
<title>cluster_TestRoomPageModule</title>
<polygon fill="none" stroke="#000000" stroke-dasharray="1,5" points="2533,-70 2533,-206 2695,-206 2695,-70 2533,-70"/>
</g>
<g id="clust112" class="cluster">
<title>cluster_TestRoomPageModule_declarations</title>
<polygon fill="none" stroke="#000000" points="2555,-78 2555,-130 2673,-130 2673,-78 2555,-78"/>
</g>
<g id="clust118" class="cluster">
<title>cluster_TrainingPageModule</title>
<polygon fill="none" stroke="#000000" stroke-dasharray="1,5" points="2703,-70 2703,-206 2853,-206 2853,-70 2703,-70"/>
</g>
<g id="clust119" class="cluster">
<title>cluster_TrainingPageModule_declarations</title>
<polygon fill="none" stroke="#000000" points="2724,-78 2724,-130 2832,-130 2832,-78 2724,-78"/>
</g>
<g id="clust125" class="cluster">
<title>cluster_VerifyEmailPageModule</title>
<polygon fill="none" stroke="#000000" stroke-dasharray="1,5" points="2861,-70 2861,-206 3033,-206 3033,-70 2861,-70"/>
</g>
<g id="clust126" class="cluster">
<title>cluster_VerifyEmailPageModule_declarations</title>
<polygon fill="none" stroke="#000000" points="2882,-78 2882,-130 3012,-130 3012,-78 2882,-78"/>
</g>
<g id="clust132" class="cluster">
<title>cluster_WelcomePageModule</title>
<polygon fill="none" stroke="#000000" stroke-dasharray="1,5" points="3041,-70 3041,-206 3197,-206 3197,-70 3041,-70"/>
</g>
<g id="clust133" class="cluster">
<title>cluster_WelcomePageModule_declarations</title>
<polygon fill="none" stroke="#000000" points="3063,-78 3063,-130 3175,-130 3175,-78 3063,-78"/>
</g>
<!-- AccountPage -->
<g id="node1" class="node">
<title>AccountPage</title>
<polygon fill="#ffffb3" stroke="#000000" points="128.1389,-122 37.8611,-122 37.8611,-86 128.1389,-86 128.1389,-122"/>
<text text-anchor="middle" x="83" y="-99.8" font-family="Times,serif" font-size="14.00" fill="#000000">AccountPage</text>
</g>
<!-- AccountPageModule -->
<g id="node2" class="node">
<title>AccountPageModule</title>
<polygon fill="#8dd3c7" stroke="#000000" points="150.1881,-198 147.1881,-202 126.1881,-202 123.1881,-198 15.8119,-198 15.8119,-162 150.1881,-162 150.1881,-198"/>
<text text-anchor="middle" x="83" y="-175.8" font-family="Times,serif" font-size="14.00" fill="#000000">AccountPageModule</text>
</g>
<!-- AccountPage&#45;&gt;AccountPageModule -->
<g id="edge1" class="edge">
<title>AccountPage&#45;&gt;AccountPageModule</title>
<path fill="none" stroke="#000000" d="M83,-122.0109C83,-122.0109 83,-151.855 83,-151.855"/>
<polygon fill="#000000" stroke="#000000" points="79.5001,-151.8549 83,-161.855 86.5001,-151.855 79.5001,-151.8549"/>
</g>
<!-- AdPagePage -->
<g id="node3" class="node">
<title>AdPagePage</title>
<polygon fill="#ffffb3" stroke="#000000" points="283.5315,-122 196.4685,-122 196.4685,-86 283.5315,-86 283.5315,-122"/>
<text text-anchor="middle" x="240" y="-99.8" font-family="Times,serif" font-size="14.00" fill="#000000">AdPagePage</text>
</g>
<!-- AdPagePageModule -->
<g id="node4" class="node">
<title>AdPagePageModule</title>
<polygon fill="#8dd3c7" stroke="#000000" points="305.58,-198 302.58,-202 281.58,-202 278.58,-198 174.42,-198 174.42,-162 305.58,-162 305.58,-198"/>
<text text-anchor="middle" x="240" y="-175.8" font-family="Times,serif" font-size="14.00" fill="#000000">AdPagePageModule</text>
</g>
<!-- AdPagePage&#45;&gt;AdPagePageModule -->
<g id="edge2" class="edge">
<title>AdPagePage&#45;&gt;AdPagePageModule</title>
<path fill="none" stroke="#000000" d="M240,-122.0109C240,-122.0109 240,-151.855 240,-151.855"/>
<polygon fill="#000000" stroke="#000000" points="236.5001,-151.8549 240,-161.855 243.5001,-151.855 236.5001,-151.8549"/>
</g>
<!-- AppComponent -->
<g id="node5" class="node">
<title>AppComponent</title>
<polygon fill="#ffffb3" stroke="#000000" points="982.9399,-198 877.0601,-198 877.0601,-162 982.9399,-162 982.9399,-198"/>
<text text-anchor="middle" x="930" y="-175.8" font-family="Times,serif" font-size="14.00" fill="#000000">AppComponent</text>
</g>
<!-- AppModule -->
<g id="node6" class="node">
<title>AppModule</title>
<polygon fill="#8dd3c7" stroke="#000000" points="742.6571,-263 739.6571,-267 718.6571,-267 715.6571,-263 659.3429,-263 659.3429,-227 742.6571,-227 742.6571,-263"/>
<text text-anchor="middle" x="701" y="-240.8" font-family="Times,serif" font-size="14.00" fill="#000000">AppModule</text>
</g>
<!-- AppComponent&#45;&gt;AppModule -->
<g id="edge3" class="edge">
<title>AppComponent&#45;&gt;AppModule</title>
<path fill="none" stroke="#000000" d="M930,-198.1061C930,-217.3391 930,-245 930,-245 930,-245 752.7359,-245 752.7359,-245"/>
<polygon fill="#000000" stroke="#000000" points="752.7359,-241.5001 742.7359,-245 752.7358,-248.5001 752.7359,-241.5001"/>
</g>
<!-- AppComponent  -->
<g id="node10" class="node">
<title>AppComponent </title>
<polygon fill="#80b1d3" stroke="#000000" points="755.439,-328 646.561,-328 646.561,-292 755.439,-292 755.439,-328"/>
<text text-anchor="middle" x="701" y="-305.8" font-family="Times,serif" font-size="14.00" fill="#000000">AppComponent </text>
</g>
<!-- AppModule&#45;&gt;AppComponent  -->
<g id="edge7" class="edge">
<title>AppModule&#45;&gt;AppComponent </title>
<path fill="none" stroke="#000000" stroke-dasharray="1,5" d="M701,-263.1061C701,-263.1061 701,-281.991 701,-281.991"/>
<polygon fill="#000000" stroke="#000000" points="697.5001,-281.9909 701,-291.991 704.5001,-281.991 697.5001,-281.9909"/>
</g>
<!-- AppRoutingModule -->
<g id="node7" class="node">
<title>AppRoutingModule</title>
<polygon fill="#8dd3c7" stroke="#000000" points="853.2744,-198 850.2744,-202 829.2744,-202 826.2744,-198 724.7256,-198 724.7256,-162 853.2744,-162 853.2744,-198"/>
<text text-anchor="middle" x="789" y="-175.8" font-family="Times,serif" font-size="14.00" fill="#000000">AppRoutingModule</text>
</g>
<!-- AppRoutingModule&#45;&gt;AppModule -->
<g id="edge4" class="edge">
<title>AppRoutingModule&#45;&gt;AppModule</title>
<path fill="none" stroke="#000000" d="M733.7206,-198.1061C733.7206,-198.1061 733.7206,-216.991 733.7206,-216.991"/>
<polygon fill="#000000" stroke="#000000" points="730.2206,-216.9909 733.7206,-226.991 737.2206,-216.991 730.2206,-216.9909"/>
</g>
<!-- CatInfoModalPageModule -->
<g id="node8" class="node">
<title>CatInfoModalPageModule</title>
<polygon fill="#8dd3c7" stroke="#000000" points="504.0744,-198 501.0744,-202 480.0744,-202 477.0744,-198 337.9256,-198 337.9256,-162 504.0744,-162 504.0744,-198"/>
<text text-anchor="middle" x="421" y="-175.8" font-family="Times,serif" font-size="14.00" fill="#000000">CatInfoModalPageModule</text>
</g>
<!-- CatInfoModalPageModule&#45;&gt;AppModule -->
<g id="edge5" class="edge">
<title>CatInfoModalPageModule&#45;&gt;AppModule</title>
<path fill="none" stroke="#000000" d="M421,-198.1061C421,-217.3391 421,-245 421,-245 421,-245 649.0812,-245 649.0812,-245"/>
<polygon fill="#000000" stroke="#000000" points="649.0812,-248.5001 659.0812,-245 649.0811,-241.5001 649.0812,-248.5001"/>
</g>
<!-- EditProfileModalPageModule -->
<g id="node9" class="node">
<title>EditProfileModalPageModule</title>
<polygon fill="#8dd3c7" stroke="#000000" points="706.245,-198 703.245,-202 682.245,-202 679.245,-198 521.755,-198 521.755,-162 706.245,-162 706.245,-198"/>
<text text-anchor="middle" x="614" y="-175.8" font-family="Times,serif" font-size="14.00" fill="#000000">EditProfileModalPageModule</text>
</g>
<!-- EditProfileModalPageModule&#45;&gt;AppModule -->
<g id="edge6" class="edge">
<title>EditProfileModalPageModule&#45;&gt;AppModule</title>
<path fill="none" stroke="#000000" d="M682.7721,-198.1061C682.7721,-198.1061 682.7721,-216.991 682.7721,-216.991"/>
<polygon fill="#000000" stroke="#000000" points="679.2722,-216.9909 682.7721,-226.991 686.2722,-216.991 679.2722,-216.9909"/>
</g>
<!-- BeforeStartPage -->
<g id="node11" class="node">
<title>BeforeStartPage</title>
<polygon fill="#ffffb3" stroke="#000000" points="1144.7381,-122 1037.2619,-122 1037.2619,-86 1144.7381,-86 1144.7381,-122"/>
<text text-anchor="middle" x="1091" y="-99.8" font-family="Times,serif" font-size="14.00" fill="#000000">BeforeStartPage</text>
</g>
<!-- BeforeStartPageModule -->
<g id="node12" class="node">
<title>BeforeStartPageModule</title>
<polygon fill="#8dd3c7" stroke="#000000" points="1166.7879,-198 1163.7879,-202 1142.7879,-202 1139.7879,-198 1015.2121,-198 1015.2121,-162 1166.7879,-162 1166.7879,-198"/>
<text text-anchor="middle" x="1091" y="-175.8" font-family="Times,serif" font-size="14.00" fill="#000000">BeforeStartPageModule</text>
</g>
<!-- BeforeStartPage&#45;&gt;BeforeStartPageModule -->
<g id="edge8" class="edge">
<title>BeforeStartPage&#45;&gt;BeforeStartPageModule</title>
<path fill="none" stroke="#000000" d="M1091,-122.0109C1091,-122.0109 1091,-151.855 1091,-151.855"/>
<polygon fill="#000000" stroke="#000000" points="1087.5001,-151.8549 1091,-161.855 1094.5001,-151.855 1087.5001,-151.8549"/>
</g>
<!-- CatInfoModalPage -->
<g id="node13" class="node">
<title>CatInfoModalPage</title>
<polygon fill="#ffffb3" stroke="#000000" points="482.0255,-122 359.9745,-122 359.9745,-86 482.0255,-86 482.0255,-122"/>
<text text-anchor="middle" x="421" y="-99.8" font-family="Times,serif" font-size="14.00" fill="#000000">CatInfoModalPage</text>
</g>
<!-- CatInfoModalPage&#45;&gt;CatInfoModalPageModule -->
<g id="edge9" class="edge">
<title>CatInfoModalPage&#45;&gt;CatInfoModalPageModule</title>
<path fill="none" stroke="#000000" d="M421,-122.0109C421,-122.0109 421,-151.855 421,-151.855"/>
<polygon fill="#000000" stroke="#000000" points="417.5001,-151.8549 421,-161.855 424.5001,-151.855 417.5001,-151.8549"/>
</g>
<!-- ChallengePage -->
<g id="node14" class="node">
<title>ChallengePage</title>
<polygon fill="#ffffb3" stroke="#000000" points="1312.9734,-122 1213.0266,-122 1213.0266,-86 1312.9734,-86 1312.9734,-122"/>
<text text-anchor="middle" x="1263" y="-99.8" font-family="Times,serif" font-size="14.00" fill="#000000">ChallengePage</text>
</g>
<!-- ChallengePageModule -->
<g id="node15" class="node">
<title>ChallengePageModule</title>
<polygon fill="#8dd3c7" stroke="#000000" points="1334.524,-198 1331.524,-202 1310.524,-202 1307.524,-198 1191.476,-198 1191.476,-162 1334.524,-162 1334.524,-198"/>
<text text-anchor="middle" x="1263" y="-175.8" font-family="Times,serif" font-size="14.00" fill="#000000">ChallengePageModule</text>
</g>
<!-- ChallengePage&#45;&gt;ChallengePageModule -->
<g id="edge10" class="edge">
<title>ChallengePage&#45;&gt;ChallengePageModule</title>
<path fill="none" stroke="#000000" d="M1263,-122.0109C1263,-122.0109 1263,-151.855 1263,-151.855"/>
<polygon fill="#000000" stroke="#000000" points="1259.5001,-151.8549 1263,-161.855 1266.5001,-151.855 1259.5001,-151.8549"/>
</g>
<!-- EditProfileModalPage -->
<g id="node16" class="node">
<title>EditProfileModalPage</title>
<polygon fill="#ffffb3" stroke="#000000" points="684.6951,-122 543.3049,-122 543.3049,-86 684.6951,-86 684.6951,-122"/>
<text text-anchor="middle" x="614" y="-99.8" font-family="Times,serif" font-size="14.00" fill="#000000">EditProfileModalPage</text>
</g>
<!-- EditProfileModalPage&#45;&gt;EditProfileModalPageModule -->
<g id="edge11" class="edge">
<title>EditProfileModalPage&#45;&gt;EditProfileModalPageModule</title>
<path fill="none" stroke="#000000" d="M614,-122.0109C614,-122.0109 614,-151.855 614,-151.855"/>
<polygon fill="#000000" stroke="#000000" points="610.5001,-151.8549 614,-161.855 617.5001,-151.855 610.5001,-151.8549"/>
</g>
<!-- LoginPage -->
<g id="node17" class="node">
<title>LoginPage</title>
<polygon fill="#ffffb3" stroke="#000000" points="1457.1558,-122 1380.8442,-122 1380.8442,-86 1457.1558,-86 1457.1558,-122"/>
<text text-anchor="middle" x="1419" y="-99.8" font-family="Times,serif" font-size="14.00" fill="#000000">LoginPage</text>
</g>
<!-- LoginPageModule -->
<g id="node18" class="node">
<title>LoginPageModule</title>
<polygon fill="#8dd3c7" stroke="#000000" points="1479.205,-198 1476.205,-202 1455.205,-202 1452.205,-198 1358.795,-198 1358.795,-162 1479.205,-162 1479.205,-198"/>
<text text-anchor="middle" x="1419" y="-175.8" font-family="Times,serif" font-size="14.00" fill="#000000">LoginPageModule</text>
</g>
<!-- LoginPage&#45;&gt;LoginPageModule -->
<g id="edge12" class="edge">
<title>LoginPage&#45;&gt;LoginPageModule</title>
<path fill="none" stroke="#000000" d="M1419,-122.0109C1419,-122.0109 1419,-151.855 1419,-151.855"/>
<polygon fill="#000000" stroke="#000000" points="1415.5001,-151.8549 1419,-161.855 1422.5001,-151.855 1415.5001,-151.8549"/>
</g>
<!-- SignUpPage -->
<g id="node19" class="node">
<title>SignUpPage</title>
<polygon fill="#ffffb3" stroke="#000000" points="1610.9916,-122 1525.0084,-122 1525.0084,-86 1610.9916,-86 1610.9916,-122"/>
<text text-anchor="middle" x="1568" y="-99.8" font-family="Times,serif" font-size="14.00" fill="#000000">SignUpPage</text>
</g>
<!-- SignUpPageModule -->
<g id="node20" class="node">
<title>SignUpPageModule</title>
<polygon fill="#8dd3c7" stroke="#000000" points="1632.5422,-198 1629.5422,-202 1608.5422,-202 1605.5422,-198 1503.4578,-198 1503.4578,-162 1632.5422,-162 1632.5422,-198"/>
<text text-anchor="middle" x="1568" y="-175.8" font-family="Times,serif" font-size="14.00" fill="#000000">SignUpPageModule</text>
</g>
<!-- SignUpPage&#45;&gt;SignUpPageModule -->
<g id="edge13" class="edge">
<title>SignUpPage&#45;&gt;SignUpPageModule</title>
<path fill="none" stroke="#000000" d="M1568,-122.0109C1568,-122.0109 1568,-151.855 1568,-151.855"/>
<polygon fill="#000000" stroke="#000000" points="1564.5001,-151.8549 1568,-161.855 1571.5001,-151.855 1564.5001,-151.8549"/>
</g>
<!-- Tab1Page -->
<g id="node21" class="node">
<title>Tab1Page</title>
<polygon fill="#ffffb3" stroke="#000000" points="1750.979,-122 1679.021,-122 1679.021,-86 1750.979,-86 1750.979,-122"/>
<text text-anchor="middle" x="1715" y="-99.8" font-family="Times,serif" font-size="14.00" fill="#000000">Tab1Page</text>
</g>
<!-- Tab1PageModule -->
<g id="node22" class="node">
<title>Tab1PageModule</title>
<polygon fill="#8dd3c7" stroke="#000000" points="1772.5298,-198 1769.5298,-202 1748.5298,-202 1745.5298,-198 1657.4702,-198 1657.4702,-162 1772.5298,-162 1772.5298,-198"/>
<text text-anchor="middle" x="1715" y="-175.8" font-family="Times,serif" font-size="14.00" fill="#000000">Tab1PageModule</text>
</g>
<!-- Tab1Page&#45;&gt;Tab1PageModule -->
<g id="edge14" class="edge">
<title>Tab1Page&#45;&gt;Tab1PageModule</title>
<path fill="none" stroke="#000000" d="M1715,-122.0109C1715,-122.0109 1715,-151.855 1715,-151.855"/>
<polygon fill="#000000" stroke="#000000" points="1711.5001,-151.8549 1715,-161.855 1718.5001,-151.855 1711.5001,-151.8549"/>
</g>
<!-- Tab2Page -->
<g id="node23" class="node">
<title>Tab2Page</title>
<polygon fill="#ffffb3" stroke="#000000" points="1890.979,-122 1819.021,-122 1819.021,-86 1890.979,-86 1890.979,-122"/>
<text text-anchor="middle" x="1855" y="-99.8" font-family="Times,serif" font-size="14.00" fill="#000000">Tab2Page</text>
</g>
<!-- Tab2PageModule -->
<g id="node24" class="node">
<title>Tab2PageModule</title>
<polygon fill="#8dd3c7" stroke="#000000" points="1912.5298,-198 1909.5298,-202 1888.5298,-202 1885.5298,-198 1797.4702,-198 1797.4702,-162 1912.5298,-162 1912.5298,-198"/>
<text text-anchor="middle" x="1855" y="-175.8" font-family="Times,serif" font-size="14.00" fill="#000000">Tab2PageModule</text>
</g>
<!-- Tab2Page&#45;&gt;Tab2PageModule -->
<g id="edge15" class="edge">
<title>Tab2Page&#45;&gt;Tab2PageModule</title>
<path fill="none" stroke="#000000" d="M1855,-122.0109C1855,-122.0109 1855,-151.855 1855,-151.855"/>
<polygon fill="#000000" stroke="#000000" points="1851.5001,-151.8549 1855,-161.855 1858.5001,-151.855 1851.5001,-151.8549"/>
</g>
<!-- Tab3Page -->
<g id="node25" class="node">
<title>Tab3Page</title>
<polygon fill="#ffffb3" stroke="#000000" points="2030.979,-122 1959.021,-122 1959.021,-86 2030.979,-86 2030.979,-122"/>
<text text-anchor="middle" x="1995" y="-99.8" font-family="Times,serif" font-size="14.00" fill="#000000">Tab3Page</text>
</g>
<!-- Tab3PageModule -->
<g id="node26" class="node">
<title>Tab3PageModule</title>
<polygon fill="#8dd3c7" stroke="#000000" points="2052.5298,-198 2049.5298,-202 2028.5298,-202 2025.5298,-198 1937.4702,-198 1937.4702,-162 2052.5298,-162 2052.5298,-198"/>
<text text-anchor="middle" x="1995" y="-175.8" font-family="Times,serif" font-size="14.00" fill="#000000">Tab3PageModule</text>
</g>
<!-- Tab3Page&#45;&gt;Tab3PageModule -->
<g id="edge16" class="edge">
<title>Tab3Page&#45;&gt;Tab3PageModule</title>
<path fill="none" stroke="#000000" d="M1995,-122.0109C1995,-122.0109 1995,-151.855 1995,-151.855"/>
<polygon fill="#000000" stroke="#000000" points="1991.5001,-151.8549 1995,-161.855 1998.5001,-151.855 1991.5001,-151.8549"/>
</g>
<!-- TabsPage -->
<g id="node27" class="node">
<title>TabsPage</title>
<polygon fill="#ffffb3" stroke="#000000" points="2339.4249,-122 2268.5751,-122 2268.5751,-86 2339.4249,-86 2339.4249,-122"/>
<text text-anchor="middle" x="2304" y="-99.8" font-family="Times,serif" font-size="14.00" fill="#000000">TabsPage</text>
</g>
<!-- TabsPageModule -->
<g id="node28" class="node">
<title>TabsPageModule</title>
<polygon fill="#8dd3c7" stroke="#000000" points="2283.9734,-198 2280.9734,-202 2259.9734,-202 2256.9734,-198 2170.0266,-198 2170.0266,-162 2283.9734,-162 2283.9734,-198"/>
<text text-anchor="middle" x="2227" y="-175.8" font-family="Times,serif" font-size="14.00" fill="#000000">TabsPageModule</text>
</g>
<!-- TabsPage&#45;&gt;TabsPageModule -->
<g id="edge17" class="edge">
<title>TabsPage&#45;&gt;TabsPageModule</title>
<path fill="none" stroke="#000000" d="M2276.3875,-122.0109C2276.3875,-122.0109 2276.3875,-151.855 2276.3875,-151.855"/>
<polygon fill="#000000" stroke="#000000" points="2272.8875,-151.8549 2276.3875,-161.855 2279.8875,-151.855 2272.8875,-151.8549"/>
</g>
<!-- TabsPageRoutingModule -->
<g id="node29" class="node">
<title>TabsPageRoutingModule</title>
<polygon fill="#8dd3c7" stroke="#000000" points="2244.5912,-122 2241.5912,-126 2220.5912,-126 2217.5912,-122 2085.4088,-122 2085.4088,-86 2244.5912,-86 2244.5912,-122"/>
<text text-anchor="middle" x="2165" y="-99.8" font-family="Times,serif" font-size="14.00" fill="#000000">TabsPageRoutingModule</text>
</g>
<!-- TabsPageRoutingModule&#45;&gt;TabsPageModule -->
<g id="edge18" class="edge">
<title>TabsPageRoutingModule&#45;&gt;TabsPageModule</title>
<path fill="none" stroke="#000000" d="M2207.2795,-122.0109C2207.2795,-122.0109 2207.2795,-151.855 2207.2795,-151.855"/>
<polygon fill="#000000" stroke="#000000" points="2203.7795,-151.8549 2207.2795,-161.855 2210.7795,-151.855 2203.7795,-151.8549"/>
</g>
<!-- TestResultPage -->
<g id="node30" class="node">
<title>TestResultPage</title>
<polygon fill="#ffffb3" stroke="#000000" points="2495.5912,-122 2392.4088,-122 2392.4088,-86 2495.5912,-86 2495.5912,-122"/>
<text text-anchor="middle" x="2444" y="-99.8" font-family="Times,serif" font-size="14.00" fill="#000000">TestResultPage</text>
</g>
<!-- TestResultPageModule -->
<g id="node31" class="node">
<title>TestResultPageModule</title>
<polygon fill="#8dd3c7" stroke="#000000" points="2517.1414,-198 2514.1414,-202 2493.1414,-202 2490.1414,-198 2370.8586,-198 2370.8586,-162 2517.1414,-162 2517.1414,-198"/>
<text text-anchor="middle" x="2444" y="-175.8" font-family="Times,serif" font-size="14.00" fill="#000000">TestResultPageModule</text>
</g>
<!-- TestResultPage&#45;&gt;TestResultPageModule -->
<g id="edge19" class="edge">
<title>TestResultPage&#45;&gt;TestResultPageModule</title>
<path fill="none" stroke="#000000" d="M2444,-122.0109C2444,-122.0109 2444,-151.855 2444,-151.855"/>
<polygon fill="#000000" stroke="#000000" points="2440.5001,-151.8549 2444,-161.855 2447.5001,-151.855 2440.5001,-151.8549"/>
</g>
<!-- TestRoomPage -->
<g id="node32" class="node">
<title>TestRoomPage</title>
<polygon fill="#ffffb3" stroke="#000000" points="2664.5424,-122 2563.4576,-122 2563.4576,-86 2664.5424,-86 2664.5424,-122"/>
<text text-anchor="middle" x="2614" y="-99.8" font-family="Times,serif" font-size="14.00" fill="#000000">TestRoomPage</text>
</g>
<!-- TestRoomPageModule -->
<g id="node33" class="node">
<title>TestRoomPageModule</title>
<polygon fill="#8dd3c7" stroke="#000000" points="2686.5912,-198 2683.5912,-202 2662.5912,-202 2659.5912,-198 2541.4088,-198 2541.4088,-162 2686.5912,-162 2686.5912,-198"/>
<text text-anchor="middle" x="2614" y="-175.8" font-family="Times,serif" font-size="14.00" fill="#000000">TestRoomPageModule</text>
</g>
<!-- TestRoomPage&#45;&gt;TestRoomPageModule -->
<g id="edge20" class="edge">
<title>TestRoomPage&#45;&gt;TestRoomPageModule</title>
<path fill="none" stroke="#000000" d="M2614,-122.0109C2614,-122.0109 2614,-151.855 2614,-151.855"/>
<polygon fill="#000000" stroke="#000000" points="2610.5001,-151.8549 2614,-161.855 2617.5001,-151.855 2610.5001,-151.8549"/>
</g>
<!-- TrainingPage -->
<g id="node34" class="node">
<title>TrainingPage</title>
<polygon fill="#ffffb3" stroke="#000000" points="2823.9218,-122 2732.0782,-122 2732.0782,-86 2823.9218,-86 2823.9218,-122"/>
<text text-anchor="middle" x="2778" y="-99.8" font-family="Times,serif" font-size="14.00" fill="#000000">TrainingPage</text>
</g>
<!-- TrainingPageModule -->
<g id="node35" class="node">
<title>TrainingPageModule</title>
<polygon fill="#8dd3c7" stroke="#000000" points="2845.4706,-198 2842.4706,-202 2821.4706,-202 2818.4706,-198 2710.5294,-198 2710.5294,-162 2845.4706,-162 2845.4706,-198"/>
<text text-anchor="middle" x="2778" y="-175.8" font-family="Times,serif" font-size="14.00" fill="#000000">TrainingPageModule</text>
</g>
<!-- TrainingPage&#45;&gt;TrainingPageModule -->
<g id="edge21" class="edge">
<title>TrainingPage&#45;&gt;TrainingPageModule</title>
<path fill="none" stroke="#000000" d="M2778,-122.0109C2778,-122.0109 2778,-151.855 2778,-151.855"/>
<polygon fill="#000000" stroke="#000000" points="2774.5001,-151.8549 2778,-161.855 2781.5001,-151.855 2774.5001,-151.8549"/>
</g>
<!-- VerifyEmailPage -->
<g id="node36" class="node">
<title>VerifyEmailPage</title>
<polygon fill="#ffffb3" stroke="#000000" points="3003.6839,-122 2890.3161,-122 2890.3161,-86 3003.6839,-86 3003.6839,-122"/>
<text text-anchor="middle" x="2947" y="-99.8" font-family="Times,serif" font-size="14.00" fill="#000000">VerifyEmailPage</text>
</g>
<!-- VerifyEmailPageModule -->
<g id="node37" class="node">
<title>VerifyEmailPageModule</title>
<polygon fill="#8dd3c7" stroke="#000000" points="3025.2338,-198 3022.2338,-202 3001.2338,-202 2998.2338,-198 2868.7662,-198 2868.7662,-162 3025.2338,-162 3025.2338,-198"/>
<text text-anchor="middle" x="2947" y="-175.8" font-family="Times,serif" font-size="14.00" fill="#000000">VerifyEmailPageModule</text>
</g>
<!-- VerifyEmailPage&#45;&gt;VerifyEmailPageModule -->
<g id="edge22" class="edge">
<title>VerifyEmailPage&#45;&gt;VerifyEmailPageModule</title>
<path fill="none" stroke="#000000" d="M2947,-122.0109C2947,-122.0109 2947,-151.855 2947,-151.855"/>
<polygon fill="#000000" stroke="#000000" points="2943.5001,-151.8549 2947,-161.855 2950.5001,-151.855 2943.5001,-151.8549"/>
</g>
<!-- WelcomePage -->
<g id="node38" class="node">
<title>WelcomePage</title>
<polygon fill="#ffffb3" stroke="#000000" points="3167.3515,-122 3070.6485,-122 3070.6485,-86 3167.3515,-86 3167.3515,-122"/>
<text text-anchor="middle" x="3119" y="-99.8" font-family="Times,serif" font-size="14.00" fill="#000000">WelcomePage</text>
</g>
<!-- WelcomePageModule -->
<g id="node39" class="node">
<title>WelcomePageModule</title>
<polygon fill="#8dd3c7" stroke="#000000" points="3189.4018,-198 3186.4018,-202 3165.4018,-202 3162.4018,-198 3048.5982,-198 3048.5982,-162 3189.4018,-162 3189.4018,-198"/>
<text text-anchor="middle" x="3119" y="-175.8" font-family="Times,serif" font-size="14.00" fill="#000000">WelcomePageModule</text>
</g>
<!-- WelcomePage&#45;&gt;WelcomePageModule -->
<g id="edge23" class="edge">
<title>WelcomePage&#45;&gt;WelcomePageModule</title>
<path fill="none" stroke="#000000" d="M3119,-122.0109C3119,-122.0109 3119,-151.855 3119,-151.855"/>
<polygon fill="#000000" stroke="#000000" points="3115.5001,-151.8549 3119,-161.855 3122.5001,-151.855 3115.5001,-151.8549"/>
</g>
</g>
</svg>
