<?xml version="1.0" encoding="UTF-8" standalone="no"?>
<!DOCTYPE svg PUBLIC "-//W3C//DTD SVG 1.1//EN"
 "http://www.w3.org/Graphics/SVG/1.1/DTD/svg11.dtd">
<!-- Generated by graphviz version 2.40.1 (20161225.0304)
 -->
<!-- Title: dependencies Pages: 1 -->
<svg width="2541pt" height="360pt"
 viewBox="0.00 0.00 2541.00 360.00" xmlns="http://www.w3.org/2000/svg" xmlns:xlink="http://www.w3.org/1999/xlink">
<g id="graph0" class="graph" transform="scale(1 1) rotate(0) translate(4 356)">
<title>dependencies</title>
<polygon fill="#ffffff" stroke="transparent" points="-4,4 -4,-356 2537,-356 2537,4 -4,4"/>
<text text-anchor="start" x="1245.5091" y="-42.4" font-family="sans-serif" font-weight="bold" font-size="14.00" fill="#000000">Legend</text>
<polygon fill="#ffffb3" stroke="transparent" points="1032.5,-10 1032.5,-30 1052.5,-30 1052.5,-10 1032.5,-10"/>
<text text-anchor="start" x="1056.129" y="-15.4" font-family="sans-serif" font-size="14.00" fill="#000000"> &#160;Declarations</text>
<polygon fill="#8dd3c7" stroke="transparent" points="1145.5,-10 1145.5,-30 1165.5,-30 1165.5,-10 1145.5,-10"/>
<text text-anchor="start" x="1169.2251" y="-15.4" font-family="sans-serif" font-size="14.00" fill="#000000"> &#160;Module</text>
<polygon fill="#80b1d3" stroke="transparent" points="1231.5,-10 1231.5,-30 1251.5,-30 1251.5,-10 1231.5,-10"/>
<text text-anchor="start" x="1255.2812" y="-15.4" font-family="sans-serif" font-size="14.00" fill="#000000"> &#160;Bootstrap</text>
<polygon fill="#fdb462" stroke="transparent" points="1328.5,-10 1328.5,-30 1348.5,-30 1348.5,-10 1328.5,-10"/>
<text text-anchor="start" x="1352.1732" y="-15.4" font-family="sans-serif" font-size="14.00" fill="#000000"> &#160;Providers</text>
<polygon fill="#fb8072" stroke="transparent" points="1424.5,-10 1424.5,-30 1444.5,-30 1444.5,-10 1424.5,-10"/>
<text text-anchor="start" x="1448.2258" y="-15.4" font-family="sans-serif" font-size="14.00" fill="#000000"> &#160;Exports</text>
<g id="clust1" class="cluster">
<title>cluster_AccountPageModule</title>
<polygon fill="none" stroke="#000000" stroke-dasharray="1,5" points="8,-70 8,-206 158,-206 158,-70 8,-70"/>
</g>
<g id="clust2" class="cluster">
<title>cluster_AccountPageModule_declarations</title>
<polygon fill="none" stroke="#000000" points="30,-78 30,-130 136,-130 136,-78 30,-78"/>
</g>
<g id="clust8" class="cluster">
<title>cluster_AppModule</title>
<polygon fill="none" stroke="#000000" stroke-dasharray="1,5" points="166,-146 166,-344 659,-344 659,-146 166,-146"/>
</g>
<g id="clust9" class="cluster">
<title>cluster_AppModule_declarations</title>
<polygon fill="none" stroke="#000000" points="529,-154 529,-206 651,-206 651,-154 529,-154"/>
</g>
<g id="clust11" class="cluster">
<title>cluster_AppModule_imports</title>
<polygon fill="none" stroke="#000000" points="174,-154 174,-206 521,-206 521,-154 174,-154"/>
</g>
<g id="clust13" class="cluster">
<title>cluster_AppModule_bootstrap</title>
<polygon fill="none" stroke="#000000" points="387,-284 387,-336 511,-336 511,-284 387,-284"/>
</g>
<g id="clust21" class="cluster">
<title>cluster_BeforeStartPageModule</title>
<polygon fill="none" stroke="#000000" stroke-dasharray="1,5" points="667,-70 667,-206 835,-206 835,-70 667,-70"/>
</g>
<g id="clust22" class="cluster">
<title>cluster_BeforeStartPageModule_declarations</title>
<polygon fill="none" stroke="#000000" points="689,-78 689,-130 813,-130 813,-78 689,-78"/>
</g>
<g id="clust28" class="cluster">
<title>cluster_EditProfileModalPageModule</title>
<polygon fill="none" stroke="#000000" stroke-dasharray="1,5" points="187,-70 187,-138 361,-138 361,-70 187,-70"/>
</g>
<g id="clust29" class="cluster">
<title>cluster_EditProfileModalPageModule_declarations</title>
<polygon fill="none" stroke="#000000" points="195,-78 195,-130 353,-130 353,-78 195,-78"/>
</g>
<g id="clust35" class="cluster">
<title>cluster_LoginPageModule</title>
<polygon fill="none" stroke="#000000" stroke-dasharray="1,5" points="843,-70 843,-206 979,-206 979,-70 843,-70"/>
</g>
<g id="clust36" class="cluster">
<title>cluster_LoginPageModule_declarations</title>
<polygon fill="none" stroke="#000000" points="865,-78 865,-130 957,-130 957,-78 865,-78"/>
</g>
<g id="clust42" class="cluster">
<title>cluster_SignUpPageModule</title>
<polygon fill="none" stroke="#000000" stroke-dasharray="1,5" points="987,-70 987,-206 1133,-206 1133,-70 987,-70"/>
</g>
<g id="clust43" class="cluster">
<title>cluster_SignUpPageModule_declarations</title>
<polygon fill="none" stroke="#000000" points="1009,-78 1009,-130 1111,-130 1111,-78 1009,-78"/>
</g>
<g id="clust49" class="cluster">
<title>cluster_Tab1PageModule</title>
<polygon fill="none" stroke="#000000" stroke-dasharray="1,5" points="1141,-70 1141,-206 1273,-206 1273,-70 1141,-70"/>
</g>
<g id="clust50" class="cluster">
<title>cluster_Tab1PageModule_declarations</title>
<polygon fill="none" stroke="#000000" points="1163,-78 1163,-130 1251,-130 1251,-78 1163,-78"/>
</g>
<g id="clust56" class="cluster">
<title>cluster_Tab2PageModule</title>
<polygon fill="none" stroke="#000000" stroke-dasharray="1,5" points="1281,-70 1281,-206 1413,-206 1413,-70 1281,-70"/>
</g>
<g id="clust57" class="cluster">
<title>cluster_Tab2PageModule_declarations</title>
<polygon fill="none" stroke="#000000" points="1303,-78 1303,-130 1391,-130 1391,-78 1303,-78"/>
</g>
<g id="clust63" class="cluster">
<title>cluster_Tab3PageModule</title>
<polygon fill="none" stroke="#000000" stroke-dasharray="1,5" points="1421,-70 1421,-206 1553,-206 1553,-70 1421,-70"/>
</g>
<g id="clust64" class="cluster">
<title>cluster_Tab3PageModule_declarations</title>
<polygon fill="none" stroke="#000000" points="1443,-78 1443,-130 1531,-130 1531,-78 1443,-78"/>
</g>
<g id="clust70" class="cluster">
<title>cluster_TabsPageModule</title>
<polygon fill="none" stroke="#000000" stroke-dasharray="1,5" points="1561,-70 1561,-206 1847,-206 1847,-70 1561,-70"/>
</g>
<g id="clust71" class="cluster">
<title>cluster_TabsPageModule_declarations</title>
<polygon fill="none" stroke="#000000" points="1753,-78 1753,-130 1839,-130 1839,-78 1753,-78"/>
</g>
<g id="clust73" class="cluster">
<title>cluster_TabsPageModule_imports</title>
<polygon fill="none" stroke="#000000" points="1569,-78 1569,-130 1745,-130 1745,-78 1569,-78"/>
</g>
<g id="clust83" class="cluster">
<title>cluster_TestResultPageModule</title>
<polygon fill="none" stroke="#000000" stroke-dasharray="1,5" points="1855,-70 1855,-206 2017,-206 2017,-70 1855,-70"/>
</g>
<g id="clust84" class="cluster">
<title>cluster_TestResultPageModule_declarations</title>
<polygon fill="none" stroke="#000000" points="1876,-78 1876,-130 1996,-130 1996,-78 1876,-78"/>
</g>
<g id="clust90" class="cluster">
<title>cluster_TestRoomPageModule</title>
<polygon fill="none" stroke="#000000" stroke-dasharray="1,5" points="2025,-70 2025,-206 2187,-206 2187,-70 2025,-70"/>
</g>
<g id="clust91" class="cluster">
<title>cluster_TestRoomPageModule_declarations</title>
<polygon fill="none" stroke="#000000" points="2047,-78 2047,-130 2165,-130 2165,-78 2047,-78"/>
</g>
<g id="clust97" class="cluster">
<title>cluster_TrainingPageModule</title>
<polygon fill="none" stroke="#000000" stroke-dasharray="1,5" points="2195,-70 2195,-206 2345,-206 2345,-70 2195,-70"/>
</g>
<g id="clust98" class="cluster">
<title>cluster_TrainingPageModule_declarations</title>
<polygon fill="none" stroke="#000000" points="2216,-78 2216,-130 2324,-130 2324,-78 2216,-78"/>
</g>
<g id="clust104" class="cluster">
<title>cluster_VerifyEmailPageModule</title>
<polygon fill="none" stroke="#000000" stroke-dasharray="1,5" points="2353,-70 2353,-206 2525,-206 2525,-70 2353,-70"/>
</g>
<g id="clust105" class="cluster">
<title>cluster_VerifyEmailPageModule_declarations</title>
<polygon fill="none" stroke="#000000" points="2374,-78 2374,-130 2504,-130 2504,-78 2374,-78"/>
</g>
<!-- AccountPage -->
<g id="node1" class="node">
<title>AccountPage</title>
<polygon fill="#ffffb3" stroke="#000000" points="128.1389,-122 37.8611,-122 37.8611,-86 128.1389,-86 128.1389,-122"/>
<text text-anchor="middle" x="83" y="-99.8" font-family="Times,serif" font-size="14.00" fill="#000000">AccountPage</text>
</g>
<!-- AccountPageModule -->
<g id="node2" class="node">
<title>AccountPageModule</title>
<polygon fill="#8dd3c7" stroke="#000000" points="150.1881,-198 147.1881,-202 126.1881,-202 123.1881,-198 15.8119,-198 15.8119,-162 150.1881,-162 150.1881,-198"/>
<text text-anchor="middle" x="83" y="-175.8" font-family="Times,serif" font-size="14.00" fill="#000000">AccountPageModule</text>
</g>
<!-- AccountPage&#45;&gt;AccountPageModule -->
<g id="edge1" class="edge">
<title>AccountPage&#45;&gt;AccountPageModule</title>
<path fill="none" stroke="#000000" d="M83,-122.0109C83,-122.0109 83,-151.855 83,-151.855"/>
<polygon fill="#000000" stroke="#000000" points="79.5001,-151.8549 83,-161.855 86.5001,-151.855 79.5001,-151.8549"/>
</g>
<!-- AppComponent -->
<g id="node3" class="node">
<title>AppComponent</title>
<polygon fill="#ffffb3" stroke="#000000" points="642.9399,-198 537.0601,-198 537.0601,-162 642.9399,-162 642.9399,-198"/>
<text text-anchor="middle" x="590" y="-175.8" font-family="Times,serif" font-size="14.00" fill="#000000">AppComponent</text>
</g>
<!-- AppModule -->
<g id="node4" class="node">
<title>AppModule</title>
<polygon fill="#8dd3c7" stroke="#000000" points="490.6571,-263 487.6571,-267 466.6571,-267 463.6571,-263 407.3429,-263 407.3429,-227 490.6571,-227 490.6571,-263"/>
<text text-anchor="middle" x="449" y="-240.8" font-family="Times,serif" font-size="14.00" fill="#000000">AppModule</text>
</g>
<!-- AppComponent&#45;&gt;AppModule -->
<g id="edge2" class="edge">
<title>AppComponent&#45;&gt;AppModule</title>
<path fill="none" stroke="#000000" d="M590,-198.1061C590,-217.3391 590,-245 590,-245 590,-245 500.9229,-245 500.9229,-245"/>
<polygon fill="#000000" stroke="#000000" points="500.9229,-241.5001 490.9229,-245 500.9229,-248.5001 500.9229,-241.5001"/>
</g>
<!-- AppComponent  -->
<g id="node7" class="node">
<title>AppComponent </title>
<polygon fill="#80b1d3" stroke="#000000" points="503.439,-328 394.561,-328 394.561,-292 503.439,-292 503.439,-328"/>
<text text-anchor="middle" x="449" y="-305.8" font-family="Times,serif" font-size="14.00" fill="#000000">AppComponent </text>
</g>
<!-- AppModule&#45;&gt;AppComponent  -->
<g id="edge5" class="edge">
<title>AppModule&#45;&gt;AppComponent </title>
<path fill="none" stroke="#000000" stroke-dasharray="1,5" d="M449,-263.1061C449,-263.1061 449,-281.991 449,-281.991"/>
<polygon fill="#000000" stroke="#000000" points="445.5001,-281.9909 449,-291.991 452.5001,-281.991 445.5001,-281.9909"/>
</g>
<!-- AppRoutingModule -->
<g id="node5" class="node">
<title>AppRoutingModule</title>
<polygon fill="#8dd3c7" stroke="#000000" points="513.2744,-198 510.2744,-202 489.2744,-202 486.2744,-198 384.7256,-198 384.7256,-162 513.2744,-162 513.2744,-198"/>
<text text-anchor="middle" x="449" y="-175.8" font-family="Times,serif" font-size="14.00" fill="#000000">AppRoutingModule</text>
</g>
<!-- AppRoutingModule&#45;&gt;AppModule -->
<g id="edge3" class="edge">
<title>AppRoutingModule&#45;&gt;AppModule</title>
<path fill="none" stroke="#000000" d="M449,-198.1061C449,-198.1061 449,-216.991 449,-216.991"/>
<polygon fill="#000000" stroke="#000000" points="445.5001,-216.9909 449,-226.991 452.5001,-216.991 445.5001,-216.9909"/>
</g>
<!-- EditProfileModalPageModule -->
<g id="node6" class="node">
<title>EditProfileModalPageModule</title>
<polygon fill="#8dd3c7" stroke="#000000" points="366.245,-198 363.245,-202 342.245,-202 339.245,-198 181.755,-198 181.755,-162 366.245,-162 366.245,-198"/>
<text text-anchor="middle" x="274" y="-175.8" font-family="Times,serif" font-size="14.00" fill="#000000">EditProfileModalPageModule</text>
</g>
<!-- EditProfileModalPageModule&#45;&gt;AppModule -->
<g id="edge4" class="edge">
<title>EditProfileModalPageModule&#45;&gt;AppModule</title>
<path fill="none" stroke="#000000" d="M274,-198.1061C274,-217.3391 274,-245 274,-245 274,-245 397.0831,-245 397.0831,-245"/>
<polygon fill="#000000" stroke="#000000" points="397.0832,-248.5001 407.0831,-245 397.0831,-241.5001 397.0832,-248.5001"/>
</g>
<!-- BeforeStartPage -->
<g id="node8" class="node">
<title>BeforeStartPage</title>
<polygon fill="#ffffb3" stroke="#000000" points="804.7381,-122 697.2619,-122 697.2619,-86 804.7381,-86 804.7381,-122"/>
<text text-anchor="middle" x="751" y="-99.8" font-family="Times,serif" font-size="14.00" fill="#000000">BeforeStartPage</text>
</g>
<!-- BeforeStartPageModule -->
<g id="node9" class="node">
<title>BeforeStartPageModule</title>
<polygon fill="#8dd3c7" stroke="#000000" points="826.7879,-198 823.7879,-202 802.7879,-202 799.7879,-198 675.2121,-198 675.2121,-162 826.7879,-162 826.7879,-198"/>
<text text-anchor="middle" x="751" y="-175.8" font-family="Times,serif" font-size="14.00" fill="#000000">BeforeStartPageModule</text>
</g>
<!-- BeforeStartPage&#45;&gt;BeforeStartPageModule -->
<g id="edge6" class="edge">
<title>BeforeStartPage&#45;&gt;BeforeStartPageModule</title>
<path fill="none" stroke="#000000" d="M751,-122.0109C751,-122.0109 751,-151.855 751,-151.855"/>
<polygon fill="#000000" stroke="#000000" points="747.5001,-151.8549 751,-161.855 754.5001,-151.855 747.5001,-151.8549"/>
</g>
<!-- EditProfileModalPage -->
<g id="node10" class="node">
<title>EditProfileModalPage</title>
<polygon fill="#ffffb3" stroke="#000000" points="344.6951,-122 203.3049,-122 203.3049,-86 344.6951,-86 344.6951,-122"/>
<text text-anchor="middle" x="274" y="-99.8" font-family="Times,serif" font-size="14.00" fill="#000000">EditProfileModalPage</text>
</g>
<!-- EditProfileModalPage&#45;&gt;EditProfileModalPageModule -->
<g id="edge7" class="edge">
<title>EditProfileModalPage&#45;&gt;EditProfileModalPageModule</title>
<path fill="none" stroke="#000000" d="M274,-122.0109C274,-122.0109 274,-151.855 274,-151.855"/>
<polygon fill="#000000" stroke="#000000" points="270.5001,-151.8549 274,-161.855 277.5001,-151.855 270.5001,-151.8549"/>
</g>
<!-- LoginPage -->
<g id="node11" class="node">
<title>LoginPage</title>
<polygon fill="#ffffb3" stroke="#000000" points="949.1558,-122 872.8442,-122 872.8442,-86 949.1558,-86 949.1558,-122"/>
<text text-anchor="middle" x="911" y="-99.8" font-family="Times,serif" font-size="14.00" fill="#000000">LoginPage</text>
</g>
<!-- LoginPageModule -->
<g id="node12" class="node">
<title>LoginPageModule</title>
<polygon fill="#8dd3c7" stroke="#000000" points="971.205,-198 968.205,-202 947.205,-202 944.205,-198 850.795,-198 850.795,-162 971.205,-162 971.205,-198"/>
<text text-anchor="middle" x="911" y="-175.8" font-family="Times,serif" font-size="14.00" fill="#000000">LoginPageModule</text>
</g>
<!-- LoginPage&#45;&gt;LoginPageModule -->
<g id="edge8" class="edge">
<title>LoginPage&#45;&gt;LoginPageModule</title>
<path fill="none" stroke="#000000" d="M911,-122.0109C911,-122.0109 911,-151.855 911,-151.855"/>
<polygon fill="#000000" stroke="#000000" points="907.5001,-151.8549 911,-161.855 914.5001,-151.855 907.5001,-151.8549"/>
</g>
<!-- SignUpPage -->
<g id="node13" class="node">
<title>SignUpPage</title>
<polygon fill="#ffffb3" stroke="#000000" points="1102.9916,-122 1017.0084,-122 1017.0084,-86 1102.9916,-86 1102.9916,-122"/>
<text text-anchor="middle" x="1060" y="-99.8" font-family="Times,serif" font-size="14.00" fill="#000000">SignUpPage</text>
</g>
<!-- SignUpPageModule -->
<g id="node14" class="node">
<title>SignUpPageModule</title>
<polygon fill="#8dd3c7" stroke="#000000" points="1124.5422,-198 1121.5422,-202 1100.5422,-202 1097.5422,-198 995.4578,-198 995.4578,-162 1124.5422,-162 1124.5422,-198"/>
<text text-anchor="middle" x="1060" y="-175.8" font-family="Times,serif" font-size="14.00" fill="#000000">SignUpPageModule</text>
</g>
<!-- SignUpPage&#45;&gt;SignUpPageModule -->
<g id="edge9" class="edge">
<title>SignUpPage&#45;&gt;SignUpPageModule</title>
<path fill="none" stroke="#000000" d="M1060,-122.0109C1060,-122.0109 1060,-151.855 1060,-151.855"/>
<polygon fill="#000000" stroke="#000000" points="1056.5001,-151.8549 1060,-161.855 1063.5001,-151.855 1056.5001,-151.8549"/>
</g>
<!-- Tab1Page -->
<g id="node15" class="node">
<title>Tab1Page</title>
<polygon fill="#ffffb3" stroke="#000000" points="1242.979,-122 1171.021,-122 1171.021,-86 1242.979,-86 1242.979,-122"/>
<text text-anchor="middle" x="1207" y="-99.8" font-family="Times,serif" font-size="14.00" fill="#000000">Tab1Page</text>
</g>
<!-- Tab1PageModule -->
<g id="node16" class="node">
<title>Tab1PageModule</title>
<polygon fill="#8dd3c7" stroke="#000000" points="1264.5298,-198 1261.5298,-202 1240.5298,-202 1237.5298,-198 1149.4702,-198 1149.4702,-162 1264.5298,-162 1264.5298,-198"/>
<text text-anchor="middle" x="1207" y="-175.8" font-family="Times,serif" font-size="14.00" fill="#000000">Tab1PageModule</text>
</g>
<!-- Tab1Page&#45;&gt;Tab1PageModule -->
<g id="edge10" class="edge">
<title>Tab1Page&#45;&gt;Tab1PageModule</title>
<path fill="none" stroke="#000000" d="M1207,-122.0109C1207,-122.0109 1207,-151.855 1207,-151.855"/>
<polygon fill="#000000" stroke="#000000" points="1203.5001,-151.8549 1207,-161.855 1210.5001,-151.855 1203.5001,-151.8549"/>
</g>
<!-- Tab2Page -->
<g id="node17" class="node">
<title>Tab2Page</title>
<polygon fill="#ffffb3" stroke="#000000" points="1382.979,-122 1311.021,-122 1311.021,-86 1382.979,-86 1382.979,-122"/>
<text text-anchor="middle" x="1347" y="-99.8" font-family="Times,serif" font-size="14.00" fill="#000000">Tab2Page</text>
</g>
<!-- Tab2PageModule -->
<g id="node18" class="node">
<title>Tab2PageModule</title>
<polygon fill="#8dd3c7" stroke="#000000" points="1404.5298,-198 1401.5298,-202 1380.5298,-202 1377.5298,-198 1289.4702,-198 1289.4702,-162 1404.5298,-162 1404.5298,-198"/>
<text text-anchor="middle" x="1347" y="-175.8" font-family="Times,serif" font-size="14.00" fill="#000000">Tab2PageModule</text>
</g>
<!-- Tab2Page&#45;&gt;Tab2PageModule -->
<g id="edge11" class="edge">
<title>Tab2Page&#45;&gt;Tab2PageModule</title>
<path fill="none" stroke="#000000" d="M1347,-122.0109C1347,-122.0109 1347,-151.855 1347,-151.855"/>
<polygon fill="#000000" stroke="#000000" points="1343.5001,-151.8549 1347,-161.855 1350.5001,-151.855 1343.5001,-151.8549"/>
</g>
<!-- Tab3Page -->
<g id="node19" class="node">
<title>Tab3Page</title>
<polygon fill="#ffffb3" stroke="#000000" points="1522.979,-122 1451.021,-122 1451.021,-86 1522.979,-86 1522.979,-122"/>
<text text-anchor="middle" x="1487" y="-99.8" font-family="Times,serif" font-size="14.00" fill="#000000">Tab3Page</text>
</g>
<!-- Tab3PageModule -->
<g id="node20" class="node">
<title>Tab3PageModule</title>
<polygon fill="#8dd3c7" stroke="#000000" points="1544.5298,-198 1541.5298,-202 1520.5298,-202 1517.5298,-198 1429.4702,-198 1429.4702,-162 1544.5298,-162 1544.5298,-198"/>
<text text-anchor="middle" x="1487" y="-175.8" font-family="Times,serif" font-size="14.00" fill="#000000">Tab3PageModule</text>
</g>
<!-- Tab3Page&#45;&gt;Tab3PageModule -->
<g id="edge12" class="edge">
<title>Tab3Page&#45;&gt;Tab3PageModule</title>
<path fill="none" stroke="#000000" d="M1487,-122.0109C1487,-122.0109 1487,-151.855 1487,-151.855"/>
<polygon fill="#000000" stroke="#000000" points="1483.5001,-151.8549 1487,-161.855 1490.5001,-151.855 1483.5001,-151.8549"/>
</g>
<!-- TabsPage -->
<g id="node21" class="node">
<title>TabsPage</title>
<polygon fill="#ffffb3" stroke="#000000" points="1831.4249,-122 1760.5751,-122 1760.5751,-86 1831.4249,-86 1831.4249,-122"/>
<text text-anchor="middle" x="1796" y="-99.8" font-family="Times,serif" font-size="14.00" fill="#000000">TabsPage</text>
</g>
<!-- TabsPageModule -->
<g id="node22" class="node">
<title>TabsPageModule</title>
<polygon fill="#8dd3c7" stroke="#000000" points="1775.9734,-198 1772.9734,-202 1751.9734,-202 1748.9734,-198 1662.0266,-198 1662.0266,-162 1775.9734,-162 1775.9734,-198"/>
<text text-anchor="middle" x="1719" y="-175.8" font-family="Times,serif" font-size="14.00" fill="#000000">TabsPageModule</text>
</g>
<!-- TabsPage&#45;&gt;TabsPageModule -->
<g id="edge13" class="edge">
<title>TabsPage&#45;&gt;TabsPageModule</title>
<path fill="none" stroke="#000000" d="M1768.3875,-122.0109C1768.3875,-122.0109 1768.3875,-151.855 1768.3875,-151.855"/>
<polygon fill="#000000" stroke="#000000" points="1764.8875,-151.8549 1768.3875,-161.855 1771.8875,-151.855 1764.8875,-151.8549"/>
</g>
<!-- TabsPageRoutingModule -->
<g id="node23" class="node">
<title>TabsPageRoutingModule</title>
<polygon fill="#8dd3c7" stroke="#000000" points="1736.5912,-122 1733.5912,-126 1712.5912,-126 1709.5912,-122 1577.4088,-122 1577.4088,-86 1736.5912,-86 1736.5912,-122"/>
<text text-anchor="middle" x="1657" y="-99.8" font-family="Times,serif" font-size="14.00" fill="#000000">TabsPageRoutingModule</text>
</g>
<!-- TabsPageRoutingModule&#45;&gt;TabsPageModule -->
<g id="edge14" class="edge">
<title>TabsPageRoutingModule&#45;&gt;TabsPageModule</title>
<path fill="none" stroke="#000000" d="M1699.2795,-122.0109C1699.2795,-122.0109 1699.2795,-151.855 1699.2795,-151.855"/>
<polygon fill="#000000" stroke="#000000" points="1695.7795,-151.8549 1699.2795,-161.855 1702.7795,-151.855 1695.7795,-151.8549"/>
</g>
<!-- TestResultPage -->
<g id="node24" class="node">
<title>TestResultPage</title>
<polygon fill="#ffffb3" stroke="#000000" points="1987.5912,-122 1884.4088,-122 1884.4088,-86 1987.5912,-86 1987.5912,-122"/>
<text text-anchor="middle" x="1936" y="-99.8" font-family="Times,serif" font-size="14.00" fill="#000000">TestResultPage</text>
</g>
<!-- TestResultPageModule -->
<g id="node25" class="node">
<title>TestResultPageModule</title>
<polygon fill="#8dd3c7" stroke="#000000" points="2009.1414,-198 2006.1414,-202 1985.1414,-202 1982.1414,-198 1862.8586,-198 1862.8586,-162 2009.1414,-162 2009.1414,-198"/>
<text text-anchor="middle" x="1936" y="-175.8" font-family="Times,serif" font-size="14.00" fill="#000000">TestResultPageModule</text>
</g>
<!-- TestResultPage&#45;&gt;TestResultPageModule -->
<g id="edge15" class="edge">
<title>TestResultPage&#45;&gt;TestResultPageModule</title>
<path fill="none" stroke="#000000" d="M1936,-122.0109C1936,-122.0109 1936,-151.855 1936,-151.855"/>
<polygon fill="#000000" stroke="#000000" points="1932.5001,-151.8549 1936,-161.855 1939.5001,-151.855 1932.5001,-151.8549"/>
</g>
<!-- TestRoomPage -->
<g id="node26" class="node">
<title>TestRoomPage</title>
<polygon fill="#ffffb3" stroke="#000000" points="2156.5424,-122 2055.4576,-122 2055.4576,-86 2156.5424,-86 2156.5424,-122"/>
<text text-anchor="middle" x="2106" y="-99.8" font-family="Times,serif" font-size="14.00" fill="#000000">TestRoomPage</text>
</g>
<!-- TestRoomPageModule -->
<g id="node27" class="node">
<title>TestRoomPageModule</title>
<polygon fill="#8dd3c7" stroke="#000000" points="2178.5912,-198 2175.5912,-202 2154.5912,-202 2151.5912,-198 2033.4088,-198 2033.4088,-162 2178.5912,-162 2178.5912,-198"/>
<text text-anchor="middle" x="2106" y="-175.8" font-family="Times,serif" font-size="14.00" fill="#000000">TestRoomPageModule</text>
</g>
<!-- TestRoomPage&#45;&gt;TestRoomPageModule -->
<g id="edge16" class="edge">
<title>TestRoomPage&#45;&gt;TestRoomPageModule</title>
<path fill="none" stroke="#000000" d="M2106,-122.0109C2106,-122.0109 2106,-151.855 2106,-151.855"/>
<polygon fill="#000000" stroke="#000000" points="2102.5001,-151.8549 2106,-161.855 2109.5001,-151.855 2102.5001,-151.8549"/>
</g>
<!-- TrainingPage -->
<g id="node28" class="node">
<title>TrainingPage</title>
<polygon fill="#ffffb3" stroke="#000000" points="2315.9218,-122 2224.0782,-122 2224.0782,-86 2315.9218,-86 2315.9218,-122"/>
<text text-anchor="middle" x="2270" y="-99.8" font-family="Times,serif" font-size="14.00" fill="#000000">TrainingPage</text>
</g>
<!-- TrainingPageModule -->
<g id="node29" class="node">
<title>TrainingPageModule</title>
<polygon fill="#8dd3c7" stroke="#000000" points="2337.4706,-198 2334.4706,-202 2313.4706,-202 2310.4706,-198 2202.5294,-198 2202.5294,-162 2337.4706,-162 2337.4706,-198"/>
<text text-anchor="middle" x="2270" y="-175.8" font-family="Times,serif" font-size="14.00" fill="#000000">TrainingPageModule</text>
</g>
<!-- TrainingPage&#45;&gt;TrainingPageModule -->
<g id="edge17" class="edge">
<title>TrainingPage&#45;&gt;TrainingPageModule</title>
<path fill="none" stroke="#000000" d="M2270,-122.0109C2270,-122.0109 2270,-151.855 2270,-151.855"/>
<polygon fill="#000000" stroke="#000000" points="2266.5001,-151.8549 2270,-161.855 2273.5001,-151.855 2266.5001,-151.8549"/>
</g>
<!-- VerifyEmailPage -->
<g id="node30" class="node">
<title>VerifyEmailPage</title>
<polygon fill="#ffffb3" stroke="#000000" points="2495.6839,-122 2382.3161,-122 2382.3161,-86 2495.6839,-86 2495.6839,-122"/>
<text text-anchor="middle" x="2439" y="-99.8" font-family="Times,serif" font-size="14.00" fill="#000000">VerifyEmailPage</text>
</g>
<!-- VerifyEmailPageModule -->
<g id="node31" class="node">
<title>VerifyEmailPageModule</title>
<polygon fill="#8dd3c7" stroke="#000000" points="2517.2338,-198 2514.2338,-202 2493.2338,-202 2490.2338,-198 2360.7662,-198 2360.7662,-162 2517.2338,-162 2517.2338,-198"/>
<text text-anchor="middle" x="2439" y="-175.8" font-family="Times,serif" font-size="14.00" fill="#000000">VerifyEmailPageModule</text>
</g>
<!-- VerifyEmailPage&#45;&gt;VerifyEmailPageModule -->
<g id="edge18" class="edge">
<title>VerifyEmailPage&#45;&gt;VerifyEmailPageModule</title>
<path fill="none" stroke="#000000" d="M2439,-122.0109C2439,-122.0109 2439,-151.855 2439,-151.855"/>
<polygon fill="#000000" stroke="#000000" points="2435.5001,-151.8549 2439,-161.855 2442.5001,-151.855 2435.5001,-151.8549"/>
</g>
</g>
</svg>
