<?xml version="1.0" encoding="UTF-8" standalone="no"?>
<!DOCTYPE svg PUBLIC "-//W3C//DTD SVG 1.1//EN"
 "http://www.w3.org/Graphics/SVG/1.1/DTD/svg11.dtd">
<!-- Generated by graphviz version 2.40.1 (20161225.0304)
 -->
<!-- Title: dependencies Pages: 1 -->
<svg width="700pt" height="284pt"
 viewBox="0.00 0.00 700.00 284.00" xmlns="http://www.w3.org/2000/svg" xmlns:xlink="http://www.w3.org/1999/xlink">
<g id="graph0" class="graph" transform="scale(1 1) rotate(0) translate(4 280)">
<title>dependencies</title>
<polygon fill="#ffffff" stroke="transparent" points="-4,4 -4,-280 696,-280 696,4 -4,4"/>
<text text-anchor="start" x="325.0091" y="-42.4" font-family="sans-serif" font-weight="bold" font-size="14.00" fill="#000000">Legend</text>
<polygon fill="#ffffb3" stroke="transparent" points="112,-10 112,-30 132,-30 132,-10 112,-10"/>
<text text-anchor="start" x="135.629" y="-15.4" font-family="sans-serif" font-size="14.00" fill="#000000"> &#160;Declarations</text>
<polygon fill="#8dd3c7" stroke="transparent" points="225,-10 225,-30 245,-30 245,-10 225,-10"/>
<text text-anchor="start" x="248.7251" y="-15.4" font-family="sans-serif" font-size="14.00" fill="#000000"> &#160;Module</text>
<polygon fill="#80b1d3" stroke="transparent" points="311,-10 311,-30 331,-30 331,-10 311,-10"/>
<text text-anchor="start" x="334.7812" y="-15.4" font-family="sans-serif" font-size="14.00" fill="#000000"> &#160;Bootstrap</text>
<polygon fill="#fdb462" stroke="transparent" points="408,-10 408,-30 428,-30 428,-10 408,-10"/>
<text text-anchor="start" x="431.6732" y="-15.4" font-family="sans-serif" font-size="14.00" fill="#000000"> &#160;Providers</text>
<polygon fill="#fb8072" stroke="transparent" points="504,-10 504,-30 524,-30 524,-10 504,-10"/>
<text text-anchor="start" x="527.7258" y="-15.4" font-family="sans-serif" font-size="14.00" fill="#000000"> &#160;Exports</text>
<g id="clust1" class="cluster">
<title>cluster_AppModule</title>
<polygon fill="none" stroke="#000000" stroke-dasharray="1,5" points="8,-70 8,-268 684,-268 684,-70 8,-70"/>
</g>
<g id="clust2" class="cluster">
<title>cluster_AppModule_declarations</title>
<polygon fill="none" stroke="#000000" points="554,-78 554,-130 676,-130 676,-78 554,-78"/>
</g>
<g id="clust4" class="cluster">
<title>cluster_AppModule_imports</title>
<polygon fill="none" stroke="#000000" points="16,-78 16,-130 546,-130 546,-78 16,-78"/>
</g>
<g id="clust6" class="cluster">
<title>cluster_AppModule_bootstrap</title>
<polygon fill="none" stroke="#000000" points="329,-208 329,-260 453,-260 453,-208 329,-208"/>
</g>
<!-- AppComponent -->
<g id="node1" class="node">
<title>AppComponent</title>
<polygon fill="#ffffb3" stroke="#000000" points="667.9399,-122 562.0601,-122 562.0601,-86 667.9399,-86 667.9399,-122"/>
<text text-anchor="middle" x="615" y="-99.8" font-family="Times,serif" font-size="14.00" fill="#000000">AppComponent</text>
</g>
<!-- AppModule -->
<g id="node2" class="node">
<title>AppModule</title>
<polygon fill="#8dd3c7" stroke="#000000" points="432.6571,-187 429.6571,-191 408.6571,-191 405.6571,-187 349.3429,-187 349.3429,-151 432.6571,-151 432.6571,-187"/>
<text text-anchor="middle" x="391" y="-164.8" font-family="Times,serif" font-size="14.00" fill="#000000">AppModule</text>
</g>
<!-- AppComponent&#45;&gt;AppModule -->
<g id="edge1" class="edge">
<title>AppComponent&#45;&gt;AppModule</title>
<path fill="none" stroke="#000000" d="M615,-122.1061C615,-141.3391 615,-169 615,-169 615,-169 442.8699,-169 442.8699,-169"/>
<polygon fill="#000000" stroke="#000000" points="442.87,-165.5001 432.8699,-169 442.8699,-172.5001 442.87,-165.5001"/>
</g>
<!-- AppComponent  -->
<g id="node6" class="node">
<title>AppComponent </title>
<polygon fill="#80b1d3" stroke="#000000" points="445.439,-252 336.561,-252 336.561,-216 445.439,-216 445.439,-252"/>
<text text-anchor="middle" x="391" y="-229.8" font-family="Times,serif" font-size="14.00" fill="#000000">AppComponent </text>
</g>
<!-- AppModule&#45;&gt;AppComponent  -->
<g id="edge5" class="edge">
<title>AppModule&#45;&gt;AppComponent </title>
<path fill="none" stroke="#000000" stroke-dasharray="1,5" d="M391,-187.1061C391,-187.1061 391,-205.991 391,-205.991"/>
<polygon fill="#000000" stroke="#000000" points="387.5001,-205.9909 391,-215.991 394.5001,-205.991 387.5001,-205.9909"/>
</g>
<!-- AppRoutingModule -->
<g id="node3" class="node">
<title>AppRoutingModule</title>
<polygon fill="#8dd3c7" stroke="#000000" points="538.2744,-122 535.2744,-126 514.2744,-126 511.2744,-122 409.7256,-122 409.7256,-86 538.2744,-86 538.2744,-122"/>
<text text-anchor="middle" x="474" y="-99.8" font-family="Times,serif" font-size="14.00" fill="#000000">AppRoutingModule</text>
</g>
<!-- AppRoutingModule&#45;&gt;AppModule -->
<g id="edge2" class="edge">
<title>AppRoutingModule&#45;&gt;AppModule</title>
<path fill="none" stroke="#000000" d="M421.2206,-122.1061C421.2206,-122.1061 421.2206,-140.991 421.2206,-140.991"/>
<polygon fill="#000000" stroke="#000000" points="417.7206,-140.9909 421.2206,-150.991 424.7206,-140.991 417.7206,-140.9909"/>
</g>
<!-- CatInfoModalPageModule -->
<g id="node4" class="node">
<title>CatInfoModalPageModule</title>
<polygon fill="#8dd3c7" stroke="#000000" points="392.0744,-122 389.0744,-126 368.0744,-126 365.0744,-122 225.9256,-122 225.9256,-86 392.0744,-86 392.0744,-122"/>
<text text-anchor="middle" x="309" y="-99.8" font-family="Times,serif" font-size="14.00" fill="#000000">CatInfoModalPageModule</text>
</g>
<!-- CatInfoModalPageModule&#45;&gt;AppModule -->
<g id="edge3" class="edge">
<title>CatInfoModalPageModule&#45;&gt;AppModule</title>
<path fill="none" stroke="#000000" d="M370.6045,-122.1061C370.6045,-122.1061 370.6045,-140.991 370.6045,-140.991"/>
<polygon fill="#000000" stroke="#000000" points="367.1046,-140.9909 370.6045,-150.991 374.1046,-140.991 367.1046,-140.9909"/>
</g>
<!-- EditProfileModalPageModule -->
<g id="node5" class="node">
<title>EditProfileModalPageModule</title>
<polygon fill="#8dd3c7" stroke="#000000" points="208.245,-122 205.245,-126 184.245,-126 181.245,-122 23.755,-122 23.755,-86 208.245,-86 208.245,-122"/>
<text text-anchor="middle" x="116" y="-99.8" font-family="Times,serif" font-size="14.00" fill="#000000">EditProfileModalPageModule</text>
</g>
<!-- EditProfileModalPageModule&#45;&gt;AppModule -->
<g id="edge4" class="edge">
<title>EditProfileModalPageModule&#45;&gt;AppModule</title>
<path fill="none" stroke="#000000" d="M116,-122.1061C116,-141.3391 116,-169 116,-169 116,-169 339.2334,-169 339.2334,-169"/>
<polygon fill="#000000" stroke="#000000" points="339.2335,-172.5001 349.2334,-169 339.2334,-165.5001 339.2335,-172.5001"/>
</g>
</g>
</svg>
