<svg xmlns="http://www.w3.org/2000/svg" viewBox="0 0 20 20"><title>icon20</title><g id="Layer_2" data-name="Layer 2"><g id="Layer_1-2" data-name="Layer 1"><path d="M18.35,10.22c.33,0,.83-.64,1.25-2.44.13-.56.24-1.2.33-1.87-.49-.33-1-.69-1.48-1.06-.56.48-1.11.92-1.64,1.33.08.57.18,1.11.29,1.6C17.52,9.58,18,10.22,18.35,10.22Z" style="fill:#0062c1"/><path d="M9.69,1.88c0,.34.64.84,2.44,1.25.52.12,1.1.23,1.72.31.38-.47.8-1,1.25-1.45C14.54,1.45,14,.9,13.54.37c-.5.08-1,.16-1.41.27C10.33,1.05,9.69,1.55,9.69,1.88Z" style="fill:#0062c1"/><path d="M18.63,4.14H18.2l.23.18Z" style="fill:#0062c1"/><path d="M20,5.33V4.1l-.74,0-.5.44c.42.31.82.61,1.23.88C20,5.41,20,5.37,20,5.33Z" style="fill:#0062c1"/><path d="M16.12,2.93c-.24-.21-.48-.44-.72-.66-.38.42-.74.83-1.07,1.23.58.07,1.19.13,1.83.16C16.14,3.42,16.13,3.18,16.12,2.93Z" style="fill:#0062c1"/><path d="M12.11,7.89c.23.24,1,.16,2.62-.79A18.3,18.3,0,0,0,16.37,6c-.08-.61-.14-1.25-.19-1.92C15.44,4,14.72,4,14,3.88c-.39.49-.73,1-1,1.42C12,6.84,11.88,7.65,12.11,7.89Z" style="fill:#0062c1"/><path d="M15.38,1.69q.34-.37.72-.75c0-.28,0-.56,0-.83-.73,0-1.43.11-2.09.19C14.44.76,14.89,1.22,15.38,1.69Z" style="fill:#0062c1"/><path d="M16.57,3.69H17l-.11-.09-.35-.3C16.55,3.43,16.56,3.56,16.57,3.69Z" style="fill:#0062c1"/><path d="M19.09,3.72l.54-.51L20,2.85v-2L19.54.48,19,.05H17.61q-.27.24-.54.51c-.19.18-.38.36-.56.55v.45c0,.4,0,.79,0,1.18.2.19.42.37.63.55l.52.43h1.41ZM17,1.83a1.29,1.29,0,1,1,1.29,1.29A1.29,1.29,0,0,1,17,1.83Z" style="fill:#0062c1"/><path d="M20,.33V.08l-.31,0,.11.1Z" style="fill:#0062c1"/><path d="M16.79.26l.2-.2-.45,0c0,.15,0,.29,0,.44Z" style="fill:#0062c1"/><path d="M19.71,3.7H20V3.42l-.09.09Z" style="fill:#0062c1"/><path d="M15.68,2l.43.4c0-.27,0-.54,0-.81v0C16,1.68,15.81,1.82,15.68,2Z" style="fill:#0062c1"/><path d="M17.53,4.13l-.94,0c0,.56.09,1.1.16,1.61.44-.34.9-.72,1.37-1.12C17.92,4.44,17.72,4.29,17.53,4.13Z" style="fill:#0062c1"/><path d="M18.35,10.63c-.9,0-1.55-1.78-1.91-4.17-.52.37-1,.71-1.49,1a5.82,5.82,0,0,1-2.48,1,.85.85,0,0,1-.65-.24c-.58-.6.13-2,.84-3.1q.39-.6.9-1.26c-2.45-.36-4.28-1-4.28-1.93S11,.38,13.22,0h-6c0,.17-.06.35-.08.53L6.71.48c0-.16,0-.32.07-.48H0V20H20V7.86C19.62,9.52,19.07,10.63,18.35,10.63Zm-1.29,2.5.58,0,0,.41c-.2,0-.4,0-.59-.06Zm-1.13-.19.56.11-.06.4-.59-.11ZM12.71,11.7l.51.28-.19.36-.52-.28Zm-1-.62.48.32-.22.35-.5-.34ZM9,8.2l-.34.23-.32-.5.35-.22C8.74,7.88,8.85,8,9,8.2Zm-.59-1L8,7.41l-.27-.54L8.1,6.7C8.18,6.87,8.27,7.05,8.36,7.21Zm-.49-1-.38.16-.21-.56.39-.13C7.73,5.82,7.8,6,7.87,6.17ZM7.49,5.09,7.1,5.2Q7,4.91,7,4.63l.39-.1ZM7.14,3.4A5.62,5.62,0,0,0,7.23,4L6.82,4c0-.19-.07-.39-.09-.59Zm-.47-.54c0-.2,0-.4,0-.6H7c0,.19,0,.39,0,.58Zm0-1.79.41,0a5.44,5.44,0,0,0,0,.57H6.63Q6.63,1.37,6.66,1.07ZM4.9,15.22h-1v3.24h1V19H2.37v-.49h1V15.22h-1v-.49H4.9Zm4.57,0H8.22V19H7.64V15.23H6.39v-.5H9.47ZM9.33,9.38c-.13-.15-.25-.31-.37-.47l.33-.24.35.45Zm.81.88a5.66,5.66,0,0,1-.42-.43l.3-.28.4.42Zm.7.1.44.37-.25.32c-.16-.12-.31-.25-.46-.38Zm2.67,8a1.12,1.12,0,0,1-.35.37,1.55,1.55,0,0,1-.52.23A3,3,0,0,1,12,19h-.34l-.32,0-.29,0-.24-.05v-.56a2.66,2.66,0,0,0,.54.14,3.54,3.54,0,0,0,.69.06,2.12,2.12,0,0,0,.47-.05.86.86,0,0,0,.32-.13.46.46,0,0,0,.18-.21.61.61,0,0,0,.06-.28.43.43,0,0,0-.1-.29.75.75,0,0,0-.25-.21,1.64,1.64,0,0,0-.35-.18L11.92,17l-.4-.18a1.8,1.8,0,0,1-.35-.24.93.93,0,0,1-.25-.31.85.85,0,0,1-.1-.43,1.07,1.07,0,0,1,.09-.43,1,1,0,0,1,.28-.37,1.34,1.34,0,0,1,.49-.26,2.17,2.17,0,0,1,.71-.1h.23l.26,0,.25,0,.23.05v.52a4.48,4.48,0,0,0-.5-.11,4.05,4.05,0,0,0-.48,0,1.29,1.29,0,0,0-.73.17.53.53,0,0,0-.23.44.41.41,0,0,0,.1.29.67.67,0,0,0,.25.22,1.64,1.64,0,0,0,.35.18l.41.16.4.19a1.41,1.41,0,0,1,.35.23,1,1,0,0,1,.25.33.83.83,0,0,1,.1.43A1.12,1.12,0,0,1,13.51,18.34Zm.62-5.51-.56-.23.17-.37.53.22Zm.69-.19.55.16-.11.4L14.69,13Zm3,5.7a1,1,0,0,1-.34.37,1.6,1.6,0,0,1-.53.23,2.84,2.84,0,0,1-.68.07h-.33l-.32,0-.29,0-.24-.05v-.56a2.66,2.66,0,0,0,.54.14,3.54,3.54,0,0,0,.69.06,2.12,2.12,0,0,0,.47-.05.93.93,0,0,0,.32-.13.46.46,0,0,0,.18-.21.61.61,0,0,0,.05-.28.48.48,0,0,0-.09-.29.87.87,0,0,0-.25-.21,1.64,1.64,0,0,0-.35-.18L16.22,17l-.4-.18a1.88,1.88,0,0,1-.36-.24,1.26,1.26,0,0,1-.25-.31,1,1,0,0,1-.09-.43,1.07,1.07,0,0,1,.09-.43,1,1,0,0,1,.28-.37,1.27,1.27,0,0,1,.49-.26,2.13,2.13,0,0,1,.71-.1h.23l.25,0,.25,0,.23.05v.52a4.31,4.31,0,0,0-.49-.11,4.23,4.23,0,0,0-.48,0,1.27,1.27,0,0,0-.73.17.5.5,0,0,0-.23.44.46.46,0,0,0,.09.29.88.88,0,0,0,.25.22,1.73,1.73,0,0,0,.36.18l.4.16.41.19a1.41,1.41,0,0,1,.35.23,1.15,1.15,0,0,1,.25.33.94.94,0,0,1,.1.43A1.12,1.12,0,0,1,17.8,18.34Zm.53-4.73h-.12V13.2h.58l0,.41Zm1.07,0,0-.41.58-.07,0,.41Z" style="fill:#0062c1"/></g></g></svg>