<svg xmlns="http://www.w3.org/2000/svg" width="50" height="50" viewBox="0 0 50 50"><defs><style>.cls-1{fill:#3498db;}</style></defs><title>Asset 32</title><g id="Layer_2" data-name="Layer 2"><g id="Layer_1-2" data-name="Layer 1"><path class="cls-1" d="M45.88,25.55c.82,0,2.08-1.6,3.12-6.09.33-1.42.6-3,.82-4.69-1.22-.83-2.46-1.72-3.7-2.65-1.39,1.2-2.76,2.32-4.1,3.33.21,1.44.45,2.78.73,4C43.79,24,45.05,25.55,45.88,25.55Z"/><path class="cls-1" d="M24.23,4.71c0,.83,1.6,2.08,6.09,3.12,1.31.3,2.76.56,4.31.78.95-1.19,2-2.41,3.13-3.64-1.4-1.35-2.73-2.71-3.91-4-1.26.19-2.44.41-3.53.66C25.83,2.63,24.23,3.88,24.23,4.71Z"/><path class="cls-1" d="M46.58,10.34H45.5l.57.46Z"/><path class="cls-1" d="M50,13.32V10.25l-1.86.07q-.62.57-1.23,1.11c1,.78,2.05,1.52,3.05,2.2C50,13.53,50,13.42,50,13.32Z"/><path class="cls-1" d="M40.3,7.33q-.91-.81-1.8-1.65c-1,1-1.84,2.07-2.67,3.08,1.45.17,3,.31,4.56.4C40.36,8.55,40.33,8,40.3,7.33Z"/><path class="cls-1" d="M30.28,19.72c.58.6,2.6.39,6.56-2C38.13,17,39.5,16,40.93,15c-.2-1.53-.36-3.14-.48-4.79-1.85-.11-3.66-.28-5.37-.5-1,1.24-1.84,2.43-2.57,3.56C30,17.11,29.71,19.12,30.28,19.72Z"/><path class="cls-1" d="M38.45,4.22C39,3.6,39.63,3,40.25,2.34c0-.69,0-1.39.06-2.08-1.84.11-3.6.28-5.25.5C36.1,1.89,37.23,3.05,38.45,4.22Z"/><path class="cls-1" d="M41.42,9.21l1.11,0L42.24,9l-.87-.75C41.38,8.59,41.4,8.9,41.42,9.21Z"/><path class="cls-1" d="M47.73,9.3,49.07,8c.32-.3.62-.6.93-.91V2.18l-1.15-1C48.42.82,48,.47,47.56.12L45.88.1,44,.12,42.68,1.39,41.27,2.77V3.9c0,1,0,2,0,3,.52.46,1,.92,1.59,1.37s.86.72,1.3,1.07l1.68,0ZM42.54,4.57A3.23,3.23,0,1,1,45.77,7.8,3.23,3.23,0,0,1,42.54,4.57Z"/><path class="cls-1" d="M50,.82V.19l-.78,0,.29.24Z"/><path class="cls-1" d="M42,.65l.51-.49-1.14,0c0,.36,0,.72,0,1.09C41.52,1.08,41.74.86,42,.65Z"/><path class="cls-1" d="M49.27,9.26l.73,0V8.56l-.22.21Z"/><path class="cls-1" d="M39.19,4.93l1.07,1c0-.67,0-1.35,0-2V3.82C39.88,4.19,39.54,4.56,39.19,4.93Z"/><path class="cls-1" d="M43.82,10.32c-.78,0-1.56,0-2.34-.08.1,1.4.22,2.75.38,4,1.13-.86,2.27-1.8,3.43-2.8Z"/><path class="cls-1" d="M45.88,26.58c-2.26,0-3.88-4.45-4.79-10.44-1.29.94-2.54,1.78-3.73,2.49-2,1.19-4.44,2.39-6.19,2.39a2.16,2.16,0,0,1-1.63-.59c-1.45-1.5.35-5,2.11-7.74.65-1,1.41-2.07,2.25-3.16C27.78,8.63,23.2,7,23.2,4.71S27.36.94,33.05,0l0,0H18c-.08.44-.14.88-.2,1.32l-1-.13c0-.4.1-.79.17-1.19H0V50H50V19.66C49.05,23.79,47.66,26.58,45.88,26.58Zm-3.22,6.24c.47,0,1,.09,1.43.12L44,34c-.49,0-1-.07-1.48-.12Zm-2.84-.47q.7.15,1.41.27l-.16,1-1.47-.27Zm-8-3.09c.42.24.84.47,1.27.68l-.47.92-1.31-.71ZM29.36,27.7c.39.28.79.55,1.19.81l-.55.86c-.42-.27-.84-.55-1.24-.84Zm-7-7.2-.85.57c-.27-.41-.54-.83-.8-1.26l.88-.53C21.86,19.69,22.12,20.1,22.38,20.5ZM20.9,18l-.9.49c-.24-.44-.46-.89-.67-1.33l.93-.44C20.46,17.18,20.68,17.61,20.9,18Zm-1.22-2.6-.95.39c-.19-.46-.36-.93-.53-1.39l1-.34C19.33,14.54,19.5,15,19.68,15.43Zm-.95-2.71-1,.29c-.14-.48-.27-1-.39-1.45l1-.23C18.47,11.79,18.6,12.26,18.73,12.72ZM17.84,8.5c.06.47.14.95.22,1.42l-1,.18c-.09-.48-.17-1-.24-1.47ZM16.66,7.15c0-.5-.06-1-.08-1.49l1,0c0,.48,0,1,.08,1.43Zm0-4.47,1,.07c0,.48-.06,1-.07,1.44l-1,0C16.58,3.67,16.61,3.17,16.64,2.68Zm-4.4,35.37H9.82v8.11h2.42v1.23H5.93V46.16H8.36V38.05H5.93V36.84h6.31Zm11.44,0H20.56v9.33H19.1V38.06H16V36.84h7.7Zm-.36-14.6c-.32-.38-.63-.78-.93-1.17l.83-.62c.28.38.58.76.89,1.13Zm2,2.19c-.35-.35-.7-.71-1-1.07l.76-.7c.32.35.66.7,1,1Zm1.77.25c.36.32.73.63,1.1.93l-.64.8q-.59-.46-1.14-1Zm6.66,19.94a2.67,2.67,0,0,1-.86.94,4.18,4.18,0,0,1-1.32.57,7.45,7.45,0,0,1-1.7.18c-.28,0-.56,0-.83,0l-.8-.08-.72-.11-.62-.14V45.78a7.29,7.29,0,0,0,1.36.35,10,10,0,0,0,1.72.13,5.77,5.77,0,0,0,1.18-.1,2.57,2.57,0,0,0,.8-.33,1.18,1.18,0,0,0,.45-.52,1.71,1.71,0,0,0,.14-.7,1.13,1.13,0,0,0-.24-.73,2.36,2.36,0,0,0-.62-.54,5.27,5.27,0,0,0-.89-.44l-1-.41c-.34-.13-.68-.29-1-.45a4.71,4.71,0,0,1-.89-.58,3,3,0,0,1-.62-.79,2.25,2.25,0,0,1-.24-1.07,2.71,2.71,0,0,1,.23-1.07,2.49,2.49,0,0,1,.7-.93,3.71,3.71,0,0,1,1.22-.66A5.83,5.83,0,0,1,31,36.69l.58,0c.21,0,.42,0,.63.06l.63.11a4.39,4.39,0,0,1,.57.12V38.3A8.85,8.85,0,0,0,32.15,38a8.28,8.28,0,0,0-1.2-.09,3.16,3.16,0,0,0-1.82.41,1.29,1.29,0,0,0-.58,1.1,1.17,1.17,0,0,0,.24.74,2.65,2.65,0,0,0,.63.55,6,6,0,0,0,.88.44l1,.4c.35.14.68.3,1,.46a4.26,4.26,0,0,1,.88.6,2.43,2.43,0,0,1,.62.8,2.34,2.34,0,0,1,.24,1.09A2.72,2.72,0,0,1,33.77,45.84Zm1.54-13.77c-.46-.17-.92-.37-1.38-.57l.42-.94c.44.2.89.38,1.33.56ZM37,31.6c.46.15.92.29,1.38.41l-.27,1c-.48-.13-1-.27-1.43-.43Zm7.47,14.24a2.67,2.67,0,0,1-.86.94,4,4,0,0,1-1.32.57,7.45,7.45,0,0,1-1.7.18c-.28,0-.56,0-.83,0l-.8-.08-.72-.11-.62-.14V45.78a7.29,7.29,0,0,0,1.36.35,10,10,0,0,0,1.72.13,5.77,5.77,0,0,0,1.18-.1,2.47,2.47,0,0,0,.8-.33,1.18,1.18,0,0,0,.45-.52,1.56,1.56,0,0,0,.14-.7,1.13,1.13,0,0,0-.24-.73,2.21,2.21,0,0,0-.62-.54,5.27,5.27,0,0,0-.89-.44l-1-.41c-.34-.13-.68-.29-1-.45a4.33,4.33,0,0,1-.88-.58,2.82,2.82,0,0,1-.63-.79,2.25,2.25,0,0,1-.24-1.07A2.71,2.71,0,0,1,38,38.53a2.49,2.49,0,0,1,.7-.93,3.71,3.71,0,0,1,1.22-.66,5.83,5.83,0,0,1,1.78-.25l.58,0c.21,0,.42,0,.63.06l.63.11a4.56,4.56,0,0,1,.58.12V38.3A9.31,9.31,0,0,0,42.89,38a8.28,8.28,0,0,0-1.2-.09,3.16,3.16,0,0,0-1.82.41,1.29,1.29,0,0,0-.58,1.1,1.17,1.17,0,0,0,.24.74,2.65,2.65,0,0,0,.63.55,6,6,0,0,0,.88.44l1,.4c.35.14.69.3,1,.46a4.26,4.26,0,0,1,.88.6,2.6,2.6,0,0,1,.63.8,2.47,2.47,0,0,1,.23,1.09A2.72,2.72,0,0,1,44.51,45.84ZM45.82,34h-.3V33c.48,0,1,0,1.44,0l0,1C46.62,34,46.22,34,45.82,34Zm2.68-.12-.09-1c.48,0,1-.1,1.43-.16l.14,1C49.49,33.79,49,33.85,48.5,33.9Z"/></g></g></svg>